<?xml version="1.0" encoding="UTF-8"?>
<svg id="Layer_1" data-name="Layer 1" xmlns="http://www.w3.org/2000/svg" xmlns:xlink="http://www.w3.org/1999/xlink" viewBox="0 0 680 450">
  <defs>
    <style>
      .cls-1, .cls-2, .cls-3 {
        fill: none;
      }

      .cls-4 {
        fill: #254546;
      }

      .cls-5 {
        fill: #527071;
      }

      .cls-2 {
        stroke: #6e8788;
      }

      .cls-2, .cls-3 {
        stroke-miterlimit: 10;
        stroke-width: 2px;
      }

      .cls-6 {
        fill: #add3b5;
      }

      .cls-3 {
        stroke: #527071;
      }

      .cls-7 {
        fill: #6e8788;
      }

      .cls-8 {
        clip-path: url(#clippath);
      }
    </style>
    <clipPath id="clippath">
      <rect class="cls-1" width="680" height="450"/>
    </clipPath>
  </defs>
  <g class="cls-8">
    <g>
      <rect class="cls-7" x="-45.29" y="-27.82" width="770.59" height="505.63"/>
      <g>
        <circle class="cls-6" cx="572.9" cy="188.52" r="105.54"/>
        <ellipse class="cls-2" cx="572.9" cy="188.52" rx="28.13" ry="105.54"/>
        <ellipse class="cls-2" cx="572.9" cy="188.52" rx="73.18" ry="105.54"/>
        <line class="cls-2" x1="464.81" y1="188.52" x2="680.77" y2="188.52"/>
        <line class="cls-2" x1="464.83" y1="230.65" x2="675.86" y2="230.65"/>
        <line class="cls-2" x1="464.81" y1="146.38" x2="675.83" y2="146.38"/>
        <line class="cls-2" x1="638.69" y1="104.25" x2="504.45" y2="104.25"/>
        <line class="cls-2" x1="469.97" y1="272.78" x2="680.99" y2="272.78"/>
        <circle class="cls-3" cx="572.87" cy="188.52" r="158.31"/>
        <circle class="cls-3" cx="572.9" cy="188.52" r="205.79"/>
        <circle class="cls-3" cx="572.87" cy="188.52" r="253.55"/>
        <polyline class="cls-3" points="298.84 208.99 319.32 188.52 339.8 208.99"/>
        <polyline class="cls-3" points="435.04 168.15 414.57 188.63 394.09 168.15"/>
      </g>
      <rect class="cls-5" x="-14.66" y="-19.46" width="258.55" height="193.92" rx="10" ry="10"/>
      <path class="cls-5" d="M80.29,168.29h55.2c1.66,0,3,1.34,3,3v93.68c0,3.06-4.03,4.16-5.58,1.52l-55.2-93.68c-1.18-2,.26-4.52,2.58-4.52Z"/>
      <rect class="cls-4" x="138.49" y="286.52" width="258.55" height="193.92" rx="10" ry="10" transform="translate(535.54 766.95) rotate(180)"/>
      <path class="cls-4" d="M302.09,292.69h-55.2c-1.66,0-3-1.34-3-3v-93.68c0-3.06,4.03-4.16,5.58-1.52l55.2,93.68c1.18,2-.26,4.52-2.58,4.52Z"/>
      <path class="cls-6" d="M65.48,126.16l33.12-86.36h17.89l33.8,86.36h-18.08l-7.34-19.55h-34.73l-7.1,19.55h-17.58ZM94.1,92.97h26.71l-13.57-35.04-13.14,35.04Z"/>
      <path class="cls-7" d="M297.09,369.13c-1.78,6.73-2.88,9.83-5.33,14.49-2.44,4.59-5.03,8.29-8.5,12.21,8.06,5.4,15.31,8.21,26.84,10.5-3.11,3.92-4.58,6.73-6.51,11.68-12.79-4.06-20.26-7.83-28.84-14.42-8.29,6.36-16.42,10.36-29.66,14.5-1.63-4.29-3.18-7.18-6.21-11.09,12.8-3.11,20.34-6.21,27.44-11.17-3.85-4.22-6.73-8.28-9.32-12.94-2.44-4.44-3.55-7.03-5.7-13.75h-1.48c-3.55,0-6.88.14-9.84.44v-11.46c3.03.37,5.99.52,10.13.52h17.6v-4.73c0-1.85-.15-3.48-.45-5.03h12.8c-.3,1.55-.45,3.11-.45,4.96v4.81h18.71c4.14,0,7.18-.15,10.21-.52v11.46c-2.96-.3-5.91-.44-9.76-.44h-1.7ZM263.29,369.13c1.55,4.81,2.59,7.24,4.96,11.16,2.07,3.47,3.84,5.77,6.21,8.29,2.37-2.59,4.14-5.11,5.85-8.21,2.07-3.63,2.81-5.62,4.44-11.24h-21.45Z"/>
    </g>
  </g>
</svg>