<svg width="652" height="212" viewBox="0 0 652 212" fill="none" xmlns="http://www.w3.org/2000/svg">
<path d="M193.836 75.2129V53.0103H198.902L207.338 67.0191H205.246L213.263 53.0103H218.307V75.2129H213.197L213.285 59.7283L214.232 60.0587L207.823 71.0279H204.321L197.669 60.0587L198.572 59.7283L198.66 75.2129H193.836Z" fill="white"/>
<path d="M223.555 75.2129V53.0103H228.819V62.4816L236.352 53.0103H242.916L234.7 63.2085L243.973 75.2129H237.211L231.242 67.1953L228.841 69.9486V75.2349H223.577L223.555 75.2129Z" fill="white"/>
<path d="M247.422 75.2129V53.0103H252.686V75.2129H247.422Z" fill="white"/>
<path d="M258.555 75.2129V53.0103H273.18V57.812H263.819V62.3935H272.189V67.0191H263.819V75.2129H258.555Z" fill="white"/>
<path d="M278.086 75.2129V53.0103H283.35V62.4816L290.883 53.0103H297.447L289.231 63.2085L298.504 75.2129H291.742L285.773 67.1953L283.372 69.9486V75.2349H278.108L278.086 75.2129Z" fill="white"/>
<path d="M194.211 113.406V91.2037H197.118L206.37 106.182H205.224L214.167 91.2037H216.986V113.406H214.057V95.2566L214.673 95.4548L206.744 108.406H204.453L196.436 95.4548L196.898 95.2566V113.406H194.211Z" fill="white"/>
<path d="M226.169 113.892C225.067 113.892 224.12 113.693 223.305 113.297C222.49 112.9 221.851 112.328 221.411 111.601C220.97 110.874 220.75 109.993 220.75 109.002C220.75 108.187 220.97 107.416 221.389 106.733C221.807 106.05 222.468 105.477 223.393 105.037C224.296 104.596 225.486 104.288 226.939 104.134C228.393 103.98 230.133 104.002 232.182 104.222L232.27 106.358C230.684 106.138 229.34 106.072 228.217 106.116C227.116 106.16 226.213 106.314 225.53 106.557C224.847 106.799 224.34 107.129 224.01 107.548C223.68 107.966 223.525 108.407 223.525 108.914C223.525 109.729 223.812 110.367 224.406 110.83C225.001 111.292 225.794 111.513 226.829 111.513C227.71 111.513 228.481 111.358 229.186 111.028C229.891 110.698 230.42 110.257 230.838 109.684C231.235 109.112 231.455 108.429 231.455 107.68V103.341C231.455 102.614 231.301 101.975 230.97 101.447C230.64 100.918 230.177 100.499 229.561 100.191C228.944 99.8827 228.173 99.7505 227.27 99.7505C226.455 99.7505 225.64 99.8827 224.847 100.125C224.054 100.367 223.261 100.764 222.534 101.314L221.653 99.0677C222.622 98.4069 223.613 97.9444 224.627 97.68C225.662 97.4157 226.631 97.2836 227.578 97.2836C229.01 97.2836 230.221 97.5038 231.235 97.9664C232.248 98.4069 232.997 99.0897 233.525 99.9928C234.054 100.896 234.318 102.019 234.318 103.363V113.473H231.631V111.579C231.102 112.35 230.354 112.944 229.384 113.341C228.415 113.737 227.38 113.958 226.213 113.958L226.169 113.892Z" fill="white"/>
<path d="M244.589 120.543C243.422 120.543 242.386 120.433 241.461 120.235C240.536 120.014 239.743 119.728 239.083 119.332C238.422 118.935 237.937 118.473 237.585 117.922C237.232 117.371 237.078 116.755 237.078 116.072C237.078 115.521 237.232 114.992 237.519 114.53C237.805 114.067 238.246 113.649 238.84 113.318C239.413 112.966 240.14 112.724 240.999 112.525C240.382 112.217 239.897 111.865 239.589 111.49C239.281 111.094 239.127 110.653 239.127 110.147C239.127 109.706 239.259 109.31 239.501 108.935C239.743 108.561 240.118 108.23 240.58 107.922C241.043 107.614 241.594 107.371 242.232 107.173C242.871 106.975 243.576 106.843 244.347 106.799L245.052 108.164C244.369 108.164 243.796 108.23 243.29 108.34C242.805 108.451 242.409 108.627 242.144 108.847C241.88 109.067 241.748 109.332 241.748 109.618C241.748 110.014 241.968 110.301 242.431 110.477C242.871 110.631 243.488 110.763 244.237 110.807L246.902 111.006C248.223 111.116 249.347 111.336 250.272 111.666C251.197 111.997 251.902 112.459 252.386 113.032C252.871 113.605 253.113 114.354 253.113 115.235C253.113 115.984 252.915 116.688 252.497 117.327C252.078 117.988 251.505 118.539 250.757 119.023C250.008 119.508 249.105 119.882 248.069 120.147C247.034 120.411 245.867 120.543 244.589 120.543ZM244.743 108.451C243.466 108.451 242.32 108.208 241.307 107.724C240.294 107.239 239.479 106.578 238.884 105.741C238.29 104.904 237.981 103.979 237.981 102.944C237.981 101.909 238.29 100.984 238.884 100.147C239.479 99.3096 240.294 98.6488 241.329 98.1643C242.364 97.6797 243.488 97.4374 244.765 97.4374C246.043 97.4374 247.188 97.6797 248.201 98.1643C249.215 98.6488 250.03 99.3096 250.624 100.147C251.219 100.984 251.527 101.909 251.527 102.944C251.527 103.979 251.219 104.926 250.624 105.741C250.03 106.578 249.215 107.239 248.201 107.724C247.188 108.208 246.043 108.451 244.765 108.451H244.743ZM244.809 118.429C246.483 118.429 247.805 118.164 248.774 117.658C249.743 117.129 250.228 116.468 250.228 115.653C250.228 115.036 249.898 114.53 249.237 114.177C248.576 113.825 247.585 113.605 246.241 113.495L243.422 113.296C242.673 113.34 242.056 113.495 241.527 113.693C240.999 113.913 240.602 114.199 240.316 114.552C240.03 114.904 239.897 115.301 239.897 115.741C239.897 116.27 240.096 116.733 240.492 117.129C240.889 117.525 241.461 117.856 242.188 118.076C242.915 118.296 243.796 118.407 244.809 118.407V118.429ZM244.743 106.138C245.536 106.138 246.219 106.006 246.814 105.741C247.409 105.477 247.871 105.103 248.223 104.618C248.554 104.133 248.73 103.583 248.73 102.922C248.73 101.975 248.356 101.204 247.629 100.609C246.902 100.014 245.933 99.7061 244.743 99.7061C243.972 99.7061 243.268 99.8383 242.673 100.125C242.078 100.411 241.616 100.785 241.285 101.248C240.955 101.711 240.779 102.283 240.779 102.922C240.779 103.869 241.153 104.64 241.88 105.235C242.607 105.829 243.576 106.138 244.743 106.138ZM247.188 100.257L246.109 98.1422L254.127 97.8779V100.345L247.188 100.257Z" fill="white"/>
<path d="M258.957 120.521C258.45 120.521 257.943 120.455 257.459 120.345C256.952 120.213 256.468 120.015 255.961 119.706L256.644 117.195C256.974 117.416 257.327 117.57 257.701 117.68C258.075 117.79 258.428 117.834 258.714 117.834C259.485 117.834 260.102 117.636 260.542 117.262C260.983 116.887 261.313 116.292 261.578 115.521L262.194 113.737L256.049 97.8783H259.243L263.846 110.411L268.34 97.8783H271.424L264.617 115.896C264.155 117.129 263.626 118.077 263.075 118.737C262.525 119.398 261.886 119.883 261.203 120.147C260.52 120.411 259.772 120.543 258.957 120.543V120.521Z" fill="white"/>
<path d="M277.981 113.892C276.88 113.892 275.933 113.693 275.118 113.297C274.303 112.9 273.664 112.328 273.223 111.601C272.783 110.874 272.562 109.993 272.562 109.002C272.562 108.187 272.783 107.416 273.201 106.733C273.62 106.05 274.281 105.477 275.206 105.037C276.109 104.596 277.298 104.288 278.752 104.134C280.206 103.98 281.946 104.002 283.994 104.222L284.082 106.358C282.496 106.138 281.153 106.072 280.029 106.116C278.928 106.16 278.025 106.314 277.342 106.557C276.659 106.799 276.153 107.129 275.822 107.548C275.492 107.966 275.338 108.407 275.338 108.914C275.338 109.729 275.624 110.367 276.219 110.83C276.814 111.292 277.607 111.513 278.642 111.513C279.523 111.513 280.294 111.358 280.999 111.028C281.703 110.698 282.232 110.257 282.651 109.684C283.047 109.112 283.267 108.429 283.267 107.68V103.341C283.267 102.614 283.113 101.975 282.783 101.447C282.452 100.918 281.99 100.499 281.373 100.191C280.756 99.8827 279.985 99.7505 279.082 99.7505C278.267 99.7505 277.452 99.8827 276.659 100.125C275.866 100.367 275.074 100.764 274.347 101.314L273.466 99.0677C274.435 98.4069 275.426 97.9444 276.439 97.68C277.474 97.4157 278.444 97.2836 279.391 97.2836C280.822 97.2836 282.034 97.5038 283.047 97.9664C284.06 98.4069 284.809 99.0897 285.338 99.9928C285.866 100.896 286.131 102.019 286.131 103.363V113.473H283.444V111.579C282.915 112.35 282.166 112.944 281.197 113.341C280.228 113.737 279.192 113.958 278.025 113.958L277.981 113.892Z" fill="white"/>
<path d="M290.273 113.407V97.8559H293.203V100.103C293.82 99.0893 294.569 98.3845 295.428 97.966C296.287 97.5695 297.212 97.3492 298.181 97.3492C298.489 97.3492 298.776 97.3493 299.062 97.3933C299.348 97.4374 299.635 97.4594 299.899 97.5255L299.48 100.565C299.194 100.477 298.886 100.411 298.577 100.367C298.269 100.323 297.961 100.301 297.674 100.301C296.375 100.301 295.295 100.697 294.458 101.512C293.621 102.327 293.203 103.407 293.203 104.75V113.384H290.273V113.407Z" fill="white"/>
<path d="M311.352 113.406V91.2037H314.325V103.186L324.039 91.2037H327.695L319.611 101.204L328.995 113.406H325.14L317.673 103.494L314.347 107.481V113.406H311.374H311.352Z" fill="white"/>
<path d="M337.903 113.891C336.295 113.891 334.863 113.517 333.608 112.768C332.352 112.019 331.361 111.028 330.634 109.772C329.907 108.517 329.555 107.151 329.555 105.653C329.555 104.552 329.753 103.495 330.171 102.504C330.59 101.513 331.163 100.631 331.911 99.8605C332.66 99.0896 333.541 98.4949 334.555 98.0543C335.568 97.6138 336.691 97.3936 337.881 97.3936C339.489 97.3936 340.942 97.768 342.198 98.5169C343.453 99.2658 344.445 100.257 345.171 101.512C345.898 102.768 346.251 104.134 346.251 105.631C346.251 106.733 346.052 107.79 345.634 108.781C345.215 109.772 344.643 110.653 343.894 111.402C343.145 112.173 342.264 112.768 341.251 113.209C340.238 113.649 339.114 113.869 337.903 113.869V113.891ZM337.903 111.248C338.938 111.248 339.885 111.028 340.678 110.565C341.493 110.103 342.132 109.464 342.594 108.605C343.057 107.768 343.299 106.777 343.299 105.631C343.299 104.486 343.079 103.473 342.616 102.636C342.154 101.799 341.515 101.138 340.7 100.698C339.885 100.235 338.96 100.015 337.903 100.015C336.845 100.015 335.92 100.235 335.127 100.698C334.312 101.16 333.674 101.799 333.233 102.636C332.771 103.473 332.55 104.464 332.55 105.631C332.55 106.799 332.771 107.768 333.233 108.605C333.696 109.442 334.334 110.103 335.149 110.565C335.964 111.028 336.889 111.248 337.925 111.248H337.903ZM334.643 94.9486C334.114 94.9486 333.674 94.7724 333.277 94.398C332.881 94.0235 332.682 93.561 332.682 93.0103C332.682 92.6359 332.771 92.3055 332.947 92.0191C333.123 91.7328 333.365 91.5125 333.652 91.3363C333.938 91.1821 334.268 91.094 334.621 91.094C335.149 91.094 335.612 91.2702 335.986 91.6226C336.383 91.9751 336.559 92.4376 336.559 93.0103C336.559 93.3847 336.471 93.7372 336.295 94.0235C336.119 94.3099 335.876 94.5522 335.59 94.7063C335.304 94.8605 334.973 94.9486 334.621 94.9486H334.643ZM341.141 94.9486C340.634 94.9486 340.171 94.7724 339.775 94.398C339.378 94.0235 339.18 93.561 339.18 93.0103C339.18 92.6359 339.268 92.3055 339.445 92.0191C339.621 91.7328 339.863 91.5125 340.149 91.3363C340.436 91.1821 340.766 91.094 341.119 91.094C341.647 91.094 342.11 91.2702 342.484 91.6226C342.881 91.9751 343.057 92.4376 343.057 93.0103C343.057 93.3847 342.969 93.7372 342.793 94.0235C342.616 94.3099 342.374 94.5522 342.088 94.7063C341.801 94.8605 341.471 94.9486 341.119 94.9486H341.141Z" fill="white"/>
<path d="M348.264 113.406V111.226L356.744 100.477H348.396V97.8557H360.313V100.036L351.965 110.763H360.445V113.406H348.242H348.264Z" fill="white"/>
<path d="M364.469 113.406V90.5649H367.398V113.406H364.469Z" fill="white"/>
<path d="M378.778 113.891C377.17 113.891 375.738 113.517 374.483 112.768C373.227 112.019 372.236 111.028 371.509 109.772C370.782 108.517 370.43 107.151 370.43 105.653C370.43 104.552 370.628 103.495 371.046 102.504C371.465 101.513 372.038 100.631 372.786 99.8605C373.535 99.0896 374.416 98.4949 375.43 98.0543C376.443 97.6138 377.566 97.3936 378.756 97.3936C380.364 97.3936 381.817 97.768 383.073 98.5169C384.328 99.2658 385.32 100.257 386.046 101.512C386.773 102.768 387.126 104.134 387.126 105.631C387.126 106.733 386.927 107.79 386.509 108.781C386.09 109.772 385.518 110.653 384.769 111.402C384.02 112.173 383.139 112.768 382.126 113.209C381.113 113.649 379.989 113.869 378.778 113.869V113.891ZM378.778 111.248C379.813 111.248 380.76 111.028 381.553 110.565C382.368 110.103 383.007 109.464 383.469 108.605C383.932 107.768 384.174 106.777 384.174 105.631C384.174 104.486 383.954 103.473 383.491 102.636C383.029 101.799 382.39 101.138 381.575 100.698C380.76 100.235 379.835 100.015 378.778 100.015C377.72 100.015 376.795 100.235 376.002 100.698C375.187 101.16 374.549 101.799 374.108 102.636C373.646 103.473 373.425 104.464 373.425 105.631C373.425 106.799 373.646 107.768 374.108 108.605C374.571 109.442 375.209 110.103 376.024 110.565C376.839 111.028 377.764 111.248 378.8 111.248H378.778ZM375.54 94.9486C375.011 94.9486 374.571 94.7724 374.174 94.398C373.778 94.0235 373.579 93.561 373.579 93.0103C373.579 92.6359 373.668 92.3055 373.844 92.0191C374.02 91.7328 374.262 91.5125 374.549 91.3363C374.835 91.1821 375.165 91.094 375.518 91.094C376.046 91.094 376.509 91.2702 376.883 91.6226C377.28 91.9751 377.456 92.4376 377.456 93.0103C377.456 93.3847 377.368 93.7372 377.192 94.0235C377.016 94.3099 376.773 94.5522 376.487 94.7063C376.201 94.8605 375.87 94.9486 375.518 94.9486H375.54ZM382.038 94.9486C381.531 94.9486 381.068 94.7724 380.672 94.398C380.275 94.0235 380.077 93.561 380.077 93.0103C380.077 92.6359 380.165 92.3055 380.342 92.0191C380.518 91.7328 380.76 91.5125 381.046 91.3363C381.333 91.1821 381.663 91.094 382.016 91.094C382.544 91.094 383.007 91.2702 383.381 91.6226C383.778 91.9751 383.954 92.4376 383.954 93.0103C383.954 93.3847 383.866 93.7372 383.69 94.0235C383.513 94.3099 383.271 94.5522 382.985 94.7063C382.698 94.8605 382.368 94.9486 382.016 94.9486H382.038Z" fill="white"/>
<path d="M390.164 113.407V97.8559H393.094V99.9484C393.754 99.0453 394.547 98.3845 395.428 97.988C396.309 97.5915 397.235 97.3933 398.16 97.3933C399.569 97.3933 400.737 97.6797 401.662 98.2523C402.587 98.825 403.27 99.5299 403.732 100.411C404.195 101.292 404.415 102.195 404.415 103.098V113.407H401.486V104.001C401.486 102.834 401.111 101.887 400.384 101.16C399.657 100.455 398.666 100.081 397.411 100.081C396.596 100.081 395.847 100.257 395.208 100.631C394.547 101.006 394.041 101.512 393.666 102.173C393.292 102.834 393.094 103.605 393.094 104.464V113.384H390.164V113.407Z" fill="white"/>
<path d="M409.957 120.521C409.45 120.521 408.943 120.455 408.459 120.345C407.952 120.213 407.468 120.015 406.961 119.706L407.644 117.195C407.974 117.416 408.327 117.57 408.701 117.68C409.075 117.79 409.428 117.834 409.714 117.834C410.485 117.834 411.102 117.636 411.542 117.262C411.983 116.887 412.313 116.292 412.578 115.521L413.194 113.737L407.049 97.8783H410.243L414.846 110.411L419.34 97.8783H422.424L415.617 115.896C415.155 117.129 414.626 118.077 414.075 118.737C413.525 119.398 412.886 119.883 412.203 120.147C411.52 120.411 410.772 120.543 409.957 120.543V120.521Z" fill="white"/>
<path d="M425.32 113.406V90.5649H428.25V104.574L434.858 97.8557H438.338L432.831 103.693L439.263 113.406H435.739L430.717 105.587L428.25 108.076V113.406H425.32Z" fill="white"/>
<path d="M442.73 94.9266C442.179 94.9266 441.694 94.7504 441.298 94.3759C440.901 94.0015 440.703 93.5389 440.703 92.9662C440.703 92.3935 440.901 91.931 441.298 91.5565C441.694 91.1821 442.179 91.0059 442.73 91.0059C443.28 91.0059 443.765 91.1821 444.161 91.5565C444.558 91.931 444.756 92.3935 444.756 92.9662C444.756 93.5389 444.558 94.0015 444.161 94.3759C443.765 94.7504 443.28 94.9266 442.73 94.9266ZM441.276 113.407V97.8561H444.205V113.407H441.276Z" fill="white"/>
<path d="M452.903 113.892C451.802 113.892 450.854 113.693 450.039 113.297C449.224 112.9 448.586 112.328 448.145 111.601C447.705 110.874 447.484 109.993 447.484 109.002C447.484 108.187 447.705 107.416 448.123 106.733C448.542 106.05 449.202 105.477 450.128 105.037C451.031 104.596 452.22 104.288 453.674 104.134C455.128 103.98 456.868 104.002 458.916 104.222L459.004 106.358C457.418 106.138 456.075 106.072 454.951 106.116C453.85 106.16 452.947 106.314 452.264 106.557C451.581 106.799 451.075 107.129 450.744 107.548C450.414 107.966 450.26 108.407 450.26 108.914C450.26 109.729 450.546 110.367 451.141 110.83C451.735 111.292 452.528 111.513 453.564 111.513C454.445 111.513 455.216 111.358 455.921 111.028C456.625 110.698 457.154 110.257 457.572 109.684C457.969 109.112 458.189 108.429 458.189 107.68V103.341C458.189 102.614 458.035 101.975 457.705 101.447C457.374 100.918 456.912 100.499 456.295 100.191C455.678 99.8827 454.907 99.7505 454.004 99.7505C453.189 99.7505 452.374 99.8827 451.581 100.125C450.788 100.367 449.995 100.764 449.269 101.314L448.387 99.0677C449.357 98.4069 450.348 97.9444 451.361 97.68C452.396 97.4157 453.365 97.2836 454.313 97.2836C455.744 97.2836 456.956 97.5038 457.969 97.9664C458.982 98.4069 459.731 99.0897 460.26 99.9928C460.788 100.896 461.053 102.019 461.053 103.363V113.473H458.365V111.579C457.837 112.35 457.088 112.944 456.119 113.341C455.15 113.737 454.114 113.958 452.947 113.958L452.903 113.892Z" fill="white"/>
<path d="M472.257 113.891C470.715 113.891 469.371 113.516 468.182 112.79C466.993 112.063 466.089 111.072 465.429 109.838C464.768 108.605 464.438 107.195 464.438 105.653C464.438 104.508 464.636 103.45 465.01 102.459C465.385 101.468 465.935 100.587 466.618 99.8381C467.301 99.0892 468.138 98.4945 469.107 98.0539C470.076 97.6354 471.134 97.4152 472.301 97.4152C473.799 97.4152 475.076 97.7235 476.134 98.3183C477.191 98.913 478.072 99.7279 478.755 100.741L478.16 101.402V90.609H481.089V113.45H478.402V109.794L478.821 110.455C478.226 111.446 477.389 112.283 476.332 112.922C475.275 113.583 473.909 113.913 472.257 113.913V113.891ZM472.786 111.248C473.821 111.248 474.768 111.028 475.561 110.565C476.376 110.102 477.015 109.464 477.477 108.605C477.94 107.768 478.182 106.776 478.182 105.631C478.182 104.486 477.962 103.472 477.499 102.635C477.037 101.798 476.398 101.138 475.583 100.697C474.768 100.235 473.843 100.014 472.786 100.014C471.728 100.014 470.803 100.235 470.01 100.697C469.195 101.16 468.556 101.798 468.116 102.635C467.653 103.472 467.433 104.464 467.433 105.631C467.433 106.798 467.653 107.768 468.116 108.605C468.578 109.442 469.217 110.102 470.032 110.565C470.847 111.028 471.772 111.248 472.808 111.248H472.786Z" fill="white"/>
<path d="M493.067 113.891C491.459 113.891 490.027 113.517 488.772 112.768C487.516 112.019 486.525 111.028 485.798 109.772C485.071 108.517 484.719 107.151 484.719 105.653C484.719 104.552 484.917 103.495 485.335 102.504C485.754 101.512 486.327 100.631 487.076 99.8605C487.824 99.0896 488.706 98.4949 489.719 98.0543C490.732 97.6138 491.855 97.3936 493.045 97.3936C494.653 97.3936 496.106 97.768 497.362 98.5169C498.617 99.2658 499.609 100.257 500.335 101.512C501.062 102.768 501.415 104.134 501.415 105.631C501.415 106.733 501.217 107.79 500.798 108.781C500.38 109.772 499.807 110.653 499.058 111.402C498.309 112.173 497.428 112.768 496.415 113.209C495.402 113.649 494.278 113.869 493.067 113.869V113.891ZM493.067 111.248C494.102 111.248 495.049 111.028 495.842 110.565C496.657 110.103 497.296 109.464 497.758 108.605C498.221 107.768 498.463 106.777 498.463 105.631C498.463 104.486 498.243 103.473 497.78 102.636C497.318 101.799 496.679 101.138 495.864 100.698C495.049 100.235 494.124 100.015 493.067 100.015C492.009 100.015 491.084 100.235 490.291 100.698C489.476 101.16 488.838 101.799 488.397 102.636C487.935 103.473 487.714 104.464 487.714 105.631C487.714 106.799 487.935 107.768 488.397 108.605C488.86 109.442 489.498 110.103 490.313 110.565C491.128 111.028 492.054 111.248 493.089 111.248H493.067ZM491.525 94.8605L494.476 89.3979H497.472L494.234 94.8605H491.525Z" fill="white"/>
<path d="M520.026 113.891C518.374 113.891 516.921 113.539 515.665 112.856C514.41 112.173 513.418 111.204 512.714 109.971C512.009 108.737 511.656 107.305 511.656 105.675C511.656 104.486 511.854 103.385 512.273 102.372C512.691 101.358 513.242 100.477 513.991 99.7284C514.718 98.9795 515.577 98.4068 516.568 98.0103C517.559 97.5918 518.639 97.3936 519.806 97.3936C521.062 97.3936 522.185 97.6138 523.176 98.0543C524.167 98.4949 524.982 99.1116 525.643 99.9266C526.304 100.72 526.766 101.667 527.053 102.724C527.339 103.803 527.405 104.971 527.229 106.226H514.564C514.542 107.261 514.74 108.164 515.203 108.957C515.665 109.728 516.326 110.345 517.185 110.764C518.044 111.204 519.079 111.424 520.247 111.424C521.106 111.424 521.965 111.292 522.78 111.006C523.595 110.72 524.343 110.323 524.96 109.794L526.194 111.975C525.687 112.394 525.092 112.746 524.388 113.032C523.705 113.319 522.978 113.539 522.229 113.693C521.48 113.847 520.753 113.913 520.048 113.913L520.026 113.891ZM514.696 103.957H524.277C524.233 102.636 523.837 101.623 523.066 100.896C522.295 100.169 521.194 99.7944 519.762 99.7944C518.33 99.7944 517.207 100.169 516.304 100.896C515.401 101.623 514.872 102.658 514.718 103.957H514.696ZM518.176 94.8605L521.128 89.3979H524.123L520.885 94.8605H518.176Z" fill="white"/>
<path d="M535.969 113.869C534.736 113.869 533.59 113.693 532.489 113.319C531.388 112.944 530.485 112.46 529.758 111.843L530.969 109.64C531.652 110.213 532.445 110.654 533.326 110.984C534.207 111.314 535.088 111.469 535.991 111.469C537.093 111.469 537.952 111.27 538.568 110.874C539.185 110.477 539.494 109.905 539.494 109.178C539.494 108.495 539.229 107.988 538.701 107.68C538.172 107.372 537.181 107.019 535.749 106.667C533.855 106.226 532.467 105.654 531.608 104.927C530.749 104.2 530.308 103.187 530.308 101.909C530.308 101.006 530.573 100.191 531.079 99.4862C531.586 98.7813 532.291 98.2307 533.172 97.8342C534.053 97.4377 535.066 97.2395 536.234 97.2395C537.401 97.2395 538.436 97.3937 539.427 97.7241C540.419 98.0545 541.278 98.517 542.005 99.1338L540.881 101.358C540.507 101.006 540.066 100.698 539.582 100.455C539.075 100.191 538.546 99.9928 537.974 99.8606C537.401 99.7285 536.828 99.6404 536.256 99.6404C535.309 99.6404 534.538 99.8386 533.943 100.213C533.348 100.588 533.04 101.116 533.04 101.799C533.04 102.482 533.326 103.032 533.899 103.363C534.471 103.693 535.441 104.024 536.784 104.332C538.723 104.773 540.132 105.345 540.969 106.072C541.806 106.799 542.247 107.79 542.247 109.068C542.247 110.059 541.982 110.896 541.476 111.623C540.947 112.35 540.242 112.9 539.295 113.297C538.348 113.693 537.269 113.891 536.035 113.891L535.969 113.869Z" fill="white"/>
<path d="M194.211 151.601V129.398H197.185V151.601H194.211Z" fill="white"/>
<path d="M206.941 158.737C205.773 158.737 204.738 158.626 203.813 158.428C202.888 158.208 202.095 157.922 201.434 157.525C200.773 157.129 200.289 156.666 199.936 156.115C199.584 155.565 199.43 154.948 199.43 154.265C199.43 153.715 199.584 153.186 199.87 152.723C200.157 152.261 200.597 151.842 201.192 151.512C201.764 151.159 202.491 150.917 203.35 150.719C202.734 150.411 202.249 150.058 201.941 149.684C201.632 149.287 201.478 148.847 201.478 148.34C201.478 147.9 201.61 147.503 201.853 147.129C202.095 146.754 202.469 146.424 202.932 146.115C203.394 145.807 203.945 145.565 204.584 145.367C205.223 145.168 205.927 145.036 206.698 144.992L207.403 146.358C206.72 146.358 206.148 146.424 205.641 146.534C205.157 146.644 204.76 146.82 204.496 147.041C204.231 147.261 204.099 147.525 204.099 147.811C204.099 148.208 204.32 148.494 204.782 148.671C205.223 148.825 205.839 148.957 206.588 149.001L209.253 149.199C210.575 149.309 211.698 149.53 212.624 149.86C213.549 150.19 214.253 150.653 214.738 151.226C215.223 151.798 215.465 152.547 215.465 153.428C215.465 154.177 215.267 154.882 214.848 155.521C214.43 156.182 213.857 156.732 213.108 157.217C212.359 157.701 211.456 158.076 210.421 158.34C209.386 158.604 208.218 158.737 206.941 158.737ZM207.073 146.644C205.795 146.644 204.65 146.402 203.637 145.917C202.624 145.433 201.809 144.772 201.214 143.935C200.619 143.098 200.311 142.173 200.311 141.137C200.311 140.102 200.619 139.177 201.214 138.34C201.809 137.503 202.624 136.842 203.659 136.358C204.694 135.873 205.817 135.631 207.095 135.631C208.372 135.631 209.518 135.873 210.531 136.358C211.544 136.842 212.359 137.503 212.954 138.34C213.549 139.177 213.857 140.102 213.857 141.137C213.857 142.173 213.549 143.12 212.954 143.935C212.359 144.772 211.544 145.433 210.531 145.917C209.518 146.402 208.372 146.644 207.095 146.644H207.073ZM207.161 156.622C208.835 156.622 210.157 156.358 211.126 155.851C212.095 155.322 212.579 154.662 212.579 153.847C212.579 153.23 212.249 152.723 211.588 152.371C210.927 152.019 209.936 151.798 208.593 151.688L205.773 151.49C205.024 151.534 204.408 151.688 203.879 151.886C203.35 152.107 202.954 152.393 202.668 152.745C202.381 153.098 202.249 153.494 202.249 153.935C202.249 154.463 202.447 154.926 202.844 155.322C203.24 155.719 203.813 156.049 204.54 156.27C205.267 156.49 206.148 156.6 207.161 156.6V156.622ZM207.073 144.331C207.866 144.331 208.549 144.199 209.143 143.935C209.738 143.67 210.201 143.296 210.553 142.811C210.883 142.327 211.06 141.776 211.06 141.115C211.06 140.168 210.685 139.397 209.958 138.803C209.231 138.208 208.262 137.9 207.073 137.9C206.302 137.9 205.597 138.032 205.002 138.318C204.408 138.604 203.945 138.979 203.615 139.441C203.284 139.904 203.108 140.477 203.108 141.115C203.108 142.063 203.483 142.833 204.209 143.428C204.936 144.023 205.905 144.331 207.073 144.331ZM209.54 138.45L208.461 136.336L216.478 136.071V138.538L209.54 138.45Z" fill="white"/>
<path d="M223.278 152.085C222.177 152.085 221.229 151.887 220.414 151.49C219.599 151.094 218.961 150.521 218.52 149.794C218.08 149.067 217.859 148.186 217.859 147.195C217.859 146.38 218.08 145.609 218.498 144.926C218.917 144.244 219.577 143.671 220.503 143.23C221.406 142.79 222.595 142.481 224.049 142.327C225.503 142.173 227.243 142.195 229.291 142.415L229.379 144.552C227.793 144.332 226.45 144.266 225.326 144.31C224.225 144.354 223.322 144.508 222.639 144.75C221.956 144.992 221.45 145.323 221.119 145.741C220.789 146.16 220.635 146.6 220.635 147.107C220.635 147.922 220.921 148.561 221.516 149.023C222.11 149.486 222.903 149.706 223.939 149.706C224.82 149.706 225.591 149.552 226.295 149.222C227 148.891 227.529 148.451 227.947 147.878C228.344 147.305 228.564 146.622 228.564 145.874V141.534C228.564 140.807 228.41 140.169 228.08 139.64C227.749 139.111 227.287 138.693 226.67 138.385C226.053 138.076 225.282 137.944 224.379 137.944C223.564 137.944 222.749 138.076 221.956 138.318C221.163 138.561 220.37 138.957 219.644 139.508L218.762 137.261C219.732 136.6 220.723 136.138 221.736 135.874C222.771 135.609 223.74 135.477 224.688 135.477C226.119 135.477 227.331 135.697 228.344 136.16C229.357 136.6 230.106 137.283 230.635 138.186C231.163 139.089 231.428 140.213 231.428 141.556V151.666H228.74V149.772C228.212 150.543 227.463 151.138 226.494 151.534C225.525 151.931 224.489 152.151 223.322 152.151L223.278 152.085Z" fill="white"/>
<path d="M235.155 151.601V149.42L243.635 138.671H235.287V136.05H247.203V138.231L238.855 148.957H247.335V151.601H235.133H235.155Z" fill="white"/>
<path d="M255.766 152.063C254.533 152.063 253.387 151.887 252.286 151.512C251.185 151.138 250.282 150.653 249.555 150.037L250.766 147.834C251.449 148.407 252.242 148.847 253.123 149.177C254.004 149.508 254.885 149.662 255.788 149.662C256.889 149.662 257.749 149.464 258.365 149.067C258.982 148.671 259.29 148.098 259.29 147.371C259.29 146.688 259.026 146.182 258.497 145.874C257.969 145.565 256.978 145.213 255.546 144.86C253.652 144.42 252.264 143.847 251.405 143.12C250.546 142.393 250.105 141.38 250.105 140.103C250.105 139.2 250.37 138.385 250.876 137.68C251.383 136.975 252.088 136.424 252.969 136.028C253.85 135.631 254.863 135.433 256.03 135.433C257.198 135.433 258.233 135.587 259.224 135.918C260.215 136.248 261.075 136.711 261.801 137.327L260.678 139.552C260.304 139.2 259.863 138.891 259.378 138.649C258.872 138.385 258.343 138.186 257.771 138.054C257.198 137.922 256.625 137.834 256.053 137.834C255.105 137.834 254.334 138.032 253.74 138.407C253.145 138.781 252.837 139.31 252.837 139.992C252.837 140.675 253.123 141.226 253.696 141.556C254.268 141.887 255.238 142.217 256.581 142.525C258.519 142.966 259.929 143.539 260.766 144.266C261.603 144.992 262.044 145.984 262.044 147.261C262.044 148.252 261.779 149.089 261.273 149.816C260.744 150.543 260.039 151.094 259.092 151.49C258.145 151.887 257.066 152.085 255.832 152.085L255.766 152.063Z" fill="white"/>
<path d="M270.442 152.085C269.341 152.085 268.393 151.887 267.579 151.49C266.764 151.094 266.125 150.521 265.684 149.794C265.244 149.067 265.023 148.186 265.023 147.195C265.023 146.38 265.244 145.609 265.662 144.926C266.081 144.243 266.741 143.671 267.667 143.23C268.57 142.79 269.759 142.481 271.213 142.327C272.667 142.173 274.407 142.195 276.455 142.415L276.543 144.552C274.957 144.332 273.614 144.265 272.49 144.309C271.389 144.354 270.486 144.508 269.803 144.75C269.12 144.992 268.614 145.323 268.283 145.741C267.953 146.16 267.799 146.6 267.799 147.107C267.799 147.922 268.085 148.561 268.68 149.023C269.275 149.486 270.067 149.706 271.103 149.706C271.984 149.706 272.755 149.552 273.46 149.221C274.164 148.891 274.693 148.45 275.112 147.878C275.508 147.305 275.728 146.622 275.728 145.873V141.534C275.728 140.807 275.574 140.169 275.244 139.64C274.913 139.111 274.451 138.693 273.834 138.384C273.217 138.076 272.446 137.944 271.543 137.944C270.728 137.944 269.913 138.076 269.12 138.318C268.327 138.561 267.534 138.957 266.808 139.508L265.927 137.261C266.896 136.6 267.887 136.138 268.9 135.873C269.935 135.609 270.905 135.477 271.852 135.477C273.283 135.477 274.495 135.697 275.508 136.16C276.521 136.6 277.27 137.283 277.799 138.186C278.327 139.089 278.592 140.213 278.592 141.556V151.666H275.905V149.772C275.376 150.543 274.627 151.138 273.658 151.534C272.689 151.931 271.653 152.151 270.486 152.151L270.442 152.085ZM270.2 133.054L273.151 127.591H276.147L272.909 133.054H270.2Z" fill="white"/>
<path d="M288.847 158.737C287.68 158.737 286.644 158.626 285.719 158.428C284.794 158.208 284.001 157.922 283.34 157.525C282.68 157.129 282.195 156.666 281.843 156.115C281.49 155.565 281.336 154.948 281.336 154.265C281.336 153.715 281.49 153.186 281.776 152.723C282.063 152.261 282.503 151.842 283.098 151.512C283.671 151.159 284.398 150.917 285.257 150.719C284.64 150.411 284.155 150.058 283.847 149.684C283.539 149.287 283.384 148.847 283.384 148.34C283.384 147.9 283.517 147.503 283.759 147.129C284.001 146.754 284.376 146.424 284.838 146.115C285.301 145.807 285.851 145.565 286.49 145.367C287.129 145.168 287.834 145.036 288.605 144.992L289.309 146.358C288.627 146.358 288.054 146.424 287.547 146.534C287.063 146.644 286.666 146.82 286.402 147.041C286.138 147.261 286.006 147.525 286.006 147.811C286.006 148.208 286.226 148.494 286.688 148.671C287.129 148.825 287.746 148.957 288.495 149.001L291.16 149.199C292.481 149.309 293.605 149.53 294.53 149.86C295.455 150.19 296.16 150.653 296.644 151.226C297.129 151.798 297.371 152.547 297.371 153.428C297.371 154.177 297.173 154.882 296.754 155.521C296.336 156.182 295.763 156.732 295.014 157.217C294.265 157.701 293.362 158.076 292.327 158.34C291.292 158.604 290.124 158.737 288.847 158.737ZM288.979 146.644C287.702 146.644 286.556 146.402 285.543 145.917C284.53 145.433 283.715 144.772 283.12 143.935C282.525 143.098 282.217 142.173 282.217 141.137C282.217 140.102 282.525 139.177 283.12 138.34C283.715 137.503 284.53 136.842 285.565 136.358C286.6 135.873 287.724 135.631 289.001 135.631C290.279 135.631 291.424 135.873 292.437 136.358C293.45 136.842 294.265 137.503 294.86 138.34C295.455 139.177 295.763 140.102 295.763 141.137C295.763 142.173 295.455 143.12 294.86 143.935C294.265 144.772 293.45 145.433 292.437 145.917C291.424 146.402 290.279 146.644 289.001 146.644H288.979ZM289.067 156.622C290.741 156.622 292.063 156.358 293.032 155.851C294.001 155.322 294.486 154.662 294.486 153.847C294.486 153.23 294.155 152.723 293.495 152.371C292.834 152.019 291.843 151.798 290.499 151.688L287.68 151.49C286.931 151.534 286.314 151.688 285.785 151.886C285.257 152.107 284.86 152.393 284.574 152.745C284.287 153.098 284.155 153.494 284.155 153.935C284.155 154.463 284.354 154.926 284.75 155.322C285.147 155.719 285.719 156.049 286.446 156.27C287.173 156.49 288.054 156.6 289.067 156.6V156.622ZM288.979 144.331C289.772 144.331 290.455 144.199 291.05 143.935C291.644 143.67 292.107 143.296 292.459 142.811C292.79 142.327 292.966 141.776 292.966 141.115C292.966 140.168 292.591 139.397 291.865 138.803C291.138 138.208 290.169 137.9 288.979 137.9C288.208 137.9 287.503 138.032 286.909 138.318C286.314 138.604 285.851 138.979 285.521 139.441C285.191 139.904 285.014 140.477 285.014 141.115C285.014 142.063 285.389 142.833 286.116 143.428C286.843 144.023 287.812 144.331 288.979 144.331ZM291.446 138.45L290.367 136.336L298.384 136.071V138.538L291.446 138.45Z" fill="white"/>
<path d="M306.873 152.085C305.486 152.085 304.34 151.798 303.437 151.248C302.534 150.697 301.851 149.948 301.411 149.067C300.97 148.164 300.75 147.217 300.75 146.182V136.072H303.68V145.565C303.68 146.71 304.032 147.635 304.715 148.34C305.398 149.045 306.367 149.398 307.578 149.398C308.349 149.398 309.076 149.221 309.693 148.869C310.309 148.517 310.838 148.01 311.213 147.349C311.587 146.688 311.785 145.939 311.785 145.08V136.094H314.693V151.644H312.006V149.75C311.367 150.521 310.618 151.116 309.737 151.534C308.878 151.931 307.909 152.129 306.851 152.129L306.873 152.085ZM304.45 133.142C303.922 133.142 303.481 132.966 303.085 132.591C302.688 132.217 302.49 131.754 302.49 131.204C302.49 130.829 302.578 130.499 302.754 130.213C302.931 129.926 303.173 129.706 303.459 129.53C303.746 129.376 304.076 129.287 304.428 129.287C304.957 129.287 305.42 129.464 305.794 129.816C306.191 130.169 306.367 130.631 306.367 131.204C306.367 131.578 306.279 131.931 306.102 132.217C305.926 132.503 305.684 132.746 305.398 132.9C305.111 133.054 304.781 133.142 304.428 133.142H304.45ZM310.948 133.142C310.42 133.142 309.979 132.966 309.583 132.591C309.186 132.217 308.988 131.754 308.988 131.204C308.988 130.829 309.076 130.499 309.252 130.213C309.428 129.926 309.671 129.706 309.957 129.53C310.243 129.376 310.574 129.287 310.926 129.287C311.455 129.287 311.917 129.464 312.292 129.816C312.688 130.169 312.865 130.631 312.865 131.204C312.865 131.578 312.776 131.931 312.6 132.217C312.424 132.503 312.182 132.746 311.895 132.9C311.609 133.054 311.279 133.142 310.926 133.142H310.948Z" fill="white"/>
<path d="M325.23 158.737C324.062 158.737 323.027 158.626 322.102 158.428C321.177 158.208 320.384 157.922 319.723 157.525C319.062 157.129 318.578 156.666 318.225 156.115C317.873 155.565 317.719 154.948 317.719 154.265C317.719 153.715 317.873 153.186 318.159 152.723C318.446 152.261 318.886 151.842 319.481 151.512C320.054 151.159 320.78 150.917 321.639 150.719C321.023 150.411 320.538 150.058 320.23 149.684C319.921 149.287 319.767 148.847 319.767 148.34C319.767 147.9 319.899 147.503 320.142 147.129C320.384 146.754 320.758 146.424 321.221 146.115C321.684 145.807 322.234 145.565 322.873 145.367C323.512 145.168 324.217 145.036 324.987 144.992L325.692 146.358C325.01 146.358 324.437 146.424 323.93 146.534C323.446 146.644 323.049 146.82 322.785 147.041C322.521 147.261 322.388 147.525 322.388 147.811C322.388 148.208 322.609 148.494 323.071 148.671C323.512 148.825 324.128 148.957 324.877 149.001L327.543 149.199C328.864 149.309 329.987 149.53 330.913 149.86C331.838 150.19 332.543 150.653 333.027 151.226C333.512 151.798 333.754 152.547 333.754 153.428C333.754 154.177 333.556 154.882 333.137 155.521C332.719 156.182 332.146 156.732 331.397 157.217C330.648 157.701 329.745 158.076 328.71 158.34C327.675 158.604 326.507 158.737 325.23 158.737ZM325.384 146.644C324.106 146.644 322.961 146.402 321.948 145.917C320.935 145.433 320.12 144.772 319.525 143.935C318.93 143.098 318.622 142.173 318.622 141.137C318.622 140.102 318.93 139.177 319.525 138.34C320.12 137.503 320.935 136.842 321.97 136.358C323.005 135.873 324.128 135.631 325.406 135.631C326.684 135.631 327.829 135.873 328.842 136.358C329.855 136.842 330.67 137.503 331.265 138.34C331.86 139.177 332.168 140.102 332.168 141.137C332.168 142.173 331.86 143.12 331.265 143.935C330.67 144.772 329.855 145.433 328.842 145.917C327.829 146.402 326.684 146.644 325.406 146.644H325.384ZM325.45 156.622C327.124 156.622 328.446 156.358 329.415 155.851C330.384 155.322 330.869 154.662 330.869 153.847C330.869 153.23 330.538 152.723 329.877 152.371C329.217 152.019 328.225 151.798 326.882 151.688L324.062 151.49C323.313 151.534 322.697 151.688 322.168 151.886C321.639 152.107 321.243 152.393 320.957 152.745C320.67 153.098 320.538 153.494 320.538 153.935C320.538 154.463 320.736 154.926 321.133 155.322C321.529 155.719 322.102 156.049 322.829 156.27C323.556 156.49 324.437 156.6 325.45 156.6V156.622ZM325.384 144.331C326.177 144.331 326.86 144.199 327.454 143.935C328.049 143.67 328.512 143.296 328.864 142.811C329.195 142.327 329.371 141.776 329.371 141.115C329.371 140.168 328.996 139.397 328.269 138.803C327.543 138.208 326.573 137.9 325.384 137.9C324.613 137.9 323.908 138.032 323.313 138.318C322.719 138.604 322.256 138.979 321.926 139.441C321.595 139.904 321.419 140.477 321.419 141.115C321.419 142.063 321.794 142.833 322.521 143.428C323.247 144.023 324.217 144.331 325.384 144.331ZM327.829 138.45L326.75 136.336L334.767 136.071V138.538L327.829 138.45Z" fill="white"/>
<path d="M338.988 158.715C338.481 158.715 337.975 158.649 337.49 158.539C336.983 158.407 336.499 158.208 335.992 157.9L336.675 155.389C337.005 155.609 337.358 155.764 337.732 155.874C338.107 155.984 338.459 156.028 338.745 156.028C339.516 156.028 340.133 155.83 340.574 155.455C341.014 155.081 341.345 154.486 341.609 153.715L342.226 151.931L336.08 136.072H339.274L343.878 148.605L348.371 136.072H351.455L344.649 154.09C344.186 155.323 343.657 156.27 343.107 156.931C342.556 157.592 341.917 158.076 341.234 158.341C340.552 158.605 339.803 158.737 338.988 158.737V158.715Z" fill="white"/>
<path d="M355.815 133.12C355.265 133.12 354.78 132.944 354.384 132.569C353.987 132.195 353.789 131.732 353.789 131.16C353.789 130.587 353.987 130.124 354.384 129.75C354.78 129.376 355.265 129.199 355.815 129.199C356.366 129.199 356.851 129.376 357.247 129.75C357.644 130.124 357.842 130.587 357.842 131.16C357.842 131.732 357.644 132.195 357.247 132.569C356.851 132.944 356.366 133.12 355.815 133.12ZM354.34 151.6V136.05H357.269V151.6H354.34Z" fill="white"/>
<path d="M370.703 151.601V129.398H384.117V132.152H373.677V139.134H383.17V141.821H373.677V151.623H370.703V151.601Z" fill="white"/>
<path d="M393.418 152.086C391.81 152.086 390.379 151.711 389.123 150.962C387.868 150.213 386.876 149.222 386.15 147.967C385.423 146.711 385.07 145.346 385.07 143.848C385.07 142.746 385.269 141.689 385.687 140.698C386.106 139.707 386.678 138.826 387.427 138.055C388.176 137.284 389.057 136.689 390.07 136.249C391.084 135.808 392.207 135.588 393.396 135.588C395.004 135.588 396.458 135.962 397.713 136.711C398.969 137.46 399.96 138.451 400.687 139.707C401.414 140.962 401.766 142.328 401.766 143.826C401.766 144.927 401.568 145.984 401.15 146.976C400.731 147.967 400.158 148.848 399.41 149.597C398.661 150.368 397.78 150.962 396.766 151.403C395.753 151.843 394.63 152.064 393.418 152.064V152.086ZM393.418 149.443C394.454 149.443 395.401 149.222 396.194 148.76C397.009 148.297 397.647 147.658 398.11 146.799C398.573 145.962 398.815 144.971 398.815 143.826C398.815 142.68 398.595 141.667 398.132 140.83C397.669 139.993 397.031 139.332 396.216 138.892C395.401 138.429 394.476 138.209 393.418 138.209C392.361 138.209 391.436 138.429 390.643 138.892C389.828 139.354 389.189 139.993 388.749 140.83C388.286 141.667 388.066 142.658 388.066 143.826C388.066 144.993 388.286 145.962 388.749 146.799C389.211 147.636 389.85 148.297 390.665 148.76C391.48 149.222 392.405 149.443 393.44 149.443H393.418Z" fill="white"/>
<path d="M404.805 151.601V136.05H407.734V138.297C408.351 137.284 409.1 136.579 409.959 136.161C410.818 135.764 411.743 135.544 412.712 135.544C413.021 135.544 413.307 135.544 413.593 135.588C413.88 135.632 414.166 135.654 414.43 135.72L414.012 138.76C413.725 138.672 413.417 138.605 413.109 138.561C412.8 138.517 412.492 138.495 412.206 138.495C410.906 138.495 409.827 138.892 408.99 139.707C408.153 140.522 407.734 141.601 407.734 142.945V151.579H404.805V151.601Z" fill="white"/>
<path d="M422.968 152.086C421.426 152.086 420.082 151.711 418.893 150.984C417.703 150.257 416.8 149.266 416.14 148.033C415.479 146.799 415.148 145.389 415.148 143.848C415.148 142.702 415.347 141.645 415.721 140.654C416.096 139.663 416.646 138.782 417.329 138.033C418.012 137.284 418.849 136.689 419.818 136.249C420.787 135.83 421.844 135.61 423.012 135.61C424.51 135.61 425.787 135.918 426.844 136.513C427.902 137.108 428.783 137.923 429.466 138.936L428.871 139.597V128.804H431.8V151.645H429.113V147.989L429.532 148.649C428.937 149.641 428.1 150.478 427.043 151.116C425.985 151.777 424.62 152.108 422.968 152.108V152.086ZM423.496 149.442C424.532 149.442 425.479 149.222 426.272 148.76C427.087 148.297 427.726 147.658 428.188 146.799C428.651 145.962 428.893 144.971 428.893 143.826C428.893 142.68 428.673 141.667 428.21 140.83C427.748 139.993 427.109 139.332 426.294 138.892C425.479 138.429 424.554 138.209 423.496 138.209C422.439 138.209 421.514 138.429 420.721 138.892C419.906 139.354 419.267 139.993 418.827 140.83C418.364 141.667 418.144 142.658 418.144 143.826C418.144 144.993 418.364 145.962 418.827 146.799C419.289 147.636 419.928 148.297 420.743 148.76C421.558 149.222 422.483 149.442 423.518 149.442H423.496Z" fill="white"/>
<path d="M436.131 133.054L438.731 127.591H441.726L438.797 133.054H436.109H436.131ZM436.197 151.6V136.05H439.127V151.6H436.197Z" fill="white"/>
<path d="M442.203 138.539V136.072H446.19V138.539H442.203ZM450.573 152.085C449.119 152.085 447.952 151.666 447.071 150.807C446.19 149.97 445.749 148.649 445.749 146.887V131.49H448.657V136.05H453.216V138.517H448.657V146.138C448.657 147.327 448.877 148.164 449.296 148.627C449.714 149.111 450.353 149.354 451.168 149.354C451.542 149.354 451.895 149.31 452.225 149.222C452.556 149.133 452.842 149.023 453.106 148.891L453.701 151.292C453.26 151.534 452.776 151.71 452.225 151.843C451.674 151.975 451.124 152.041 450.551 152.041L450.573 152.085Z" fill="white"/>
<path d="M463.817 152.085C462.209 152.085 460.777 151.71 459.522 150.961C458.266 150.213 457.275 149.221 456.548 147.966C455.821 146.71 455.469 145.345 455.469 143.847C455.469 142.746 455.667 141.688 456.085 140.697C456.504 139.706 457.077 138.825 457.826 138.054C458.574 137.283 459.456 136.688 460.469 136.248C461.482 135.807 462.605 135.587 463.795 135.587C465.403 135.587 466.856 135.961 468.112 136.71C469.367 137.459 470.359 138.45 471.085 139.706C471.812 140.961 472.165 142.327 472.165 143.825C472.165 144.926 471.967 145.983 471.548 146.975C471.13 147.966 470.557 148.847 469.808 149.596C469.059 150.367 468.178 150.961 467.165 151.402C466.152 151.843 465.028 152.063 463.817 152.063V152.085ZM463.817 149.442C464.852 149.442 465.799 149.221 466.592 148.759C467.407 148.296 468.046 147.658 468.508 146.798C468.971 145.961 469.213 144.97 469.213 143.825C469.213 142.68 468.993 141.666 468.53 140.829C468.068 139.992 467.429 139.332 466.614 138.891C465.799 138.428 464.874 138.208 463.817 138.208C462.759 138.208 461.834 138.428 461.041 138.891C460.226 139.354 459.588 139.992 459.147 140.829C458.685 141.666 458.464 142.657 458.464 143.825C458.464 144.992 458.685 145.961 459.147 146.798C459.61 147.635 460.248 148.296 461.063 148.759C461.878 149.221 462.804 149.442 463.839 149.442H463.817ZM462.253 133.054L465.204 127.591H468.2L464.962 133.054H462.253Z" fill="white"/>
<path d="M475.203 151.601V128.759H478.133V142.768L484.741 136.05H488.221L482.714 141.887L489.146 151.601H485.622L480.6 143.781L478.133 146.27V151.601H475.203Z" fill="white"/>
<path d="M497.801 152.085C496.193 152.085 494.761 151.71 493.506 150.961C492.25 150.213 491.259 149.221 490.532 147.966C489.806 146.71 489.453 145.345 489.453 143.847C489.453 142.746 489.651 141.688 490.07 140.697C490.488 139.706 491.061 138.825 491.81 138.054C492.559 137.283 493.44 136.688 494.453 136.248C495.466 135.807 496.59 135.587 497.779 135.587C499.387 135.587 500.841 135.961 502.096 136.71C503.352 137.459 504.343 138.45 505.07 139.706C505.797 140.961 506.149 142.327 506.149 143.825C506.149 144.926 505.951 145.984 505.532 146.975C505.114 147.966 504.541 148.847 503.792 149.596C503.043 150.367 502.162 150.961 501.149 151.402C500.136 151.843 499.013 152.063 497.801 152.063V152.085ZM497.801 149.442C498.836 149.442 499.784 149.221 500.576 148.759C501.391 148.296 502.03 147.658 502.493 146.798C502.955 145.961 503.198 144.97 503.198 143.825C503.198 142.68 502.977 141.666 502.515 140.829C502.052 139.992 501.413 139.332 500.598 138.891C499.784 138.428 498.858 138.208 497.801 138.208C496.744 138.208 495.819 138.428 495.026 138.891C494.211 139.354 493.572 139.992 493.132 140.829C492.669 141.666 492.449 142.658 492.449 143.825C492.449 144.992 492.669 145.961 493.132 146.798C493.594 147.636 494.233 148.296 495.048 148.759C495.863 149.221 496.788 149.442 497.823 149.442H497.801ZM494.541 133.142C494.013 133.142 493.572 132.966 493.176 132.591C492.779 132.217 492.581 131.754 492.581 131.204C492.581 130.829 492.669 130.499 492.845 130.213C493.021 129.926 493.264 129.706 493.55 129.53C493.836 129.376 494.167 129.287 494.519 129.287C495.048 129.287 495.51 129.464 495.885 129.816C496.281 130.169 496.458 130.631 496.458 131.204C496.458 131.578 496.369 131.931 496.193 132.217C496.017 132.503 495.775 132.746 495.488 132.9C495.202 133.054 494.872 133.142 494.519 133.142H494.541ZM501.061 133.142C500.554 133.142 500.092 132.966 499.695 132.591C499.299 132.217 499.101 131.754 499.101 131.204C499.101 130.829 499.189 130.499 499.365 130.213C499.541 129.926 499.784 129.706 500.07 129.53C500.356 129.376 500.687 129.287 501.039 129.287C501.568 129.287 502.03 129.464 502.405 129.816C502.801 130.169 502.977 130.631 502.977 131.204C502.977 131.578 502.889 131.931 502.713 132.217C502.537 132.503 502.295 132.746 502.008 132.9C501.722 133.054 501.391 133.142 501.039 133.142H501.061Z" fill="white"/>
<path d="M508.788 151.601V149.42L517.268 138.671H508.92V136.05H520.836V138.231L512.488 148.958H520.968V151.601H508.766H508.788Z" fill="white"/>
<path d="M524.391 158.253V136.05H527.078V138.385C527.717 137.57 528.532 136.887 529.523 136.358C530.514 135.83 531.725 135.565 533.223 135.565C534.721 135.565 536.131 135.918 537.298 136.645C538.465 137.371 539.391 138.363 540.051 139.596C540.712 140.83 541.043 142.239 541.043 143.803C541.043 144.927 540.844 146.006 540.47 146.997C540.095 147.988 539.567 148.869 538.862 149.64C538.157 150.389 537.342 150.984 536.373 151.424C535.426 151.843 534.347 152.063 533.179 152.063C531.858 152.063 530.712 151.821 529.743 151.336C528.774 150.852 527.937 150.191 527.298 149.398V158.253H524.391ZM532.673 149.442C533.708 149.442 534.655 149.222 535.448 148.759C536.263 148.297 536.902 147.658 537.342 146.799C537.805 145.962 538.025 144.971 538.025 143.825C538.025 142.68 537.805 141.667 537.342 140.83C536.88 139.993 536.241 139.332 535.448 138.891C534.633 138.429 533.708 138.208 532.673 138.208C531.637 138.208 530.69 138.429 529.897 138.891C529.082 139.354 528.443 139.993 527.981 140.83C527.518 141.667 527.276 142.658 527.276 143.825C527.276 144.993 527.518 145.962 527.981 146.799C528.443 147.636 529.082 148.297 529.897 148.759C530.712 149.222 531.637 149.442 532.673 149.442Z" fill="white"/>
<path d="M551.801 152.086C550.193 152.086 548.762 151.711 547.506 150.962C546.251 150.213 545.259 149.222 544.532 147.967C543.806 146.711 543.453 145.346 543.453 143.848C543.453 142.746 543.651 141.689 544.07 140.698C544.488 139.707 545.061 138.826 545.81 138.055C546.559 137.284 547.44 136.689 548.453 136.249C549.466 135.808 550.59 135.588 551.779 135.588C553.387 135.588 554.841 135.962 556.096 136.711C557.352 137.46 558.343 138.451 559.07 139.707C559.797 140.962 560.149 142.328 560.149 143.826C560.149 144.927 559.951 145.984 559.532 146.976C559.114 147.967 558.541 148.848 557.792 149.597C557.043 150.368 556.162 150.962 555.149 151.403C554.136 151.843 553.013 152.064 551.801 152.064V152.086ZM551.801 149.443C552.836 149.443 553.784 149.222 554.577 148.76C555.391 148.297 556.03 147.658 556.493 146.799C556.955 145.962 557.198 144.971 557.198 143.826C557.198 142.68 556.977 141.667 556.515 140.83C556.052 139.993 555.414 139.332 554.599 138.892C553.784 138.429 552.858 138.209 551.801 138.209C550.744 138.209 549.819 138.429 549.026 138.892C548.211 139.354 547.572 139.993 547.132 140.83C546.669 141.667 546.449 142.658 546.449 143.826C546.449 144.993 546.669 145.962 547.132 146.799C547.594 147.636 548.233 148.297 549.048 148.76C549.863 149.222 550.788 149.443 551.823 149.443H551.801Z" fill="white"/>
<path d="M562.555 151.601V136.05H565.484V138.143C566.145 137.24 566.938 136.579 567.819 136.183C568.7 135.786 569.625 135.588 570.55 135.588C571.96 135.588 573.127 135.874 574.052 136.447C574.978 137.02 575.66 137.724 576.123 138.606C576.586 139.487 576.806 140.39 576.806 141.293V151.601H573.876V142.196C573.876 141.028 573.502 140.081 572.775 139.354C572.048 138.65 571.057 138.275 569.801 138.275C568.986 138.275 568.238 138.451 567.599 138.826C566.938 139.2 566.431 139.707 566.057 140.368C565.682 141.028 565.484 141.799 565.484 142.658V151.579H562.555V151.601Z" fill="white"/>
<path d="M578.766 138.539V136.072H582.752V138.539H578.766ZM587.158 152.085C585.704 152.085 584.537 151.666 583.655 150.807C582.774 149.97 582.334 148.649 582.334 146.887V131.49H585.241V136.05H589.801V138.517H585.241V146.138C585.241 147.327 585.462 148.164 585.88 148.627C586.299 149.111 586.937 149.354 587.752 149.354C588.127 149.354 588.479 149.31 588.81 149.222C589.14 149.133 589.426 149.023 589.691 148.891L590.285 151.292C589.845 151.534 589.36 151.71 588.81 151.843C588.259 151.975 587.708 152.041 587.136 152.041L587.158 152.085Z" fill="white"/>
<path d="M601.086 151.6V149.089L612.958 132.129H601.46V129.376H616.549V131.865L604.742 148.825H616.659V151.578H601.108L601.086 151.6Z" fill="white"/>
<path d="M620.516 151.601V136.05H623.445V138.297C624.062 137.284 624.811 136.579 625.67 136.161C626.529 135.764 627.454 135.544 628.423 135.544C628.731 135.544 629.018 135.544 629.304 135.588C629.59 135.632 629.877 135.654 630.141 135.72L629.723 138.76C629.436 138.672 629.128 138.605 628.82 138.561C628.511 138.517 628.203 138.495 627.917 138.495C626.617 138.495 625.538 138.892 624.701 139.707C623.864 140.522 623.445 141.601 623.445 142.945V151.579H620.516V151.601Z" fill="white"/>
<path d="M631.953 138.539V136.072H635.94V138.539H631.953ZM640.323 152.085C638.869 152.085 637.702 151.666 636.821 150.807C635.94 149.97 635.499 148.649 635.499 146.887V131.49H638.407V136.05H642.966V138.517H638.407V146.138C638.407 147.327 638.627 148.164 639.046 148.627C639.464 149.111 640.103 149.354 640.918 149.354C641.292 149.354 641.645 149.31 641.975 149.222C642.306 149.133 642.592 149.023 642.856 148.891L643.451 151.292C643.01 151.534 642.526 151.71 641.975 151.843C641.424 151.975 640.874 152.041 640.301 152.041L640.323 152.085Z" fill="white"/>
<path d="M648.965 152.085C648.349 152.085 647.82 151.886 647.38 151.49C646.939 151.094 646.719 150.587 646.719 149.948C646.719 149.53 646.807 149.155 647.005 148.847C647.203 148.538 647.468 148.274 647.82 148.098C648.172 147.922 648.547 147.834 648.943 147.834C649.56 147.834 650.089 148.032 650.529 148.428C650.97 148.825 651.19 149.331 651.19 149.97C651.19 150.389 651.08 150.763 650.882 151.072C650.684 151.38 650.419 151.644 650.067 151.82C649.736 151.997 649.362 152.085 648.943 152.085H648.965Z" fill="white"/>
<path d="M175.374 104.751H170.463C170.11 104.751 169.802 104.531 169.67 104.201L162.137 83.7381C162.137 83.7381 162.137 83.6941 162.137 83.6721C162.137 83.606 162.137 83.5619 162.115 83.4959C162.115 83.4738 162.115 83.4518 162.093 83.4518C162.093 83.4077 162.048 83.3637 162.026 83.3196C162.004 83.2756 161.96 83.2315 161.938 83.1875C161.916 83.1434 161.85 83.1214 161.806 83.0994C161.762 83.0773 161.718 83.0333 161.674 83.0113C161.63 83.0113 161.608 83.0113 161.564 82.9672C161.498 82.9672 161.432 82.9232 161.344 82.9232C161.322 82.9232 161.3 82.9232 161.256 82.9232C161.211 82.9232 161.145 82.9232 161.079 82.9452L146.542 87.6588C146.233 87.769 145.925 87.6588 145.749 87.3945C145.617 87.2183 145.485 87.0641 145.352 86.9099C144.714 86.2492 143.877 85.8747 142.996 85.7425C143.106 83.7602 143.965 81.8218 144.295 79.8835C144.449 79.0245 144.515 78.1654 144.471 77.2844C144.427 75.5443 143.392 73.8262 143.15 72.0862C143.018 71.117 142.93 70.1478 142.952 69.1787C142.952 69.1787 142.952 69.1787 142.952 69.1566L147.335 62.6148V56.4914C147.335 55.5884 146.586 54.8395 145.661 54.8395H143.546V31.5795C143.546 23.0773 136.63 16.161 128.128 16.161H91.4537C91.3436 13.2095 90.1542 10.302 87.6212 8.65002C82.2908 5.16985 83.348 -0.953502 71.7181 0.125793C60.0881 -0.953502 61.1454 5.16985 55.815 8.65002C53.2819 10.302 52.0925 13.2095 51.9824 16.161H15.4185C6.9163 16.161 0 23.0773 0 31.5795V150.258C0 177.835 15.837 187.328 34.5374 194.751C37.3568 195.875 40.2643 196.954 43.1718 198.033C51.63 201.161 60.3965 204.421 68.0617 209.135C68.304 209.267 68.5463 209.443 68.7886 209.575L71.7621 211.447L74.3612 209.817L74.7137 209.597C82.5551 204.641 91.5859 201.293 100.33 198.055C100.419 198.033 100.507 197.989 100.573 197.967C102.489 197.262 104.383 196.558 106.256 195.831C107.137 195.5 107.996 195.17 108.855 194.817C127.621 187.395 143.502 177.923 143.502 150.28V93.9364C144.163 93.7381 144.78 93.3857 145.286 92.8791C146.123 92.0421 146.498 90.9848 146.498 89.9055C146.498 89.5972 146.696 89.3549 146.982 89.2668L159.119 85.324C159.449 85.2139 159.758 85.5223 159.648 85.8527L152.885 104.179C152.775 104.509 152.445 104.729 152.093 104.729H147.181C146.74 104.729 146.344 105.082 146.344 105.544C146.344 108.408 147.137 111.183 148.678 113.54C151.41 117.879 156.123 120.456 161.256 120.456C169.493 120.456 176.167 113.76 176.167 105.522C176.167 105.082 175.793 104.707 175.33 104.707L175.374 104.751ZM90.3965 21.6016C90.793 20.7425 91.0793 19.8174 91.2555 18.8483H128.128C135.176 18.8483 140.903 24.5751 140.903 31.6236V54.8835H138.568C138.018 54.8835 137.489 55.1478 137.181 55.6324L135.419 58.2536C135.242 58.5179 135.154 58.8483 135.154 59.1787V67.0862L114.097 84.1787L105.11 58.9804C104.229 56.4914 100.22 51.8659 92.2027 51.8659H81.8723C80.0441 51.8659 78.3701 50.3681 78.3701 48.5399V40.6985C80.2864 39.0245 81.8502 36.8218 82.5771 34.3989L84.163 29.0245C86.5419 26.4694 87.9295 25.6544 89.2071 23.8483C89.5154 23.4077 89.8238 22.9011 90.1322 22.3064C90.2423 22.1082 90.3304 21.9099 90.4405 21.6897L90.3965 21.6016ZM71.7181 79.5751C54.3612 70.5443 46.8282 53.8262 46.5859 53.2976C46.9163 53.6721 57.3348 65.9188 71.7181 71.954C78.5683 74.8395 86.2996 76.3152 94.2511 74.421L90.6828 85.0157C83.37 84.3989 77.0705 82.3505 71.7181 79.5751ZM85.837 103.584L96.9163 124.047C85.6828 122.703 77.5331 120.148 71.696 117.284C59.4053 111.293 57.1806 103.936 57.0925 103.584C57.4009 103.782 63.8987 107.593 71.696 107.945C76.2775 108.165 81.3216 107.196 85.837 103.562V103.584ZM89.8018 16.4033C89.6916 18.8703 88.8326 21.4254 88.5463 22.2183C88.4802 22.3945 88.4581 22.4826 88.4581 22.4826C88.4581 22.3945 88.4581 22.3064 88.4581 22.2183C88.4141 18.6941 87.4449 16.8879 86.1454 15.6985C83.8106 13.5839 80.3524 13.4518 79.0529 9.02447C79.0529 9.02447 81.1894 10.8967 85.4405 10.8967C89.119 10.8967 89.9339 13.5839 89.8238 16.3813L89.8018 16.4033ZM71.7181 1.7117C73.0176 1.60157 78.5242 1.2932 80.0881 3.47381C84.119 9.13461 86.3877 9.48703 86.3877 9.48703C77.5991 9.48703 77.7533 1.95399 71.7181 1.73373C71.63 1.73373 71.5419 1.73373 71.4538 1.73373C71.4538 1.73373 71.5639 1.73373 71.7181 1.73373V1.7117ZM2.64317 150.324V31.6456C2.64317 24.5972 8.37004 18.8703 15.4185 18.8703H52.1586C52.3348 19.8395 52.6211 20.7646 53.0176 21.6236C53.1057 21.8439 53.2159 22.0421 53.326 22.2403C53.6344 22.8571 53.9427 23.3417 54.2511 23.7822C55.5286 25.5883 56.9163 26.4254 59.2952 28.9584L60.8811 34.3328C61.6079 36.7557 63.1718 38.9584 65.0661 40.6324V48.4738C65.0661 50.324 63.4141 51.7998 61.5859 51.7998H47.3348C40.9912 51.7998 36.3216 55.6324 35.9471 60.6324L34.5815 95.3461L21.4537 148.54V159.223C21.4537 160.544 22.9295 161.337 24.0529 160.588L29.8899 156.646C30.9251 155.963 31.4758 154.751 31.3436 153.518L29.6476 138.87L44.5595 103.408C44.956 102.461 45.1762 101.469 45.2203 100.434L46.1013 71.0069L55.9471 101.976C56.0793 102.681 46.4538 119.663 44.4714 122.989C44.2291 123.386 44.0749 123.804 44.0308 124.267L34.956 192.064C17.3789 185.016 2.68722 175.831 2.68722 150.302L2.64317 150.324ZM71.7621 208.364L70.2203 207.395C69.0749 206.668 67.8855 205.963 66.696 205.302C52.9295 166.359 45.3304 131.293 44.8899 129.223C45.5507 131.337 57.0264 167.967 71.7181 203.54C72.2467 204.817 72.7974 206.117 73.326 207.395L71.7621 208.364ZM99.4494 195.588C99.119 195.721 98.8106 195.831 98.4802 195.941C88.1057 185.897 79.141 175.302 71.7181 165.478C55.4185 143.848 46.4758 125.809 45.9912 124.817C46.5859 125.743 57.3128 142.35 71.7181 157.02C81.1894 166.646 92.8634 175.566 103.612 178.496L105.859 193.143C103.745 193.958 101.586 194.773 99.4273 195.566L99.4494 195.588ZM140.881 150.324C140.881 175.919 126.123 185.082 108.524 192.13L99.4273 124.289C99.3833 123.848 99.2291 123.408 98.9868 123.011C97.0044 119.685 87.3789 102.725 87.511 101.998L97.3568 71.0289L108.745 98.0113C109.67 100.236 112.577 100.787 114.229 99.0465L140.154 73.3417L141.608 71.1831C141.564 71.5135 141.542 71.8218 141.498 72.1522C141.256 73.8703 140.22 75.6104 140.176 77.3505C140 80.258 141.41 82.9892 141.652 85.8086C140.793 85.9408 140 86.3373 139.361 86.976C138.546 87.791 138.128 88.8703 138.15 89.9496C138.15 90.2359 137.952 90.5003 137.665 90.5884L123.128 95.302C123.128 95.302 123.128 95.302 123.084 95.302C123.04 95.302 122.996 95.3461 122.952 95.3901C122.908 95.4121 122.841 95.4342 122.819 95.4782C122.797 95.5003 122.775 95.5223 122.753 95.5443C122.709 95.6104 122.665 95.6544 122.621 95.7205C122.577 95.8086 122.555 95.9188 122.533 96.0069L114.956 116.513C114.824 116.844 114.515 117.064 114.163 117.064H109.251C108.811 117.064 108.414 117.417 108.414 117.857C108.414 120.721 109.207 123.496 110.749 125.853C113.502 130.192 118.194 132.791 123.326 132.791C131.564 132.791 138.26 126.095 138.238 117.857C138.238 117.417 137.841 117.064 137.401 117.064H132.489C132.137 117.064 131.828 116.844 131.696 116.513L124.515 97.0201C124.427 96.7998 124.559 96.5575 124.78 96.4914L138.128 92.1522C138.414 92.0421 138.745 92.1522 138.921 92.4166C139.031 92.5928 139.163 92.7469 139.317 92.9011C139.758 93.3417 140.286 93.65 140.837 93.8703V150.324H140.881ZM130.463 119.817C130.507 119.377 130.859 119.024 131.3 119.024H134.031C134.515 119.024 134.89 119.465 134.868 119.95C134.405 125.941 129.405 130.676 123.282 130.676C122.533 130.676 121.784 130.61 121.079 130.478C126.211 129.509 130.132 125.17 130.485 119.839L130.463 119.817ZM119.802 116.668C119.648 116.932 119.361 117.064 119.075 117.064H117.753C117.181 117.064 116.762 116.491 116.96 115.941L122.775 100.148C122.819 102.505 122.643 104.861 122.401 107.196C122.048 110.566 121.542 113.694 119.78 116.646L119.802 116.668ZM128.987 117.086H127.665C127.379 117.086 127.093 116.932 126.938 116.69C126.167 115.368 125.661 114.047 125.264 112.747C124.317 109.113 124.119 105.434 123.965 101.734C123.965 101.227 123.965 100.721 123.965 100.214L129.78 115.985C130 116.513 129.582 117.108 129.009 117.108L128.987 117.086ZM161.894 87.8571L167.709 103.628C167.908 104.157 167.489 104.751 166.916 104.751H165.595C165.308 104.751 165.022 104.597 164.868 104.355C164.075 103.033 163.59 101.712 163.194 100.412C162.247 96.7778 162.048 93.0994 161.894 89.3989C161.894 88.8923 161.894 88.3857 161.894 87.8571ZM157.004 104.751H155.683C155.11 104.751 154.714 104.179 154.89 103.628L160.705 87.8351C160.749 90.1699 160.573 92.5267 160.33 94.8835C159.978 98.2756 159.471 101.381 157.709 104.333C157.555 104.597 157.269 104.729 156.982 104.729L157.004 104.751ZM161.454 118.254C160.705 118.254 159.978 118.165 159.251 118.033C164.361 117.064 168.282 112.725 168.656 107.417C168.7 106.976 169.031 106.624 169.493 106.624H172.225C172.709 106.624 173.084 107.042 173.062 107.549C172.599 113.54 167.599 118.276 161.476 118.276L161.454 118.254Z" fill="white"/>
</svg>
