<?xml version="1.0" encoding="UTF-8"?>
<svg id="Layer_1" data-name="Layer 1" xmlns="http://www.w3.org/2000/svg" xmlns:xlink="http://www.w3.org/1999/xlink" viewBox="0 0 680 450">
  <defs>
    <style>
      .cls-1, .cls-2 {
        fill: none;
      }

      .cls-3 {
        fill: #bde8c8;
      }

      .cls-4 {
        fill: #254546;
      }

      .cls-5 {
        fill: #527071;
      }

      .cls-2 {
        stroke: #527071;
        stroke-miterlimit: 10;
        stroke-width: 4px;
      }

      .cls-6 {
        fill: #add3b5;
      }

      .cls-7 {
        fill: #6e8788;
      }

      .cls-8 {
        clip-path: url(#clippath);
      }
    </style>
    <clipPath id="clippath">
      <rect class="cls-1" width="680" height="450"/>
    </clipPath>
  </defs>
  <g class="cls-8">
    <g>
      <g>
        <rect class="cls-7" x="-55.84" y="-42.2" width="770.59" height="505.63"/>
        <rect class="cls-4" x="-54.42" y="187.81" width="420" height="420" rx="24.25" ry="24.25"/>
        <rect class="cls-6" x="190" y="-271.73" width="300" height="420" rx="20.49" ry="20.49"/>
        <rect class="cls-5" x="335.41" y="-61.73" width="300" height="420" rx="20.49" ry="20.49"/>
        <path class="cls-3" d="M552.7,164.62c0,20.24-7.75,38.82-23.26,55.73,11.35,14.98,17.03,30.78,17.03,47.42,0,20.51-6.72,37.71-20.14,51.57-13.44,13.87-30.12,20.8-50.06,20.8-16.34,0-29.77-4.5-40.29-13.5-10.53-9-15.79-20.29-15.79-33.86,0-9.14,2.49-16.41,7.48-21.81,4.99-5.4,11.64-8.1,19.94-8.1,6.09,0,11.43,2.08,16,6.23s6.85,9,6.85,14.54c0,10.8-9.56,16.76-28.66,17.87-6.1.27-9.14,1.66-9.14,4.15,0,6.92,4.5,13.22,13.5,18.9,9,5.67,19.04,8.51,30.12,8.51,26.86,0,40.3-15.37,40.3-46.11,0-13.84-2.91-25.47-8.72-34.89-5.82-9.41-16.62-19.94-32.4-31.57-23.82-17.72-38.78-30.47-44.87-38.22-8.31-10.53-12.46-23.4-12.46-38.64,0-18.55,8.03-37.53,24.1-56.91-9.42-12.46-14.13-25.61-14.13-39.46,0-18.83,6.02-33.99,18.07-45.49,12.05-11.49,27.9-17.24,47.57-17.24,16.06,0,29.14,4.23,39.26,12.67,10.11,8.45,15.16,19.46,15.16,33.02,0,16.9-7.62,25.34-22.85,25.34-14.4,0-21.6-6.23-21.6-18.7,0-6.37,1.8-10.8,5.4-13.29,3.59-2.5,10.65-4.01,21.19-4.57,2.49,0,3.74-1.13,3.74-3.38,0-6.19-4.02-11.74-12.05-16.66-8.03-4.92-17.03-7.38-27-7.38-11.63,0-20.92,3.47-27.83,10.4-6.92,6.94-10.38,16.22-10.38,27.87s3.18,21.01,9.56,29.74c6.37,8.74,18.14,19.34,35.31,31.81,19.38,14.14,32.26,26.35,38.63,36.6,8.31,13.03,12.46,25.24,12.46,36.6ZM537.33,187.27c0-15.79-13.71-34.07-41.13-54.84-5.26-4.15-13.16-10.24-23.68-18.28-.83-.55-3.05-2.35-6.65-5.4l-18.28-16.2-1.66,2.07c-6.64,8.31-9.97,17.73-9.97,28.25,0,12.19,7.06,24.65,21.19,37.38,6.37,5.81,21.32,18.01,44.86,36.56,3.32,2.5,10.53,8.59,21.6,18.28,9.14-10.52,13.71-19.79,13.71-27.83Z"/>
        <path class="cls-5" d="M269.83,337.95h-14.48l-25.19-67.74c.6-.39,1.17-.84,1.69-1.36,1.95-1.95,3.03-4.55,3.03-7.32s-1.08-5.36-3.03-7.32-4.55-3.03-7.32-3.03-5.36,1.08-7.32,3.03c-1.88,1.88-2.92,4.35-3,6.99l-50.8,8.74c-.69-2.18-1.89-4.18-3.56-5.84-2.49-2.49-5.66-3.88-8.92-4.17,0-5.59.07-11.18.26-16.77,2.1-.32,4.11-1.26,5.73-2.87,4.03-4.03,4.03-10.6,0-14.63-1.95-1.95-4.55-3.03-7.32-3.03s-5.36,1.08-7.32,3.03c-4.03,4.03-4.03,10.6,0,14.63,1.6,1.6,3.59,2.53,5.67,2.87.19,5.59.32,11.19.33,16.78-3.26.3-6.43,1.68-8.92,4.17-2.74,2.74-4.24,6.37-4.24,10.24,0,.15.02.31.02.46l-51.16,8.81c-.51-1.32-1.28-2.53-2.31-3.56-1.95-1.95-4.55-3.03-7.32-3.03s-5.36,1.08-7.32,3.03-3.03,4.55-3.03,7.32,1.08,5.36,3.03,7.32c.56.56,1.19,1.03,1.84,1.44l-24.97,67.66h-14.52c-3.72,0-6.67,3.27-6.17,6.96,1.02,7.56,3.67,14.61,7.61,20.74,9.16,14.5,25.32,24.07,43.69,24.07,26.25,0,47.89-19.5,51.3-44.77.5-3.71-2.43-7-6.17-7h-14.48l-25.19-67.74c.6-.39,1.17-.84,1.69-1.36,1.88-1.88,2.92-4.35,3-6.99l51.18-8.81c.7,2.13,1.88,4.08,3.51,5.71,2.31,2.31,5.23,3.66,8.24,4.08-.02.46-.03.93-.05,1.39-.53,9.52-1.22,19.04-1.88,28.55-1.71,18.99-4.2,38-2.77,57.11,2.2,28.06,5.69,56.16,4.66,84.37-7.81.01-15.53.18-23.28,2.67-5.63,1.82-11.25,4.29-16.88,5.93-8.18,2.23-22.65,3.49-29.68,4-2.31.17-4.07,2.09-4.07,4.41h0c11.39-.26,59.66,0,75.96,0s64.57-.25,75.96.01h0c0-2.31-1.77-4.24-4.07-4.41-7.04-.51-21.5-1.77-29.68-4-5.63-1.64-11.25-4.11-16.88-5.93-7.74-2.49-15.47-2.66-23.27-2.67-.44-18.63.33-37.24,2.13-55.81,1.99-18.99,3.87-38.02,2.42-57.11-.67-9.52-1.99-19.03-2.65-28.55-.77-9.97-1.43-19.96-1.9-29.95,3-.42,5.9-1.77,8.21-4.08,2.74-2.74,4.24-6.37,4.24-10.24,0-.11-.01-.21-.02-.32l50.82-8.75c.51,1.32,1.28,2.53,2.31,3.56.56.56,1.19,1.03,1.84,1.44l-24.97,67.66h-14.52c-3.72,0-6.67,3.27-6.17,6.96,1.02,7.56,3.67,14.61,7.61,20.74,9.16,14.5,25.32,24.07,43.69,24.07,26.25,0,47.89-19.5,51.3-44.77.5-3.71-2.43-6.99-6.17-6.99ZM72.62,298.02c-.11,3.17-.32,6.34-.59,9.5-.37,3.38-.55,6.74-1.3,10.08-1.92,6.54-5.07,13.17-3.58,20.16.49,3.36,1.72,6.72,2.61,10.08,1.3,5.28,1.97,10.6,2.41,15.96h-23.83l24.28-65.79ZM76.92,363.8c.18-1.96.39-3.92.63-5.87.57-10.2,6.75-19.93,4.04-30.24-.86-3.36-2.42-6.72-3.21-10.08-.75-3.34-.93-6.7-1.3-10.08-.26-2.99-.46-5.97-.57-8.96l24.27,65.24h-23.85ZM231.58,309.24c-.86-3.36-2.42-6.72-3.21-10.08-.75-3.34-.93-6.7-1.3-10.08-.49-5.63-.77-11.26-.59-16.9l24.46,65.78h-23.27c1.04-9.65,6.48-18.92,3.9-28.72ZM222.62,272.61c.15,5.49-.12,10.97-.61,16.46-.37,3.38-.55,6.74-1.3,10.08-1.92,6.54-5.07,13.17-3.58,20.16.49,3.36,1.72,6.72,2.61,10.08.7,2.84,1.19,5.69,1.59,8.56h-22.83l24.12-65.34Z"/>
      </g>
      <rect class="cls-1" width="680" height="450"/>
      <line class="cls-2" x1="222.66" y1="117.12" x2="335.41" y2="117.12"/>
      <line class="cls-2" x1="222.66" y1="86.06" x2="335.41" y2="86.06"/>
      <line class="cls-2" x1="222.66" y1="54.99" x2="335.41" y2="54.99"/>
      <line class="cls-2" x1="222.66" y1="23.93" x2="335.41" y2="23.93"/>
    </g>
  </g>
</svg>