<?xml version="1.0" encoding="UTF-8"?>
<svg id="Layer_1" data-name="Layer 1" xmlns="http://www.w3.org/2000/svg" xmlns:xlink="http://www.w3.org/1999/xlink" viewBox="0 0 680 450">
  <defs>
    <style>
      .cls-1, .cls-2 {
        fill: none;
      }

      .cls-3 {
        fill: #254546;
      }

      .cls-4 {
        fill: #527071;
      }

      .cls-2 {
        stroke: #add3b5;
        stroke-miterlimit: 10;
        stroke-width: 2px;
      }

      .cls-5 {
        fill: #6e8788;
      }

      .cls-6 {
        clip-path: url(#clippath);
      }
    </style>
    <clipPath id="clippath">
      <rect class="cls-1" width="680" height="450"/>
    </clipPath>
  </defs>
  <g class="cls-6">
    <g>
      <rect class="cls-5" x="-45.3" y="-31.3" width="770.59" height="505.63"/>
      <rect class="cls-4" x="141.32" y="109.81" width="397.35" height="364.52"/>
      <rect class="cls-2" x="105.37" y="78.62" width="469.26" height="395.71"/>
      <rect class="cls-2" x="64.73" y="40.05" width="550.53" height="434.28"/>
      <path class="cls-2" d="M659.97-129.67V472.92c0,.47,0,.94-.01,1.41H20.03c0-.47,0-.94,0-1.41V-129.67h639.95Z"/>
      <path class="cls-3" d="M645.59,331.69h-14.5c-1.01,0-1.94-.64-2.28-1.62l-13.55-36.71-8.71-23.59c0-.07-.05-.12-.05-.19-.03-.18,0-.35-.05-.49-.03-.08-.07-.1-.1-.18-.05-.12-.15-.24-.22-.36-.07-.15-.15-.27-.27-.39-.1-.13-.22-.2-.37-.3-.12-.07-.24-.17-.39-.24-.09-.05-.22-.05-.32-.1-.19-.05-.39-.1-.61-.1-.02,0-.05-.02-.07-.02-.1,0-.17.05-.25.05-.17.02-.34,0-.49.04l-28.73,9.34-14.13,4.6c-.86.27-1.81-.02-2.32-.78-.37-.49-.77-.98-1.21-1.42-1.91-1.91-4.33-3.07-6.95-3.46.29-5.83,2.84-11.58,3.8-17.29.46-2.55.63-5.09.56-7.64-.12-5.09-3.16-10.19-3.87-15.28-.37-2.89-.61-5.78-.59-8.67l12.91-19.28v-18.03c0-2.71-2.18-4.9-4.9-4.9l-14.72-.02h-6.17c-1.64,0-3.16.81-4.07,2.18l-5.17,7.69c-.53.81-.83,1.76-.83,2.74v23.3l-62.11,50.38-26.53-74.29c-2.55-7.35-14.4-20.96-38.01-20.96h-30.44c-5.42,0-10.31-4.39-10.31-9.8v-23.15c5.65-4.94,10.26-11.41,12.39-18.59l4.23-14.35.45-1.52c7-7.49,11.09-9.92,14.84-15.26,1.2-1.73,2.38-3.77,3.6-6.41,1.15-2.47,1.99-5.18,2.51-8,2.02-11.01-.98-23.67-10.72-30.06-3.84-2.52-6.55-5.49-8.97-8.51-7.46-9.33-12.03-19.03-37.9-16.62-25.89-2.41-30.47,7.29-37.93,16.62-2.41,3.02-5.12,5.99-8.95,8.51-9.75,6.39-12.76,19.04-10.75,30.06.52,2.82,1.37,5.53,2.52,8,1.22,2.64,2.4,4.68,3.6,6.41,3.75,5.34,7.84,7.77,14.84,15.26l.45,1.52,4.23,14.35c2.13,7.18,6.73,13.65,12.37,18.59v23.15c0,5.41-4.88,9.8-10.29,9.8l-42.03-.03c-18.64,0-32.5,11.37-33.55,26.04l-4.02,102.28-36.09,146.01-2.66,10.74v13.59h28.99l-2.81-24.33-2.05-17.72,43.96-104.51c1.18-2.77,1.81-5.73,1.91-8.74l2.62-86.76,29.05,91.31c.39,2.11-27.97,52.12-33.82,61.92-.69,1.15-1.13,2.42-1.33,3.75l-8.14,60.75-3.26,24.33h31.21c-2.32-8.78-4.41-16.93-6.27-24.33-6.73-26.82-10.42-43.92-10.91-46.23.74,2.34,6.19,19.73,15.08,46.23,2.5,7.43,5.26,15.59,8.27,24.33h29.74c-5.8-8.56-11.12-16.71-15.94-24.33-21.38-33.82-32.97-57.23-33.9-59.14,1.28,2,18.3,28.32,43.76,59.14,6.55,7.93,13.65,16.15,21.19,24.33h104.01l-3.26-24.33-8.14-60.75c-.17-1.33-.61-2.6-1.29-3.75-5.88-9.8-34.25-59.81-33.85-61.92l29.04-91.31,33.56,79.53c2.69,6.59,11.27,8.21,16.16,3.06l73.35-72.71,3.1-3.07,4.26-6.37c-.08.96-.2,1.89-.32,2.85-.69,5.09-3.75,10.19-3.87,15.28-.54,8.55,3.67,16.58,4.38,24.96-2.57.41-4.92,1.56-6.78,3.43-.27.27-.53.55-.77.84-1.91,2.29-2.83,5.13-2.81,7.95,0,.86-.61,1.62-1.44,1.88l-42.86,13.94s-.08.03-.1.05c-.15.05-.27.15-.42.22-.15.1-.29.17-.42.29-.07.08-.12.15-.17.23-.12.17-.27.29-.34.48-.15.27-.25.57-.27.86l-22.31,60.42c-.35.98-1.28,1.62-2.3,1.62h-14.48c-1.32,0-2.45,1.05-2.45,2.38,0,8.42,2.35,16.58,6.86,23.58,8.08,12.79,21.94,20.43,37.11,20.43,24.24,0,43.96-19.74,43.93-44.01,0-1.33-1.12-2.38-2.45-2.38h-14.49c-1.01,0-1.94-.64-2.28-1.62l-21.21-57.43c-.25-.66.1-1.37.76-1.59l39.38-12.81c.86-.27,1.81.05,2.33.78.14.18.28.37.43.55.24.3.5.6.77.87,2.42,2.43,5.58,3.63,8.77,3.63s6.34-1.2,8.76-3.63c2.43-2.42,3.6-5.58,3.58-8.77,0-.88.61-1.64,1.45-1.91l12.63-4.1,23.15-7.51c.98-.31,1.88.62,1.52,1.6l-19.94,54c-.34.98-1.27,1.62-2.28,1.62h-14.5c-1.32,0-2.45,1.05-2.45,2.38,0,8.42,2.38,16.58,6.86,23.58,2.16,3.42,4.73,6.47,7.64,9.1,7.96,7.23,18.38,11.33,29.47,11.33,3.85,0,7.59-.5,11.16-1.44,18.85-4.95,32.8-22.16,32.78-42.57,0-1.33-1.13-2.38-2.45-2.38ZM355.88,36.85c-1.31-1.39-2.61-2.72-3.99-3.91-.95-.82-1.94-1.57-3-2.22-.23-.14-.46-.28-.7-.41-.76-.43-1.56-.81-2.41-1.12-.14-.05-.27-.1-.41-.14-.71-.25-1.45-.46-2.24-.61-.12-.03-.24-.05-.37-.07-.24-.05-.5-.08-.76-.12-.32-.04-.64-.08-.98-.11-.33-.03-.67-.05-1.02-.06v-.1c3.74-.29,20.08-1.25,24.63,5.17,1.92,2.69,3.7,4.97,5.34,6.9.11.13.22.26.33.39.16.19.31.37.47.54.13.15.25.29.38.43.33.38.66.74.98,1.08,5.68,6.16,9.33,7.84,10.61,8.28.06.02.12.03.17.05.23.07.34.09.34.09-.3,0-.59,0-.88-.01-.09,0-.18,0-.26-.01-.37,0-.73-.02-1.09-.04-.12-.01-.24-.01-.36-.02-.28-.01-.55-.03-.82-.06-.29-.02-.57-.05-.85-.08-.46-.04-.91-.1-1.36-.17-.45-.07-.89-.14-1.33-.22-.13-.02-.25-.04-.37-.07-.43-.09-.85-.18-1.26-.28-4.38-1.06-7.76-2.93-10.62-5.14-.41-.31-.8-.63-1.19-.97-.58-.48-1.14-.99-1.69-1.51-.36-.34-.71-.68-1.06-1.03-.25-.24-.49-.49-.73-.73-.17-.18-.33-.35-.5-.52-1.02-1.07-2.01-2.15-3-3.2ZM387.87,77.92c-.57-1.85-1.3-3.42-2.14-4.77-.09-.16-.19-.31-.29-.45-1.29-1.95-2.83-3.44-4.51-4.7-.23-.17-.46-.34-.69-.5-.09-.06-.18-.12-.26-.18-.37-.25-.75-.5-1.13-.74-.76-.47-1.53-.92-2.32-1.36-.21-.12-.42-.23-.63-.35-.24-.13-.49-.26-.74-.41-.25-.13-.5-.27-.75-.41-.08-.04-.16-.08-.24-.13-.39-.22-.79-.43-1.18-.66-.27-.15-.53-.3-.8-.47-.25-.14-.49-.29-.74-.44-.48-.3-.96-.61-1.44-.94-.33-.23-.64-.46-.96-.69-.16-.12-.31-.24-.47-.37-.31-.25-.62-.5-.92-.77-.15-.13-.3-.27-.44-.41-.15-.14-.3-.28-.44-.42-.3-.29-.58-.6-.86-.91-.14-.16-.27-.32-.41-.49-.13-.16-.27-.33-.4-.5-.19-.24-.37-.5-.55-.75-.18-.26-.36-.53-.53-.8-.13-.21-.26-.43-.38-.65-.13-.22-.25-.44-.37-.68-.12-.21-.23-.43-.33-.65-.13-.28-.27-.56-.39-.86-.13-.29-.25-.59-.37-.9-.11-.28-.21-.56-.31-.86-.12-.35-.24-.72-.35-1.09,0,0,6.26,5.51,18.8,5.51.32,0,.64.01.94.02.27.01.54.03.8.05.87.08,1.67.21,2.42.4.14.03.29.07.42.11.09.02.18.05.26.08.17.05.33.1.49.16.19.06.37.13.55.21.18.07.36.15.53.23,1.02.48,1.9,1.08,2.66,1.8.15.14.31.29.45.45.17.18.32.36.47.55.19.22.36.46.51.7.12.16.23.32.32.49.13.21.25.42.36.64.12.22.23.43.32.66.1.22.2.45.29.69.09.22.17.44.24.67.01.02.01.03.01.04.08.24.16.48.22.73.06.19.11.38.15.58.05.2.09.39.13.59.08.39.15.79.2,1.19.06.4.11.8.14,1.21.04.41.07.82.08,1.24.02.41.03.83.03,1.25,0,.36-.01.73-.02,1.1-.01.33-.03.67-.05,1.01-.02.4-.05.81-.09,1.22-.07.74-.15,1.48-.26,2.21-.05.37-.1.73-.16,1.09-.05.33-.11.66-.17.98-.05.32-.12.65-.18.96-.01.07-.02.13-.04.19-.07.37-.15.73-.23,1.09-.02.11-.04.22-.07.32-.11.53-.23,1.04-.36,1.53-.18.75-.38,1.46-.57,2.13-.08.3-.17.59-.25.88-.66,2.25-1.26,3.87-1.47,4.43-.02.07-.05.12-.06.16,0,.03-.02.05-.02.05,0-.88-.02-1.72-.06-2.53-.01-.2-.02-.4-.03-.59-.01-.3-.03-.59-.06-.88,0-.07,0-.13-.01-.2-.03-.32-.05-.63-.09-.94-.21-2.04-.54-3.85-.99-5.45-.07-.24-.14-.47-.21-.7ZM414.33,388.51c-33.16-3.94-57.09-11.46-74.33-19.89-36.23-17.68-42.82-39.36-43.09-40.36.93.56,20.09,11.83,43.09,12.88,13.51.64,28.36-2.25,41.66-12.9l32.67,60.27ZM395.94,273.52c-21.56-1.79-40.15-7.84-55.94-16.04-51.17-26.6-73.43-75.91-74.12-77.45.96,1.13,31.69,37.21,74.12,54.99,20.15,8.45,42.93,12.78,66.42,7.3l-10.48,31.2ZM479.6,368.01h-3.92c-1.71,0-2.89-1.71-2.3-3.31l17.17-46.53c.1,6.93-.39,13.86-1.1,20.79-1.01,9.95-2.52,19.16-7.74,27.85-.44.74-1.25,1.2-2.11,1.2ZM515.63,373.72h8.04c1.44,0,2.57,1.25,2.45,2.69-1.38,17.66-16.12,31.57-34.17,31.57-2.21,0-4.36-.19-6.47-.61,15.11-2.89,26.65-15.65,27.7-31.3.1-1.3,1.13-2.35,2.45-2.35ZM511.13,364.7c.58,1.6-.59,3.31-2.31,3.31h-3.92c-.85,0-1.66-.46-2.1-1.2-2.33-3.87-3.8-7.76-5-11.63-2.79-10.71-3.38-21.53-3.85-32.46-.02-1.49-.02-3.01,0-4.5l17.18,46.48ZM605.79,281.9l9.47,25.64,7.7,20.84c.58,1.59-.59,3.31-2.3,3.31h-3.92c-.17,0-.33-.02-.49-.05-.08-.02-.16-.04-.24-.07-.27-.08-.52-.21-.75-.38l-.18-.15c-.06-.05-.11-.11-.16-.17-.06-.06-.1-.12-.15-.18-.05-.06-.1-.13-.14-.2-2.3-3.87-3.8-7.77-5-11.64-2.79-10.7-3.38-21.52-3.84-32.45v-4.5ZM591.44,331.69h-3.92c-1.72,0-2.89-1.72-2.3-3.31l17.16-46.53c.1,6.93-.39,13.86-1.1,20.79-1,9.95-2.52,19.15-7.74,27.85-.44.73-1.25,1.2-2.1,1.2ZM638.57,341.22c-.06.55-.13,1.09-.23,1.63-.03.24-.08.48-.13.72-.02.12-.04.25-.07.37-.05.3-.12.6-.19.89-.01.07-.03.14-.04.2-.05.2-.1.41-.16.61-.04.2-.09.4-.15.6-.06.22-.12.44-.19.66-.02.1-.05.19-.09.29-.08.3-.18.6-.29.9,0,.03,0,.05-.03.08-.12.39-.26.79-.41,1.17-.19.5-.39.99-.6,1.48-.17.38-.34.77-.52,1.14-.23.48-.47.95-.72,1.41-.07.15-.15.3-.24.44-.02.05-.04.09-.07.13-.16.31-.34.61-.52.9-.05.08-.1.16-.15.24-.23.4-.49.79-.74,1.17-.03.03-.05.06-.07.1-.28.4-.56.81-.85,1.2-.36.49-.74.97-1.13,1.44-.24.31-.5.61-.76.9-.08.09-.16.18-.24.27-.27.3-.55.6-.83.88-.17.18-.35.36-.52.52-.2.21-.4.41-.61.59-1.2,1.14-2.47,2.18-3.82,3.12-.31.22-.62.43-.93.63-.34.22-.68.44-1.02.64-.67.41-1.36.8-2.07,1.16-.35.18-.7.36-1.06.52-.01.01-.03.01-.04.02-.35.17-.7.32-1.05.47-.51.22-1.03.43-1.57.63-.36.13-.72.26-1.09.38-.03.01-.07.03-.11.04-.07.02-.14.05-.22.07-.35.11-.7.22-1.05.32-.37.11-.74.21-1.12.3-.52.13-1.04.25-1.57.35-.47.1-.95.18-1.43.25-.19.04-.39.06-.59.09-.19.03-.39.06-.59.08-.4.05-.8.09-1.21.12-.51.05-1.02.08-1.54.1-.46.02-.93.03-1.4.03-2.21,0-4.39-.23-6.47-.62.86-.17,1.71-.36,2.55-.59.31-.08.62-.17.92-.27.29-.08.57-.17.86-.27.26-.08.51-.17.76-.27.49-.16.97-.35,1.44-.55.47-.19.94-.4,1.4-.61.46-.21.92-.44,1.37-.67.44-.23.89-.47,1.33-.73.43-.25.86-.51,1.29-.78.66-.42,1.31-.87,1.94-1.33.1-.07.19-.14.29-.22.05-.04.11-.08.16-.12.27-.21.54-.42.81-.64.72-.58,1.41-1.19,2.07-1.82.5-.48.99-.98,1.44-1.48.34-.35.65-.71.96-1.07.57-.66,1.11-1.34,1.61-2.04.06-.07.12-.15.17-.23.89-1.22,1.69-2.51,2.39-3.85.09-.16.17-.32.25-.48,1.08-2.09,1.95-4.3,2.56-6.61.08-.26.15-.53.21-.79.03-.08.05-.17.06-.25.11-.43.2-.86.29-1.29,0-.02.01-.05.01-.07.09-.44.16-.87.23-1.31.15-.97.26-1.96.33-2.96.1-1.32,1.13-2.37,2.45-2.37h8.04c1.44,0,2.57,1.24,2.45,2.69-.04.45-.08.9-.14,1.35ZM450.37,603.21c-.86.35-1.72.71-2.59,1.06h2.73l-.14-1.06ZM229.6,603.2l-.14,1.07h2.75c-.87-.35-1.74-.71-2.61-1.07Z"/>
      <path class="cls-5" d="M602.38,281.85c.1,6.93-.39,13.86-1.1,20.79-1,9.95-2.52,19.15-7.74,27.85-.44.73-1.25,1.2-2.1,1.2h-3.92c-1.72,0-2.89-1.72-2.3-3.31l17.16-46.53Z"/>
      <path class="cls-5" d="M620.66,331.69h-3.92c-.86,0-1.67-.47-2.11-1.2-2.3-3.87-3.8-7.77-5-11.64-2.79-10.7-3.38-21.52-3.84-32.45v-4.5l17.17,46.48c.58,1.59-.59,3.31-2.3,3.31Z"/>
      <path class="cls-5" d="M638.71,339.87c-1.38,17.66-16.12,31.6-34.17,31.6-2.21,0-4.39-.23-6.47-.62,15.09-2.89,26.65-15.65,27.7-31.3.1-1.32,1.13-2.37,2.45-2.37h8.04c1.44,0,2.57,1.24,2.45,2.69Z"/>
      <path class="cls-5" d="M383.25,50.91c-25.94,0-25.45-22.22-43.25-22.83v-.1c3.74-.29,20.08-1.25,24.63,5.17,11.91,16.68,18.62,17.76,18.62,17.76Z"/>
      <path class="cls-5" d="M389.32,89.21c0-29.85-21.72-19.13-27.79-39.6,0,0,6.26,5.51,18.8,5.51,22.44,0,8.99,34.09,8.99,34.09Z"/>
    </g>
  </g>
</svg>