<svg width="610" height="744" viewBox="0 0 610 744" fill="none" xmlns="http://www.w3.org/2000/svg">
<g clip-path="url(#clip0_265_2)">
<g clip-path="url(#clip1_265_2)">
<path d="M607.13 361.877H590.141C588.936 361.877 587.874 361.13 587.444 360.01L561.386 289.306C561.386 289.306 561.329 289.134 561.329 289.048C561.3 288.875 561.329 288.674 561.243 288.473C561.243 288.416 561.185 288.358 561.156 288.301C561.07 288.129 560.984 287.985 560.898 287.841C560.783 287.698 560.697 287.525 560.582 287.411C560.468 287.267 560.295 287.152 560.152 287.066C560.009 286.951 559.865 286.836 559.693 286.779C559.578 286.721 559.435 286.693 559.291 286.664C559.061 286.578 558.832 286.52 558.574 286.52C558.545 286.52 558.516 286.492 558.488 286.492C558.401 286.492 558.315 286.549 558.201 286.578C558.028 286.578 557.827 286.578 557.627 286.635L507.434 302.947C506.401 303.292 505.311 302.918 504.679 302.057C504.277 301.454 503.818 300.908 503.302 300.391C501.063 298.151 498.222 296.773 495.123 296.313C495.496 289.507 498.48 282.758 499.6 276.067C500.145 273.08 500.346 270.094 500.26 267.107C500.116 261.134 496.529 255.16 495.725 249.187C495.209 245.367 494.893 241.548 495.065 237.728L509.328 216.391V195.254C509.328 192.095 506.745 189.511 503.589 189.511H496.472V116.509C496.472 95.1429 479.109 77.7397 457.73 77.7397H311.17C311.715 76.7345 312.232 75.7007 312.777 74.5233C319.406 60.3078 317.484 39.3149 303.192 29.8953C284.768 17.8337 288.355 -3.30281 248.236 0.430539C208.088 -3.30281 211.675 17.8337 193.308 29.8953C178.959 39.3149 177.065 60.3078 183.666 74.5233C184.211 75.7007 184.728 76.7345 185.273 77.7397H38.742C17.3909 77.7397 0 95.1429 0 116.509V532.721C0 534.961 0.0286978 537.143 0.114791 539.297C0.143489 540.446 0.172187 541.566 0.229582 542.715C0.25828 543.835 0.315676 544.955 0.401769 546.046C0.459165 547.166 0.545258 548.286 0.631351 549.406C0.631351 549.894 0.688747 550.382 0.746142 550.871C0.832236 552.077 0.947027 553.283 1.09052 554.46C1.20531 555.839 1.37749 557.188 1.54968 558.538C1.86536 561.238 2.26712 563.851 2.69759 566.436C2.92717 567.699 3.15676 568.992 3.41504 570.226C3.67332 571.576 3.9316 572.897 4.24727 574.19C4.47685 575.338 4.76383 576.487 5.02211 577.607C10.6182 601.185 20.9494 619.449 34.5521 634.297C34.7817 634.555 35.0113 634.842 35.2409 635.101C35.9009 635.847 36.5897 636.594 37.3071 637.312C38.6846 638.748 40.1195 640.155 41.5544 641.534C42.5588 642.51 43.5632 643.458 44.5964 644.319C65.6892 663.359 91.7755 675.478 117.116 685.645L117.23 685.357C127.734 689.55 138.495 693.571 149.343 697.591C179.619 708.82 210.929 720.451 238.134 737.624L248.236 744L258.395 737.624C285.572 720.451 316.881 708.82 347.157 697.591C358.005 693.571 368.738 689.579 379.241 685.357L379.356 685.673C408.169 674.1 437.957 659.999 460.284 636.106C460.599 635.761 460.915 635.445 461.231 635.101C461.374 634.928 461.518 634.756 461.69 634.584C462.637 633.521 463.555 632.459 464.474 631.396C475.694 618.358 484.419 602.678 489.871 583.379C490.244 582.03 490.617 580.68 490.99 579.301C491.105 578.842 491.249 578.411 491.363 577.952C491.478 577.463 491.564 576.918 491.679 576.43C492.081 574.793 492.454 573.127 492.798 571.433C492.856 571.031 492.97 570.657 493.057 570.255C493.315 568.992 493.544 567.728 493.774 566.436C494.319 563.162 494.778 559.773 495.152 556.327C495.238 555.724 495.324 555.092 495.381 554.46C495.467 553.627 495.553 552.795 495.611 551.933C495.697 550.87 495.783 549.808 495.869 548.745C495.955 547.855 496.012 546.936 496.07 546.046C496.127 545.184 496.156 544.294 496.185 543.404C496.271 542.083 496.299 540.704 496.357 539.355V538.895C496.414 536.856 496.472 534.817 496.472 532.721V324.773C498.968 324.17 501.35 322.877 503.302 320.953C506.143 318.11 507.492 314.377 507.492 310.644C507.492 309.638 508.209 308.748 509.185 308.432L551.112 294.791C552.231 294.418 553.322 295.538 552.891 296.658L529.531 360.01C529.101 361.13 528.039 361.877 526.834 361.877H509.873C508.324 361.877 507.004 363.112 507.004 364.662C506.975 374.57 509.759 384.133 515.039 392.318C524.509 407.337 540.752 416.297 558.488 416.297C586.927 416.297 610.029 393.122 610 364.662C609.971 363.112 608.68 361.877 607.13 361.877ZM457.73 86.3551C474.346 86.3551 487.862 99.8813 487.862 116.509V189.482H479.081C477.187 189.482 475.379 190.458 474.317 192.038L468.29 201.084C467.63 202.032 467.315 203.123 467.315 204.272V231.583L394.537 290.656L363.457 203.554C360.473 194.938 346.583 178.971 318.918 178.971H283.247C276.905 178.971 271.768 173.83 271.768 167.484V140.345C278.368 134.544 283.19 126.963 285.686 118.548L291.168 99.9388C297.252 93.4198 301.47 90.1746 305.029 86.3551H457.73ZM306.033 77.5674C306.033 42.5887 280.578 55.1385 273.461 31.1302C273.461 31.1302 280.836 37.5918 295.501 37.5918C321.788 37.5918 306.033 77.5674 306.033 77.5674ZM248.236 5.80083C252.569 5.45621 271.739 4.30748 277.106 11.8316C291.053 31.3887 298.916 32.681 298.916 32.681C268.525 32.681 269.099 6.63365 248.236 5.9157C247.949 5.88698 247.633 5.88698 247.346 5.88698C247.346 5.88698 247.662 5.85826 248.236 5.80083ZM248.236 248.526C271.854 258.463 298.572 263.546 326.093 257.113L313.782 293.671C288.527 291.575 266.775 284.481 248.236 274.861C243.587 272.448 239.11 269.864 234.863 267.107C233.916 266.533 232.969 265.929 232.022 265.298C228.75 263.144 225.593 260.904 222.58 258.606C221.719 257.975 220.858 257.314 220.026 256.625C219.222 256.022 218.419 255.361 217.615 254.729C212.794 250.824 208.317 246.803 204.156 242.754C203.123 241.778 202.09 240.772 201.114 239.767C199.851 238.504 198.646 237.24 197.469 235.976C190.037 228.079 183.838 220.268 178.787 213.203C178.012 212.14 177.295 211.078 176.577 210.073C175.831 208.981 175.114 207.948 174.454 206.914C173.88 206.081 173.335 205.248 172.818 204.444C172.158 203.439 171.555 202.462 170.953 201.486C170.58 200.854 170.207 200.251 169.833 199.648C169.288 198.758 168.772 197.896 168.284 197.063C168.054 196.633 167.796 196.231 167.566 195.829C167.337 195.427 167.107 195.024 166.906 194.651C166.246 193.502 165.644 192.411 165.127 191.435C164.955 191.176 164.811 190.889 164.697 190.659L164.18 189.712C164.008 189.367 163.836 189.022 163.692 188.706C163.405 188.218 163.176 187.759 162.946 187.328C162.716 186.84 162.487 186.38 162.315 186.007C162.142 185.662 161.999 185.346 161.884 185.088C161.626 184.542 161.454 184.198 161.425 184.083C161.626 184.313 162.889 185.806 165.156 188.247C165.5 188.62 165.873 189.022 166.246 189.424C168.944 192.296 172.703 196.202 177.438 200.653C178.615 201.773 179.849 202.922 181.14 204.099C182.862 205.679 184.699 207.316 186.622 208.981C187.569 209.814 188.573 210.647 189.578 211.509C190.582 212.37 191.586 213.232 192.648 214.093C198.818 219.148 205.792 224.432 213.368 229.515C214.688 230.405 216.008 231.267 217.386 232.128C226.827 238.188 237.187 243.903 248.236 248.526ZM297.194 362.911L334.559 428.531C296.075 423.936 268.267 415.264 248.236 405.499C205.505 384.708 198.043 359.062 197.756 357.885C198.818 358.603 221.26 373.795 248.236 376.552C264.106 378.131 281.583 375.432 297.194 362.911ZM152.471 429.364L119.325 676.886C63.1638 654.17 15.8125 624.934 9.35548 550.239C9.29808 549.549 9.24069 548.86 9.18329 548.2C9.0398 546.103 8.89631 544.007 8.81022 541.853C8.81022 541.623 8.78152 541.422 8.78152 541.192C8.66673 538.436 8.60933 535.621 8.60933 532.721V116.509C8.60933 99.8813 22.126 86.3551 38.742 86.3551H191.414C194.973 90.1746 199.191 93.4198 205.275 99.9388L210.757 118.548C213.282 126.963 218.074 134.544 224.704 140.345V167.484C224.704 173.83 219.538 178.971 213.225 178.971H163.95C141.767 177.219 125.868 192.268 124.634 209.47L119.899 330.315L74.5281 512.561V550.124C74.5281 554.719 79.665 557.447 83.4818 554.891L103.656 541.25C107.215 538.866 109.138 534.673 108.65 530.423L102.795 479.822L156.116 351.596L159.617 245.31L194.255 354.324C194.743 356.794 160.908 413.483 154.021 424.97C153.246 426.32 152.701 427.813 152.471 429.364ZM253.803 730.33L248.236 733.805L242.726 730.33C240.889 729.152 239.024 728.032 237.13 726.912C184.814 583.322 156.288 449.926 155.485 446.164C156.661 449.926 196.723 578.497 248.236 703.22C251.593 711.347 255.008 719.446 258.452 727.487C256.903 728.406 255.353 729.354 253.803 730.33ZM351.06 686.937C310.74 649.316 276.302 608.967 248.236 571.749C191.873 496.995 161.023 434.677 159.359 431.26C161.425 434.476 198.503 491.883 248.236 542.571C280.894 575.826 321.214 606.67 358.407 616.807L368.25 680.418C362.568 682.629 356.828 684.783 351.06 686.937ZM482.754 300.391C479.913 303.206 478.535 306.939 478.564 310.672C478.564 311.706 477.847 312.568 476.871 312.884L426.621 329.224C426.621 329.224 426.564 329.282 426.506 329.282C426.334 329.368 426.191 329.454 426.047 329.569C425.875 329.655 425.703 329.77 425.559 329.885C425.473 329.971 425.416 330.086 425.359 330.172C425.186 330.344 425.043 330.516 424.928 330.718C424.785 331.033 424.67 331.378 424.641 331.723L398.497 402.599C398.067 403.719 397.005 404.466 395.8 404.466H378.839C377.29 404.466 375.97 405.7 375.97 407.28C375.941 417.159 378.725 426.722 383.976 434.907C393.475 449.926 409.718 458.886 427.453 458.886C455.864 458.886 478.995 435.711 478.937 407.28C478.937 405.7 477.646 404.466 476.067 404.466H459.107C457.902 404.466 456.84 403.719 456.409 402.599L431.557 335.226C431.299 334.48 431.701 333.618 432.476 333.36L478.622 318.369C479.626 318.024 480.745 318.397 481.348 319.259C481.75 319.862 482.209 320.408 482.754 320.953C484.246 322.447 485.997 323.538 487.862 324.256V532.721C487.862 535.592 487.805 538.436 487.69 541.192C487.69 541.422 487.661 541.623 487.661 541.853C484.132 622.838 435.345 653.365 377.118 676.914L343.972 429.364C343.799 427.813 343.254 426.32 342.451 424.97C335.563 413.483 301.757 356.794 302.188 354.324L336.826 245.31L376.142 338.558C379.299 346.283 389.343 348.178 395.082 342.147L484.648 253.293L490.589 244.42C490.474 246.028 490.302 247.607 490.101 249.187C489.268 255.16 485.71 261.134 485.566 267.107C484.935 277.101 489.842 286.549 490.675 296.342C487.69 296.83 484.935 298.18 482.754 300.391ZM452.162 414.488C452.277 412.937 453.482 411.703 455.032 411.703H464.445C466.138 411.703 467.429 413.196 467.315 414.89C465.708 435.596 448.432 451.908 427.281 451.908C424.698 451.908 422.144 451.678 419.676 451.19C437.383 447.801 450.928 432.839 452.162 414.488ZM415.113 403.087C414.597 403.949 413.621 404.466 412.617 404.466H408.054C406.045 404.466 404.667 402.484 405.356 400.617L425.473 346.053C425.588 354.18 425.014 362.307 424.182 370.406C422.977 382.094 421.226 392.863 415.113 403.087ZM446.882 404.466H442.29C441.286 404.466 440.31 403.949 439.794 403.087C437.096 398.521 435.345 393.983 433.968 389.417C430.696 376.896 429.979 364.203 429.462 351.395C429.462 349.614 429.462 347.862 429.462 346.082L449.551 400.617C450.268 402.484 448.862 404.466 446.882 404.466ZM560.496 303.493L580.614 358.028C581.302 359.895 579.896 361.877 577.916 361.877H573.324C572.32 361.877 571.344 361.36 570.828 360.498C568.13 355.932 566.379 351.395 565.002 346.828C561.73 334.307 561.042 321.614 560.496 308.806C560.468 307.025 560.468 305.273 560.496 303.493ZM543.651 361.877H539.088C537.079 361.877 535.701 359.895 536.39 358.028L556.507 303.464C556.622 311.591 556.048 319.718 555.216 327.817C554.011 339.505 552.26 350.275 546.147 360.498C545.631 361.36 544.655 361.877 543.651 361.877ZM558.918 409.807C556.335 409.807 553.81 409.577 551.342 409.118C569.048 405.729 582.565 390.738 583.828 372.387C583.914 370.865 585.148 369.631 586.669 369.631H596.082C597.804 369.631 599.095 371.095 598.951 372.789C597.344 393.495 580.068 409.807 558.918 409.807Z" fill="#1F4D4D"/>
</g>
</g>
<defs>
<clipPath id="clip0_265_2">
<rect width="610" height="744" fill="white"/>
</clipPath>
<clipPath id="clip1_265_2">
<rect width="610" height="744" fill="white"/>
</clipPath>
</defs>
</svg>
