<svg width="1500" height="592" viewBox="0 0 1500 592" fill="none" xmlns="http://www.w3.org/2000/svg">
<g clip-path="url(#clip0_250_303)" filter="url(#filter0_d_250_303)">
<path d="M1648.91 344.265C1648.82 343.85 1648.72 343.434 1648.54 343.019L1594.19 212.713V60.5658C1594.19 30.9214 1570.07 6.81806 1540.4 6.81806H1343.49C1329.71 -35.4321 1289.92 -66 1243.16 -66C1196.39 -66 1156.09 -35.0165 1142.51 7.60303C1115.47 8.388 1093.75 30.552 1093.75 57.7491V263.182L1041.85 470.462C1039.4 480.205 1042.32 490.733 1049.43 497.89L1049.76 498.213C1055.21 503.662 1062.46 506.663 1070.23 506.663H1098.51C1103.36 525.549 1111.31 541.848 1122.77 556.116L1122.68 556.209L1126.47 560.595C1126.47 560.595 1126.61 560.78 1126.7 560.872C1155.58 594.257 1198.7 610.234 1244.41 627.134C1274.44 638.262 1305.54 649.806 1332.39 666.706L1335.21 668.507C1337.85 670.169 1340.9 671 1343.95 671C1347 671 1350.05 670.169 1352.68 668.507L1355.5 666.706C1382.35 649.759 1413.45 638.262 1443.49 627.134C1517.57 599.66 1594.19 571.308 1594.19 460.072V406.925C1624.69 403.554 1648.54 377.835 1649 346.62C1649 346.528 1649 346.436 1649 346.343V345.835C1649 345.281 1649 344.727 1648.86 344.173L1648.91 344.265ZM1594.19 392.888C1591.93 393.211 1589.62 393.396 1587.26 393.396C1584.9 393.396 1582.5 393.211 1580.19 392.888C1559.49 389.794 1543.13 373.402 1540.03 352.715H1634.54C1631.44 373.448 1614.99 389.886 1594.19 392.888ZM1580.19 452.361C1564.29 442.48 1545.85 437.031 1527 437.031C1481.57 437.031 1442.01 467.553 1430.09 510.634C1422.23 508.371 1413.91 507.54 1405.64 508.048L1387.94 481.544C1379.76 469.261 1366.64 461.181 1351.94 459.334L1348.75 458.918V446.635H1355.96H1356.1C1376.67 446.635 1396.03 438.647 1410.63 424.102C1415.72 419.023 1419.97 413.389 1423.39 407.34C1424.36 407.433 1425.33 407.433 1426.3 407.433C1460.08 407.433 1487.53 380.282 1488.04 346.713C1488.04 346.62 1488.04 346.528 1488.04 346.436V345.881C1488.04 345.327 1488.04 344.819 1487.9 344.265C1487.9 344.265 1487.9 344.173 1487.86 344.127C1487.76 343.757 1487.67 343.388 1487.53 343.019L1436.79 221.394H1576.77L1526.03 343.019C1525.89 343.342 1525.8 343.711 1525.7 344.081C1525.7 344.127 1525.66 344.173 1525.66 344.265C1525.61 344.496 1525.61 344.773 1525.57 345.004C1525.57 345.235 1525.47 345.466 1525.47 345.697C1525.47 377.327 1549.46 403.508 1580.19 407.017V452.361ZM1144.59 393.349L1160.67 435.369L1132.38 431.813L1144.63 393.303L1144.59 393.349ZM1176.43 437.354L1151.42 371.878L1179.06 284.977C1187.89 321.363 1193.89 372.017 1188.76 438.878L1176.47 437.354H1176.43ZM1334.71 39.51V43.4349H1250.37C1250.87 38.1709 1253.09 33.2302 1256.88 29.3977C1261.23 25.011 1267.05 22.5176 1273.2 22.4252L1332.95 21.5941C1334.1 27.3659 1334.75 33.3687 1334.75 39.4638L1334.71 39.51ZM1250.18 57.4721H1334.75V70.6782L1250.18 87.9476V57.4721ZM1250.14 102.262L1335.54 84.8077L1348.2 109.05H1341.68C1337.85 109.142 1334.75 112.282 1334.75 116.114C1334.75 136.385 1318.25 152.87 1297.97 152.87H1280.5C1274.03 152.87 1268.81 158.088 1268.81 164.552V190.826C1268.81 205.463 1272.41 219.962 1279.16 232.937C1259.33 218.808 1232.2 208.141 1192.88 202.924C1226.8 185.285 1249.58 147.329 1250.14 102.216V102.262ZM1433.23 207.31V179.143C1433.23 176.327 1434.62 173.787 1436.88 172.54C1443.35 168.846 1466.6 162.89 1499.78 156.241V207.31H1433.23ZM1419.18 352.715H1473.53C1470.25 374.649 1451.99 391.779 1429.49 393.303C1428.43 393.349 1427.36 393.396 1426.25 393.396C1422.42 393.396 1418.63 392.934 1415.07 392.056C1396.35 387.578 1381.89 372.017 1379.02 352.715H1419.18ZM1419.18 338.678H1382.03L1419.18 249.606V338.678ZM1433.32 338.678V249.422L1470.53 338.678H1433.32ZM1505.37 140.91C1473.95 146.959 1440.44 154.44 1430 160.35C1423.34 164.136 1419.18 171.34 1419.18 179.19V213.128L1365.02 343.019C1365.02 343.019 1364.97 343.249 1364.93 343.388C1364.65 344.173 1364.47 344.958 1364.47 345.743C1364.47 373.586 1383 397.182 1408.42 404.847C1406.15 408.172 1403.56 411.311 1400.65 414.221C1388.73 426.134 1372.88 432.644 1356.06 432.644H1348.75V381.067L1399.59 163.906L1399.73 163.213C1400.33 158.411 1403.15 142.48 1414.61 137.817C1423.67 134.076 1464.38 128.813 1520.85 124.057C1523.39 123.872 1525.61 125.765 1525.89 128.258L1526.3 132.691C1526.58 135.092 1524.96 137.309 1522.52 137.724C1516.97 138.74 1511.24 139.802 1505.37 140.957V140.91ZM1174.76 228.412C1182.66 235.292 1191.72 244.804 1200.6 257.733C1238.49 313.143 1244.22 389.009 1241.86 445.481L1202.67 440.586C1211.32 329.905 1190.43 262.12 1174.76 228.366V228.412ZM1211.5 248.821C1205.22 239.771 1198.89 232.291 1192.79 226.103C1242.37 246.19 1290.39 290.979 1291.54 451.715L1255.82 447.236C1258.41 387.993 1252.4 307.787 1211.5 248.775V248.821ZM1305.59 453.469C1304.81 300.584 1261.41 245.82 1214.55 220.793C1284.84 236.031 1302.4 273.387 1323.24 318.453C1330.78 338.17 1334.71 359.18 1334.71 380.282V457.117L1305.59 453.469ZM1580.19 338.678H1543.03L1580.19 249.606V338.678ZM1594.28 338.678V249.376L1631.53 338.678H1594.28ZM1540.4 20.8553C1562.35 20.8553 1580.19 38.6788 1580.19 60.5658V207.356H1513.78V153.562C1517.43 152.87 1521.22 152.177 1525.06 151.484C1534.58 149.73 1541.28 140.864 1540.31 131.214L1539.84 126.827C1538.83 116.715 1529.72 109.234 1519.7 110.065C1484.71 112.975 1423.8 118.793 1409.25 124.795C1396.91 129.875 1388.17 143.404 1385.82 161.043L1344.13 339.232V339.371C1342.15 330.598 1339.6 321.917 1336.37 313.513C1336.32 313.374 1336.28 313.236 1336.23 313.143C1333.46 305.848 1330.18 298.737 1326.53 291.857L1291.91 227.304C1285.95 216.13 1282.76 203.57 1282.76 190.918V166.953H1297.87C1323.57 166.953 1344.83 147.837 1348.25 123.133H1352.13C1356.24 123.041 1359.94 120.963 1362.06 117.407C1364.19 113.898 1364.28 109.604 1362.39 106.002L1348.75 79.9132V39.5562C1348.75 33.184 1348.15 26.9504 1347.04 20.8553H1540.4ZM1107.75 57.7491C1107.75 39.4638 1121.39 24.3646 1139.04 21.9173C1138.07 27.643 1137.56 33.5072 1137.56 39.51H1151.61C1151.61 -10.9593 1192.69 -51.9628 1243.16 -51.9628C1282.44 -51.9628 1315.9 -27.0744 1328.88 7.69538L1273.01 8.43419C1263.12 8.57271 1253.88 12.5438 1246.9 19.5624C1239.97 26.6272 1236.13 35.9083 1236.13 45.7898V100.507C1236.13 154.347 1200.73 196.875 1153.78 199.46C1153.78 199.46 1153.74 199.46 1153.69 199.46C1153.64 199.46 1153.6 199.46 1153.55 199.46C1129.24 199.876 1115.61 209.988 1107.75 221.347V206.433C1107.75 175.773 1119.91 143.404 1139.41 121.979C1147.5 113.159 1151.56 101.615 1151.56 87.6244V39.51H1137.51V87.6244C1137.51 98.0138 1134.65 106.371 1129.01 112.513C1120.55 121.794 1113.35 132.876 1107.71 144.974V57.703L1107.75 57.7491ZM1059.69 488.285L1059.41 488.008C1055.72 484.314 1054.24 478.912 1055.49 473.879L1107.57 265.768L1110.06 255.886C1110.3 254.963 1110.53 253.716 1110.85 252.238C1113.16 240.233 1117.97 215.76 1150.73 213.682C1154.61 219.547 1163.62 234.692 1172.13 260.504L1113.9 443.68L1350.23 473.186C1360.86 474.525 1370.38 480.389 1376.3 489.301L1422.14 558.01C1423.2 559.58 1422.97 561.657 1421.68 562.997L1420.29 564.382C1418.77 565.906 1416.27 565.906 1414.75 564.382L1351.48 501.168C1346.03 495.72 1338.73 492.672 1331.01 492.672H1070.23C1066.25 492.672 1062.51 491.148 1059.69 488.331V488.285ZM1351.53 521.116L1359.15 528.735C1356.38 531.505 1353.84 534.414 1351.53 537.554V521.162V521.116ZM1241.49 506.663V611.157C1228.05 606.17 1214.88 601.137 1202.4 595.642V506.709H1241.49V506.663ZM1255.54 506.663H1291.59V630.412C1279.67 625.379 1267.56 620.808 1255.54 616.329V506.617V506.663ZM1113.02 506.663H1165.98L1132.15 545.404C1123.47 534.045 1117.18 521.254 1113.02 506.663ZM1179.98 511.973L1180.4 511.419C1181.51 509.895 1182.48 508.279 1183.4 506.663H1188.4V589.039C1170.46 580.127 1154.38 569.692 1141.4 556.163L1179.98 511.973ZM1305.64 636.6V506.663H1330.92C1333.23 506.663 1335.49 507.263 1337.52 508.279V653.5C1327.27 647.22 1316.59 641.633 1305.64 636.6ZM1438.68 614.066C1409.2 625.01 1378.79 636.322 1351.57 652.853V580.266C1351.57 564.474 1357.95 549.606 1369.09 538.662L1404.76 574.309C1408.28 577.819 1412.85 579.573 1417.47 579.573C1422.09 579.573 1426.67 577.819 1430.18 574.309L1431.57 572.924C1437.62 566.921 1438.59 557.363 1433.83 550.252L1415.07 522.085C1421.08 522.593 1426.9 523.979 1432.49 526.287C1433.37 526.657 1434.29 526.841 1435.17 526.841C1436.33 526.841 1437.48 526.564 1438.5 526.01C1440.35 524.995 1441.69 523.24 1442.06 521.162C1449.87 480.528 1485.59 451.068 1527.04 451.068C1546.22 451.068 1564.94 457.533 1580.05 469.261C1576.21 563.089 1512.35 586.777 1438.73 614.066H1438.68Z" fill="#A5927C"/>
</g>
<defs>
<filter id="filter0_d_250_303" x="-60" y="0" width="1560" height="592" filterUnits="userSpaceOnUse" color-interpolation-filters="sRGB">
<feFlood flood-opacity="0" result="BackgroundImageFix"/>
<feColorMatrix in="SourceAlpha" type="matrix" values="0 0 0 0 0 0 0 0 0 0 0 0 0 0 0 0 0 0 127 0" result="hardAlpha"/>
<feOffset dy="4"/>
<feGaussianBlur stdDeviation="30"/>
<feComposite in2="hardAlpha" operator="out"/>
<feColorMatrix type="matrix" values="0 0 0 0 0.25749 0 0 0 0 0.137255 0 0 0 0 0.411765 0 0 0 0.3 0"/>
<feBlend mode="normal" in2="BackgroundImageFix" result="effect1_dropShadow_250_303"/>
<feBlend mode="normal" in="SourceGraphic" in2="effect1_dropShadow_250_303" result="shape"/>
</filter>
<clipPath id="clip0_250_303">
<rect width="1440" height="472" fill="white" transform="translate(0 56)"/>
</clipPath>
</defs>
</svg>
