<?xml version="1.0" encoding="UTF-8"?>
<svg id="Layer_1" data-name="Layer 1" xmlns="http://www.w3.org/2000/svg" xmlns:xlink="http://www.w3.org/1999/xlink" viewBox="0 0 680 450">
  <defs>
    <style>
      .cls-1, .cls-2, .cls-3, .cls-4 {
        fill: none;
      }

      .cls-5 {
        fill: #254546;
      }

      .cls-6 {
        fill: #527071;
      }

      .cls-2 {
        stroke: #6e8788;
      }

      .cls-2, .cls-3, .cls-4 {
        stroke-miterlimit: 10;
        stroke-width: 2px;
      }

      .cls-3 {
        stroke: #254546;
      }

      .cls-7 {
        fill: #add3b5;
      }

      .cls-4 {
        stroke: #527071;
      }

      .cls-8 {
        fill: #6e8788;
      }

      .cls-9 {
        clip-path: url(#clippath);
      }
    </style>
    <clipPath id="clippath">
      <rect class="cls-1" width="680" height="450"/>
    </clipPath>
  </defs>
  <g class="cls-9">
    <g>
      <rect class="cls-8" x="-45.29" y="-38.31" width="770.59" height="505.63"/>
      <g>
        <path class="cls-5" d="M459.59,517.35c71.19-71.19,171.66,0,171.66,0V238.4s-70.64-71.6-171.66,0v278.95Z"/>
        <path class="cls-5" d="M459.59,517.35c-71.19-71.19-171.66,0-171.66,0V238.4s70.64-71.6,171.66,0v278.95Z"/>
      </g>
      <g>
        <path class="cls-6" d="M365.58,433.84c71.19-71.19,171.66,0,171.66,0V154.9s-70.64-71.6-171.66,0v278.95Z"/>
        <path class="cls-6" d="M365.58,433.84c-71.19-71.19-171.66,0-171.66,0V154.9s70.64-71.6,171.66,0v278.95Z"/>
      </g>
      <g>
        <path class="cls-7" d="M271.56,350.34c71.19-71.19,171.66,0,171.66,0V71.39s-70.64-71.6-171.66,0v278.95Z"/>
        <path class="cls-7" d="M271.56,350.34c-71.19-71.19-171.66,0-171.66,0V71.39s70.64-71.6,171.66,0v278.95Z"/>
      </g>
      <line class="cls-4" x1="271.56" y1="350.34" x2="271.56" y2="71.39"/>
      <line class="cls-3" x1="365.58" y1="437.74" x2="365.58" y2="319.95"/>
      <line class="cls-2" x1="459.59" y1="403.45" x2="459.59" y2="517.35"/>
    </g>
  </g>
</svg>