<svg width="425" height="541" viewBox="0 0 425 541" fill="none" xmlns="http://www.w3.org/2000/svg">
<g clip-path="url(#clip0_367_3)">
<path d="M422.719 287.28H409.214C408.278 287.28 407.411 286.687 407.092 285.775L386.355 229.646C386.355 229.646 386.31 229.532 386.31 229.464C386.31 229.304 386.31 229.145 386.264 229.008C386.241 228.939 386.196 228.917 386.173 228.848C386.127 228.734 386.036 228.62 385.968 228.506C385.899 228.369 385.831 228.255 385.717 228.142C385.625 228.028 385.511 227.959 385.374 227.868C385.26 227.8 385.146 227.708 385.009 227.64C384.918 227.594 384.804 227.594 384.713 227.549C384.53 227.503 384.348 227.458 384.142 227.458C384.142 227.458 384.097 227.458 384.074 227.458C383.983 227.458 383.914 227.503 383.846 227.503C383.686 227.526 383.527 227.503 383.39 227.549L343.468 240.521C342.669 240.772 341.779 240.521 341.3 239.791C340.958 239.335 340.593 238.879 340.182 238.469C338.403 236.691 336.145 235.619 333.704 235.255C333.977 229.829 336.35 224.471 337.24 219.159C337.673 216.788 337.833 214.417 337.764 212.046C337.65 207.304 334.822 202.562 334.16 197.82C333.818 195.13 333.59 192.44 333.612 189.749L345.635 171.807V155.028C345.635 152.497 343.604 150.468 341.072 150.468H327.362H321.613C320.085 150.468 318.67 151.221 317.826 152.497L313.013 159.656C312.511 160.408 312.237 161.297 312.237 162.209V183.89L254.384 230.786L229.678 161.639C227.305 154.8 216.264 142.124 194.273 142.124H165.917C160.875 142.124 156.312 138.043 156.312 133.005V111.461C161.582 106.855 165.871 100.837 167.856 94.1568L172.213 79.3836C178.737 72.4074 182.547 70.1504 186.037 65.1804C187.155 63.5617 188.25 61.6695 189.391 59.2073C194.638 47.9222 193.132 31.2567 181.749 23.7789C167.126 14.2037 169.977 -2.57571 138.085 0.388044C106.17 -2.57571 109.022 14.2037 94.4216 23.7789C83.0153 31.2567 81.5097 47.9222 86.7566 59.2073C87.8972 61.6695 88.9922 63.5617 90.11 65.1804C93.6004 70.1504 97.4101 72.4074 103.935 79.3836L108.292 94.1568C110.276 100.837 114.565 106.855 119.812 111.461V133.005C119.812 138.043 115.272 142.124 110.231 142.124H71.0843C53.7238 142.101 40.8119 152.68 39.8309 166.336L36.0896 261.541L0 407.403V436.722C0 440.369 4.08347 442.535 7.11755 440.506L23.1549 429.677C25.9836 427.785 27.5121 424.456 27.1243 421.082L22.4705 380.912L63.4192 283.632C64.5142 281.056 65.1074 278.297 65.1986 275.493L67.6396 194.742L94.6954 279.734C95.0604 281.694 68.6433 328.248 63.1911 337.367C62.5523 338.439 62.1417 339.624 61.9592 340.856L35.1315 541H116.618C83.6084 443.219 65.4952 359.504 64.4002 354.375C66.0883 359.687 94.0794 449.101 131.059 541H215.215C185.148 512.389 159.324 482.022 138.085 453.889C93.281 394.545 68.7574 345.073 67.4342 342.36C69.0768 344.914 98.5507 390.487 138.085 430.726C164.046 457.126 196.098 481.611 225.663 489.659L233.579 541H241.016L214.188 340.856C214.028 339.624 213.618 338.439 212.979 337.367C207.504 328.248 181.087 281.694 181.452 279.734L208.508 194.742L239.761 268.768C242.271 274.901 250.255 276.405 254.817 271.618L326.016 201.08L329.985 195.153C329.917 196.042 329.803 196.908 329.689 197.797C329.05 202.539 326.198 207.281 326.084 212.023C325.582 219.98 329.506 227.458 330.168 235.255C327.772 235.642 325.582 236.714 323.849 238.446C321.59 240.703 320.495 243.667 320.518 246.631C320.518 247.429 319.948 248.135 319.172 248.386L279.25 261.358C279.25 261.358 279.181 261.381 279.159 261.404C279.022 261.45 278.908 261.541 278.771 261.609C278.634 261.7 278.497 261.769 278.383 261.883C278.315 261.951 278.269 262.02 278.223 262.088C278.109 262.248 277.972 262.362 277.904 262.544C277.767 262.795 277.676 263.068 277.653 263.342L256.871 319.585C256.551 320.497 255.684 321.09 254.726 321.09H241.244C240.012 321.09 238.963 322.07 238.963 323.301C238.963 331.144 241.153 338.735 245.35 345.256C252.878 357.156 265.79 364.269 279.911 364.269C302.496 364.269 320.86 345.894 320.837 323.301C320.837 322.07 319.788 321.09 318.556 321.09H305.051C304.116 321.09 303.249 320.497 302.929 319.585L283.174 266.123C282.946 265.508 283.265 264.847 283.881 264.641L320.564 252.718C321.362 252.467 322.252 252.764 322.731 253.447C323.073 253.903 323.438 254.359 323.849 254.77C326.107 257.027 329.05 258.144 332.016 258.144C334.981 258.144 337.924 257.027 340.182 254.77C342.441 252.513 343.536 249.572 343.513 246.608C343.513 245.787 344.083 245.081 344.859 244.83L378.188 234.023C379.101 233.727 379.945 234.593 379.603 235.505L361.033 285.775C360.714 286.687 359.847 287.28 358.912 287.28H345.407C344.175 287.28 343.125 288.26 343.125 289.491C343.125 297.334 345.338 304.926 349.513 311.446C357.041 323.347 369.976 330.46 384.074 330.46C406.659 330.46 425.023 312.084 425 289.491C425 288.26 423.951 287.28 422.719 287.28ZM184.03 61.5783C184.03 33.7873 163.795 43.7729 158.137 24.7137C158.137 24.7137 163.977 29.8432 175.658 29.8432C196.554 29.8432 184.03 61.5783 184.03 61.5783ZM161.035 9.39331C172.122 24.9188 178.372 25.922 178.372 25.922C154.214 25.922 154.67 5.24405 138.085 4.67409V4.5829C141.575 4.30932 156.791 3.4202 161.035 9.39331ZM207.322 340.172C176.433 336.501 154.145 329.502 138.085 321.66C104.345 305.199 98.2085 285.023 97.9576 284.088C98.8245 284.613 116.664 295.1 138.085 296.08C150.678 296.673 164.502 293.983 176.889 284.065L207.322 340.172ZM190.189 233.134C170.114 231.47 152.799 225.839 138.085 218.202C90.4294 193.443 69.6927 147.55 69.0539 146.114C69.9436 147.162 98.5735 180.744 138.085 197.296C156.86 205.161 178.076 209.196 199.953 204.089L190.189 233.134ZM268.117 321.09H264.467C262.87 321.09 261.775 319.494 262.323 318.012L278.315 274.695C278.406 281.147 277.95 287.599 277.288 294.051C276.353 303.307 274.938 311.879 270.079 319.972C269.669 320.656 268.916 321.09 268.117 321.09ZM301.675 326.402H309.157C310.503 326.402 311.553 327.564 311.439 328.909C310.161 345.347 296.428 358.296 279.615 358.296C277.562 358.296 275.554 358.114 273.592 357.726C287.668 355.036 298.413 343.158 299.393 328.59C299.485 327.382 300.443 326.402 301.675 326.402ZM297.477 318.012C298.025 319.494 296.93 321.09 295.333 321.09H291.683C290.884 321.09 290.131 320.656 289.721 319.972C287.554 316.37 286.185 312.745 285.067 309.143C282.466 299.181 281.919 289.104 281.485 278.936C281.485 277.545 281.485 276.132 281.485 274.741L297.477 318.012ZM385.648 240.931L401.64 284.202C402.187 285.684 401.092 287.28 399.495 287.28H395.845C395.047 287.28 394.294 286.847 393.884 286.163C391.739 282.561 390.348 278.936 389.23 275.334C386.629 265.371 386.082 255.294 385.648 245.126V240.931ZM372.28 287.28H368.63C367.033 287.28 365.938 285.684 366.485 284.202L382.477 240.886C382.568 247.338 382.112 253.789 381.451 260.241C380.515 269.497 379.101 278.069 374.242 286.163C373.831 286.847 373.078 287.28 372.28 287.28ZM384.485 324.304C382.432 324.304 380.401 324.099 378.462 323.734C392.515 321.044 403.282 309.166 404.263 294.598C404.355 293.367 405.313 292.387 406.545 292.387H414.027C415.373 292.387 416.422 293.549 416.308 294.895C415.031 311.332 401.298 324.304 384.485 324.304Z" fill="#4C7171"/>
</g>
<defs>
<clipPath id="clip0_367_3">
<rect width="425" height="541" fill="white"/>
</clipPath>
</defs>
</svg>
