<svg width="900" height="180" viewBox="0 0 900 180" fill="none" xmlns="http://www.w3.org/2000/svg">
<g clip-path="url(#clip0_458_67)">
<path d="M198.672 48.3575V14.3105H206.435L219.381 35.7863H216.163L228.472 14.3105H236.198V48.3575H228.36L228.51 24.6182L229.95 25.1233L220.129 41.9223H214.76L204.546 25.1233L205.93 24.6182L206.08 48.3575H198.691H198.672Z" fill="white"/>
<path d="M244.222 48.3575V14.3105H252.303V28.8273L263.846 14.3105H273.91L261.32 29.9497L275.538 48.3575H265.155L255.989 36.0482L252.285 40.2573V48.3575H244.203H244.222Z" fill="white"/>
<path d="M280.836 48.3575V14.3105H288.917V48.3575H280.836Z" fill="white"/>
<path d="M297.914 48.3575V14.3105H320.344V21.6812H305.996V28.715H318.829V35.7863H305.996V48.3575H297.914Z" fill="white"/>
<path d="M327.847 48.3575V14.3105H335.928V28.8273L347.471 14.3105H357.535L344.945 29.9497L359.163 48.3575H348.78L339.614 36.0482L335.91 40.2573V48.3575H327.828H327.847Z" fill="white"/>
<path d="M199.234 108.221V74.1738H203.687L217.885 97.1649H216.127L229.839 74.1738H234.161V108.221H229.69L229.746 80.4033L230.644 80.7026L218.484 100.57H214.967L202.658 80.7026L203.369 80.4033L203.425 108.221H199.234Z" fill="white"/>
<path d="M248.247 108.95C246.563 108.95 245.085 108.651 243.85 108.034C242.597 107.416 241.643 106.537 240.951 105.415C240.277 104.292 239.922 102.964 239.922 101.411C239.922 100.139 240.24 98.9981 240.895 97.9505C241.549 96.9029 242.56 96.0424 243.963 95.3502C245.366 94.658 247.162 94.1903 249.388 93.9659C251.614 93.7227 254.289 93.7788 257.432 94.0968L257.563 97.3706C255.131 97.0525 253.054 96.9216 251.352 96.9964C249.65 97.0712 248.265 97.2957 247.218 97.6699C246.17 98.044 245.384 98.5491 244.898 99.1852C244.412 99.8025 244.15 100.513 244.15 101.28C244.15 102.534 244.599 103.506 245.497 104.217C246.395 104.928 247.629 105.284 249.201 105.284C250.548 105.284 251.745 105.04 252.811 104.535C253.877 104.049 254.719 103.357 255.337 102.478C255.954 101.598 256.272 100.569 256.272 99.4096V92.7499C256.272 91.6275 256.029 90.6547 255.524 89.8316C255.037 89.0085 254.308 88.3724 253.354 87.9048C252.4 87.4558 251.221 87.2313 249.837 87.2313C248.583 87.2313 247.349 87.4184 246.114 87.7925C244.879 88.1667 243.701 88.7653 242.56 89.6071L241.194 86.1463C242.672 85.1361 244.187 84.4252 245.758 84.0324C247.33 83.6208 248.845 83.415 250.286 83.415C252.474 83.415 254.345 83.7518 255.879 84.4439C257.413 85.1361 258.592 86.165 259.415 87.5493C260.219 88.9336 260.631 90.6547 260.631 92.7125V108.221H256.515V105.302C255.692 106.481 254.551 107.398 253.092 108.015C251.633 108.632 250.005 108.95 248.228 108.95H248.247Z" fill="white"/>
<path d="M276.492 119.164C274.715 119.164 273.106 118.996 271.685 118.678C270.263 118.36 269.047 117.892 268.055 117.312C267.064 116.732 266.278 116.003 265.754 115.161C265.231 114.319 264.969 113.384 264.969 112.336C264.969 111.476 265.193 110.69 265.642 109.96C266.091 109.231 266.765 108.613 267.663 108.09C268.561 107.566 269.664 107.154 270.974 106.892C270.02 106.425 269.29 105.882 268.822 105.302C268.355 104.704 268.112 104.03 268.112 103.244C268.112 102.571 268.299 101.954 268.691 101.392C269.084 100.831 269.627 100.307 270.338 99.8397C271.049 99.372 271.89 98.9979 272.863 98.6986C273.836 98.3993 274.921 98.2122 276.118 98.1187L277.203 100.214C276.174 100.214 275.276 100.307 274.509 100.476C273.761 100.663 273.181 100.906 272.751 101.243C272.321 101.579 272.134 101.972 272.134 102.421C272.134 103.039 272.47 103.469 273.162 103.731C273.855 103.974 274.79 104.161 275.95 104.255L280.028 104.573C282.048 104.741 283.769 105.059 285.191 105.564C286.613 106.069 287.679 106.761 288.427 107.659C289.176 108.557 289.55 109.68 289.55 111.045C289.55 112.205 289.232 113.271 288.615 114.263C287.997 115.254 287.099 116.115 285.958 116.844C284.798 117.574 283.433 118.154 281.824 118.566C280.215 118.977 278.438 119.183 276.492 119.183V119.164ZM276.698 100.607C274.753 100.607 272.994 100.233 271.441 99.4843C269.87 98.736 268.635 97.7071 267.719 96.435C266.802 95.1629 266.353 93.7225 266.353 92.1324C266.353 90.5423 266.821 89.1392 267.719 87.8484C268.635 86.5764 269.889 85.5475 271.46 84.7992C273.032 84.0509 274.79 83.6768 276.717 83.6768C278.644 83.6768 280.421 84.0509 281.974 84.7992C283.545 85.5475 284.78 86.5764 285.696 87.8484C286.613 89.1205 287.062 90.561 287.062 92.1324C287.062 93.7038 286.594 95.1629 285.696 96.435C284.78 97.7071 283.545 98.736 281.992 99.4843C280.44 100.233 278.681 100.607 276.717 100.607H276.698ZM276.829 115.909C279.411 115.909 281.431 115.516 282.909 114.712C284.387 113.926 285.116 112.897 285.116 111.644C285.116 110.69 284.611 109.942 283.601 109.399C282.591 108.857 281.057 108.52 279.018 108.37L274.696 108.052C273.555 108.127 272.583 108.333 271.778 108.669C270.974 109.006 270.338 109.436 269.907 109.979C269.477 110.521 269.271 111.12 269.271 111.812C269.271 112.617 269.571 113.328 270.188 113.945C270.805 114.562 271.666 115.049 272.807 115.385C273.929 115.741 275.276 115.909 276.829 115.909ZM276.698 97.0524C277.895 97.0524 278.962 96.8466 279.878 96.435C280.795 96.0235 281.506 95.4435 282.03 94.714C282.553 93.9844 282.815 93.1052 282.815 92.1324C282.815 90.6732 282.254 89.4947 281.132 88.578C280.009 87.6614 278.531 87.2124 276.717 87.2124C275.52 87.2124 274.453 87.4182 273.537 87.8484C272.62 88.2787 271.909 88.8586 271.404 89.5882C270.899 90.3178 270.637 91.1783 270.637 92.1511C270.637 93.6102 271.198 94.8075 272.321 95.7241C273.443 96.6408 274.902 97.0898 276.717 97.0898L276.698 97.0524ZM280.477 88.0542L278.831 84.7992L291.14 84.3876L291.084 88.1852L280.477 88.0542Z" fill="white"/>
<path d="M298.527 119.146C297.741 119.146 296.974 119.052 296.207 118.865C295.44 118.678 294.673 118.341 293.906 117.874L294.954 114.001C295.459 114.319 296.001 114.562 296.581 114.731C297.161 114.899 297.685 114.974 298.134 114.974C299.331 114.974 300.267 114.675 300.94 114.095C301.614 113.515 302.137 112.617 302.549 111.42L303.503 108.688L294.075 84.3691H298.995L306.047 103.581L312.931 84.3691H317.683L307.244 112C306.534 113.87 305.748 115.329 304.869 116.358C304.008 117.387 303.054 118.098 302.006 118.51C300.959 118.921 299.818 119.127 298.546 119.127L298.527 119.146Z" fill="white"/>
<path d="M327.715 108.95C326.032 108.95 324.554 108.651 323.319 108.034C322.066 107.416 321.112 106.537 320.42 105.415C319.746 104.292 319.391 102.964 319.391 101.411C319.391 100.139 319.709 98.9981 320.363 97.9505C321.018 96.9029 322.028 96.0424 323.431 95.3502C324.834 94.658 326.63 94.1903 328.856 93.9659C331.083 93.7227 333.758 93.7788 336.9 94.0968L337.031 97.3706C334.6 97.0525 332.523 96.9216 330.821 96.9964C329.118 97.0712 327.734 97.2957 326.686 97.6699C325.639 98.044 324.853 98.5491 324.367 99.1852C323.88 99.8025 323.618 100.513 323.618 101.28C323.618 102.534 324.067 103.506 324.965 104.217C325.863 104.928 327.098 105.284 328.669 105.284C330.016 105.284 331.214 105.04 332.28 104.535C333.346 104.049 334.188 103.357 334.805 102.478C335.423 101.598 335.741 100.569 335.741 99.4096V92.7499C335.741 91.6275 335.497 90.6547 334.992 89.8316C334.506 89.0085 333.776 88.3724 332.822 87.9048C331.868 87.4558 330.69 87.2313 329.305 87.2313C328.052 87.2313 326.817 87.4184 325.583 87.7925C324.348 88.1667 323.169 88.7653 322.028 89.6071L320.663 86.1463C322.141 85.1361 323.656 84.4252 325.227 84.0324C326.799 83.6208 328.314 83.415 329.754 83.415C331.943 83.415 333.814 83.7518 335.348 84.4439C336.882 85.1361 338.06 86.165 338.883 87.5493C339.688 88.9336 340.099 90.6547 340.099 92.7125V108.221H335.984V105.302C335.161 106.481 334.02 107.398 332.56 108.015C331.101 108.632 329.474 108.95 327.697 108.95H327.715Z" fill="white"/>
<path d="M346.531 108.22V84.387H351.002V87.8478C351.956 86.2951 353.097 85.1914 354.426 84.574C355.754 83.9567 357.157 83.6387 358.653 83.6387C359.121 83.6387 359.57 83.6574 360.019 83.7135C360.449 83.7696 360.88 83.8257 361.31 83.9006L360.655 88.5399C360.206 88.409 359.738 88.3155 359.271 88.2406C358.803 88.1658 358.335 88.1284 357.886 88.1284C355.885 88.1284 354.257 88.7457 352.966 89.9991C351.676 91.2338 351.04 92.8987 351.04 94.9752V108.22H346.569H346.531Z" fill="white"/>
<path d="M378.844 108.221V74.1738H383.408V92.5629L398.318 74.1738H403.911L391.508 89.495L405.876 108.221H399.964L388.515 93.0306L383.408 99.1291V108.221H378.844Z" fill="white"/>
<path d="M419.582 108.95C417.112 108.95 414.924 108.37 412.997 107.229C411.07 106.088 409.555 104.554 408.451 102.627C407.347 100.719 406.805 98.6048 406.805 96.3038C406.805 94.6014 407.123 92.9926 407.759 91.4586C408.395 89.9246 409.274 88.5777 410.434 87.4179C411.594 86.2393 412.941 85.3227 414.493 84.6492C416.046 83.9758 417.748 83.6578 419.6 83.6578C422.088 83.6578 424.277 84.2377 426.223 85.3788C428.168 86.5199 429.665 88.0539 430.769 89.9808C431.872 91.8889 432.415 94.0028 432.415 96.3038C432.415 98.0061 432.097 99.6149 431.461 101.149C430.825 102.683 429.945 104.011 428.786 105.19C427.626 106.35 426.279 107.285 424.726 107.958C423.173 108.632 421.452 108.969 419.6 108.969L419.582 108.95ZM419.582 104.909C421.19 104.909 422.612 104.554 423.847 103.843C425.082 103.132 426.054 102.14 426.784 100.85C427.495 99.5588 427.85 98.0435 427.85 96.2851C427.85 94.5266 427.495 92.9926 426.784 91.7018C426.073 90.411 425.1 89.4196 423.847 88.7274C422.594 88.0352 421.172 87.6798 419.563 87.6798C417.954 87.6798 416.532 88.0352 415.298 88.7274C414.063 89.4196 413.09 90.411 412.379 91.7018C411.669 92.9926 411.313 94.5266 411.313 96.2851C411.313 98.0435 411.669 99.5588 412.379 100.85C413.09 102.14 414.063 103.132 415.316 103.843C416.57 104.554 417.992 104.909 419.582 104.909ZM414.587 79.9163C413.801 79.9163 413.09 79.6357 412.492 79.0745C411.893 78.5133 411.594 77.8024 411.594 76.9419C411.594 76.3807 411.725 75.8756 412.005 75.4266C412.286 74.9777 412.641 74.6409 413.09 74.379C413.539 74.1358 414.044 74.0049 414.568 74.0049C415.373 74.0049 416.083 74.2855 416.663 74.828C417.262 75.3705 417.543 76.0814 417.543 76.9419C417.543 77.5218 417.412 78.0456 417.131 78.4946C416.85 78.9436 416.495 79.2803 416.046 79.5422C415.597 79.7854 415.092 79.9163 414.568 79.9163H414.587ZM424.558 79.9163C423.772 79.9163 423.061 79.6357 422.463 79.0745C421.864 78.5133 421.565 77.8024 421.565 76.9419C421.565 76.3807 421.696 75.8756 421.976 75.4266C422.257 74.9777 422.612 74.6409 423.08 74.379C423.529 74.1358 424.034 74.0049 424.558 74.0049C425.362 74.0049 426.073 74.2855 426.653 74.828C427.252 75.3705 427.532 76.0814 427.532 76.9419C427.532 77.5218 427.401 78.0456 427.121 78.4946C426.84 78.9436 426.485 79.2803 426.036 79.5422C425.587 79.7854 425.082 79.9163 424.558 79.9163Z" fill="white"/>
<path d="M435.469 108.221V104.891L448.489 88.4097H435.693V84.3877H453.989V87.7176L441.174 104.18H454.195V108.221H435.487H435.469Z" fill="white"/>
<path d="M460.344 108.22V73.2002H464.815V108.22H460.344Z" fill="white"/>
<path d="M482.254 108.95C479.784 108.95 477.595 108.37 475.669 107.229C473.742 106.088 472.226 104.554 471.123 102.627C470.019 100.719 469.477 98.6048 469.477 96.3038C469.477 94.6014 469.795 92.9926 470.431 91.4586C471.067 89.9246 471.946 88.5777 473.106 87.4179C474.266 86.2393 475.613 85.3227 477.165 84.6492C478.718 83.9758 480.42 83.6578 482.272 83.6578C484.76 83.6578 486.949 84.2377 488.895 85.3788C490.84 86.5199 492.337 88.0539 493.44 89.9808C494.544 91.8889 495.087 94.0028 495.087 96.3038C495.087 98.0061 494.769 99.6149 494.133 101.149C493.497 102.683 492.617 104.011 491.457 105.19C490.298 106.35 488.951 107.285 487.398 107.958C485.845 108.632 484.124 108.969 482.272 108.969L482.254 108.95ZM482.254 104.909C483.862 104.909 485.284 104.554 486.519 103.843C487.753 103.132 488.726 102.14 489.456 100.85C490.167 99.5588 490.522 98.0435 490.522 96.2851C490.522 94.5266 490.167 92.9926 489.456 91.7018C488.745 90.411 487.772 89.4196 486.519 88.7274C485.265 88.0352 483.844 87.6798 482.235 87.6798C480.626 87.6798 479.204 88.0352 477.97 88.7274C476.735 89.4196 475.762 90.411 475.051 91.7018C474.34 92.9926 473.985 94.5266 473.985 96.2851C473.985 98.0435 474.34 99.5588 475.051 100.85C475.762 102.14 476.735 103.132 477.988 103.843C479.242 104.554 480.663 104.909 482.254 104.909ZM477.259 79.9163C476.473 79.9163 475.762 79.6357 475.164 79.0745C474.565 78.5133 474.266 77.8024 474.266 76.9419C474.266 76.3807 474.397 75.8756 474.677 75.4266C474.958 74.9777 475.313 74.6409 475.762 74.379C476.211 74.1358 476.716 74.0049 477.24 74.0049C478.044 74.0049 478.755 74.2855 479.335 74.828C479.934 75.3705 480.214 76.0814 480.214 76.9419C480.214 77.5218 480.084 78.0456 479.803 78.4946C479.522 78.9436 479.167 79.2803 478.718 79.5422C478.269 79.7854 477.764 79.9163 477.24 79.9163H477.259ZM487.23 79.9163C486.444 79.9163 485.733 79.6357 485.134 79.0745C484.536 78.5133 484.236 77.8024 484.236 76.9419C484.236 76.3807 484.367 75.8756 484.648 75.4266C484.929 74.9777 485.284 74.6409 485.752 74.379C486.201 74.1358 486.706 74.0049 487.23 74.0049C488.034 74.0049 488.745 74.2855 489.325 74.828C489.923 75.3705 490.204 76.0814 490.204 76.9419C490.204 77.5218 490.073 78.0456 489.793 78.4946C489.512 78.9436 489.156 79.2803 488.707 79.5422C488.258 79.7854 487.753 79.9163 487.23 79.9163Z" fill="white"/>
<path d="M499.703 108.221V84.3876H504.174V87.6053C505.203 86.2022 506.382 85.2107 507.747 84.5934C509.113 83.9761 510.497 83.6768 511.938 83.6768C514.089 83.6768 515.885 84.107 517.307 84.9863C518.728 85.8468 519.795 86.9692 520.487 88.2974C521.198 89.6443 521.553 91.0287 521.553 92.4317V108.239H517.082V93.816C517.082 92.0201 516.521 90.561 515.398 89.476C514.276 88.391 512.761 87.8297 510.834 87.8297C509.562 87.8297 508.439 88.1104 507.448 88.6716C506.456 89.2328 505.652 90.0185 505.072 91.0474C504.492 92.0763 504.193 93.2361 504.193 94.583V108.258H499.722L499.703 108.221Z" fill="white"/>
<path d="M530.066 119.146C529.28 119.146 528.513 119.052 527.746 118.865C526.979 118.678 526.212 118.341 525.445 117.874L526.493 114.001C526.998 114.319 527.54 114.562 528.12 114.731C528.7 114.899 529.224 114.974 529.673 114.974C530.87 114.974 531.806 114.675 532.479 114.095C533.153 113.515 533.676 112.617 534.088 111.42L535.042 108.688L525.614 84.3691H530.534L537.586 103.581L544.47 84.3691H549.222L538.784 112C538.073 113.87 537.287 115.329 536.408 116.358C535.547 117.387 534.593 118.098 533.545 118.51C532.498 118.921 531.357 119.127 530.085 119.127L530.066 119.146Z" fill="white"/>
<path d="M553.641 108.22V73.2002H558.112V94.676L568.251 84.3871H573.601L565.164 93.3291L575.023 108.22H569.616L561.909 96.2287L558.112 100.045V108.22H553.641Z" fill="white"/>
<path d="M580.332 79.8792C579.49 79.8792 578.761 79.5986 578.143 79.0186C577.526 78.4574 577.227 77.7278 577.227 76.8486C577.227 75.9694 577.545 75.2585 578.143 74.6973C578.742 74.1361 579.49 73.8555 580.332 73.8555C581.174 73.8555 581.922 74.1361 582.539 74.6973C583.157 75.2585 583.456 75.9694 583.456 76.8486C583.456 77.7278 583.157 78.4387 582.539 79.0186C581.922 79.5799 581.192 79.8792 580.332 79.8792ZM578.087 108.22V84.3876H582.558V108.22H578.087Z" fill="white"/>
<path d="M595.918 108.95C594.235 108.95 592.757 108.651 591.522 108.034C590.269 107.416 589.315 106.537 588.623 105.415C587.949 104.292 587.594 102.964 587.594 101.411C587.594 100.139 587.912 98.9981 588.567 97.9505C589.221 96.9029 590.231 96.0424 591.634 95.3502C593.038 94.658 594.833 94.1903 597.06 93.9659C599.286 93.7227 601.961 93.7788 605.104 94.0968L605.235 97.3706C602.803 97.0525 600.726 96.9216 599.024 96.9964C597.321 97.0712 595.937 97.2957 594.89 97.6699C593.842 98.044 593.056 98.5491 592.57 99.1852C592.083 99.8025 591.822 100.513 591.822 101.28C591.822 102.534 592.27 103.506 593.168 104.217C594.066 104.928 595.301 105.284 596.872 105.284C598.219 105.284 599.417 105.04 600.483 104.535C601.549 104.049 602.391 103.357 603.008 102.478C603.626 101.598 603.944 100.569 603.944 99.4096V92.7499C603.944 91.6275 603.701 90.6547 603.195 89.8316C602.709 89.0085 601.98 88.3724 601.025 87.9048C600.071 87.4558 598.893 87.2313 597.509 87.2313C596.255 87.2313 595.02 87.4184 593.786 87.7925C592.551 88.1667 591.373 88.7653 590.231 89.6071L588.866 86.1463C590.344 85.1361 591.859 84.4252 593.43 84.0324C595.002 83.6208 596.517 83.415 597.958 83.415C600.146 83.415 602.017 83.7518 603.551 84.4439C605.085 85.1361 606.263 86.165 607.087 87.5493C607.891 88.9336 608.303 90.6547 608.303 92.7125V108.221H604.187V105.302C603.364 106.481 602.223 107.398 600.764 108.015C599.304 108.632 597.677 108.95 595.9 108.95H595.918Z" fill="white"/>
<path d="M625.59 108.95C623.233 108.95 621.156 108.388 619.36 107.266C617.546 106.144 616.143 104.628 615.132 102.739C614.122 100.831 613.617 98.6982 613.617 96.3037C613.617 94.5452 613.917 92.9177 614.496 91.3837C615.076 89.8684 615.899 88.5215 616.966 87.3616C618.032 86.2018 619.304 85.2852 620.763 84.6304C622.241 83.9757 623.869 83.6389 625.646 83.6389C627.928 83.6389 629.892 84.1066 631.52 85.0233C633.147 85.9399 634.494 87.1933 635.542 88.746L634.644 89.7375V73.1816H639.115V108.201H634.999V102.608L635.654 103.637C634.738 105.171 633.465 106.424 631.857 107.434C630.248 108.445 628.153 108.95 625.59 108.95ZM626.394 104.909C628.003 104.909 629.425 104.553 630.659 103.843C631.894 103.132 632.867 102.14 633.596 100.849C634.307 99.5587 634.663 98.0434 634.663 96.2849C634.663 94.5265 634.307 92.9925 633.596 91.7017C632.886 90.4109 631.913 89.4194 630.659 88.7273C629.406 88.0351 627.984 87.6797 626.375 87.6797C624.767 87.6797 623.345 88.0351 622.11 88.7273C620.876 89.4194 619.903 90.4109 619.192 91.7017C618.481 92.9925 618.126 94.5265 618.126 96.2849C618.126 98.0434 618.481 99.5587 619.192 100.849C619.903 102.14 620.876 103.132 622.129 103.843C623.382 104.553 624.804 104.909 626.394 104.909Z" fill="white"/>
<path d="M657.519 108.95C655.05 108.95 652.861 108.37 650.934 107.228C649.007 106.087 647.492 104.553 646.388 102.626C645.285 100.718 644.742 98.6045 644.742 96.3035C644.742 94.6011 645.06 92.9923 645.696 91.4583C646.332 89.9244 647.212 88.5774 648.371 87.4176C649.531 86.2391 650.878 85.3224 652.431 84.6489C653.984 83.9755 655.686 83.6575 657.538 83.6575C660.026 83.6575 662.215 84.2374 664.16 85.3785C666.106 86.5197 667.602 88.0536 668.706 89.9805C669.81 91.8886 670.352 94.0025 670.352 96.3035C670.352 98.0058 670.034 99.6146 669.398 101.149C668.762 102.683 667.883 104.011 666.723 105.189C665.563 106.349 664.216 107.285 662.664 107.958C661.111 108.631 659.39 108.968 657.538 108.968L657.519 108.95ZM657.519 104.909C659.128 104.909 660.55 104.553 661.784 103.842C663.019 103.132 663.992 102.14 664.721 100.849C665.432 99.5585 665.788 98.0433 665.788 96.2848C665.788 94.5263 665.432 92.9923 664.721 91.7015C664.011 90.4107 663.038 89.4193 661.784 88.7271C660.531 88.0349 659.109 87.6795 657.5 87.6795C655.892 87.6795 654.47 88.0349 653.235 88.7271C652.001 89.4193 651.028 90.4107 650.317 91.7015C649.606 92.9923 649.251 94.5263 649.251 96.2848C649.251 98.0433 649.606 99.5585 650.317 100.849C651.028 102.14 652.001 103.132 653.254 103.842C654.507 104.553 655.929 104.909 657.519 104.909ZM655.143 79.7664L659.67 71.4043H664.272L659.315 79.7664H655.162H655.143Z" fill="white"/>
<path d="M698.844 108.95C696.319 108.95 694.092 108.426 692.147 107.378C690.201 106.331 688.705 104.853 687.62 102.963C686.535 101.074 685.992 98.8664 685.992 96.3596C685.992 94.545 686.31 92.8614 686.928 91.3087C687.545 89.756 688.424 88.4091 689.547 87.2679C690.669 86.1268 691.997 85.2476 693.512 84.6115C695.028 83.9755 696.674 83.6575 698.47 83.6575C700.397 83.6575 702.118 83.9942 703.633 84.6864C705.148 85.3785 706.402 86.3139 707.412 87.5486C708.403 88.7645 709.133 90.205 709.563 91.8512C709.993 93.4974 710.087 95.2933 709.825 97.2201H690.426C690.37 98.8102 690.706 100.195 691.399 101.392C692.091 102.589 693.101 103.506 694.429 104.179C695.757 104.853 697.31 105.171 699.143 105.171C700.472 105.171 701.762 104.965 703.034 104.535C704.306 104.104 705.41 103.487 706.383 102.664L708.272 105.994C707.487 106.63 706.57 107.172 705.504 107.621C704.437 108.07 703.334 108.407 702.193 108.631C701.051 108.856 699.929 108.968 698.844 108.968V108.95ZM690.669 93.7219H705.354C705.279 91.7202 704.662 90.1488 703.483 89.0077C702.305 87.8666 700.602 87.3241 698.395 87.3241C696.188 87.3241 694.485 87.8853 693.101 89.0077C691.698 90.1301 690.893 91.7015 690.669 93.7219ZM696.019 79.7664L700.546 71.4043H705.148L700.191 79.7664H696.038H696.019Z" fill="white"/>
<path d="M723.311 108.931C721.422 108.931 719.644 108.651 717.979 108.09C716.296 107.528 714.911 106.78 713.789 105.845L715.641 102.459C716.689 103.338 717.905 104.011 719.252 104.517C720.598 105.022 721.964 105.265 723.33 105.265C725.013 105.265 726.323 104.966 727.277 104.348C728.231 103.731 728.68 102.87 728.68 101.767C728.68 100.738 728.268 99.952 727.464 99.4469C726.66 98.9418 725.144 98.418 722.937 97.8942C720.019 97.2395 717.905 96.3415 716.576 95.2191C715.248 94.0967 714.593 92.5627 714.593 90.5984C714.593 89.1954 714.986 87.9607 715.753 86.8944C716.52 85.8281 717.605 84.9676 718.952 84.3502C720.299 83.7329 721.871 83.4336 723.629 83.4336C725.388 83.4336 727.015 83.6768 728.53 84.1819C730.046 84.687 731.355 85.3978 732.477 86.3332L730.756 89.7379C730.195 89.1954 729.522 88.7464 728.755 88.3536C727.988 87.9607 727.165 87.6614 726.285 87.4369C725.406 87.2124 724.527 87.1002 723.666 87.1002C722.226 87.1002 721.047 87.3995 720.131 87.9794C719.214 88.5593 718.765 89.3825 718.765 90.4114C718.765 91.4403 719.214 92.3008 720.093 92.7872C720.973 93.2923 722.45 93.7786 724.508 94.265C727.483 94.9385 729.634 95.8177 730.925 96.9214C732.216 98.0252 732.87 99.5591 732.87 101.505C732.87 103.02 732.477 104.329 731.673 105.433C730.887 106.537 729.765 107.397 728.343 108.015C726.921 108.632 725.238 108.931 723.33 108.931H723.311Z" fill="white"/>
<path d="M199.234 168.083V134.036H203.799V168.083H199.234Z" fill="white"/>
<path d="M218.766 179.026C216.989 179.026 215.38 178.858 213.958 178.54C212.536 178.222 211.32 177.754 210.329 177.174C209.337 176.595 208.552 175.865 208.028 175.023C207.504 174.181 207.242 173.246 207.242 172.198C207.242 171.338 207.467 170.552 207.916 169.823C208.365 169.093 209.038 168.476 209.936 167.952C210.834 167.428 211.938 167.017 213.247 166.755C212.293 166.287 211.564 165.744 211.096 165.164C210.628 164.566 210.385 163.892 210.385 163.107C210.385 162.433 210.572 161.816 210.965 161.255C211.358 160.693 211.9 160.17 212.611 159.702C213.322 159.234 214.164 158.86 215.137 158.561C216.109 158.262 217.194 158.074 218.392 157.981L219.477 160.076C218.448 160.076 217.55 160.17 216.783 160.338C216.035 160.525 215.455 160.768 215.024 161.105C214.594 161.442 214.407 161.835 214.407 162.284C214.407 162.901 214.744 163.331 215.436 163.593C216.128 163.836 217.063 164.023 218.223 164.117L222.301 164.435C224.322 164.603 226.043 164.921 227.465 165.426C228.886 165.931 229.953 166.624 230.701 167.522C231.449 168.42 231.823 169.542 231.823 170.908C231.823 172.067 231.505 173.134 230.888 174.125C230.271 175.117 229.373 175.977 228.232 176.707C227.072 177.436 225.706 178.016 224.097 178.428C222.489 178.839 220.711 179.045 218.766 179.045V179.026ZM218.972 160.469C217.026 160.469 215.268 160.095 213.715 159.347C212.143 158.598 210.909 157.569 209.992 156.297C209.075 155.025 208.627 153.585 208.627 151.995C208.627 150.405 209.094 149.002 209.992 147.711C210.909 146.439 212.162 145.41 213.734 144.661C215.305 143.913 217.063 143.539 218.99 143.539C220.917 143.539 222.694 143.913 224.247 144.661C225.818 145.41 227.053 146.439 227.97 147.711C228.886 148.983 229.335 150.423 229.335 151.995C229.335 153.566 228.868 155.025 227.97 156.297C227.053 157.569 225.818 158.598 224.266 159.347C222.713 160.095 220.955 160.469 218.99 160.469H218.972ZM219.103 175.771C221.684 175.771 223.704 175.379 225.182 174.574C226.66 173.788 227.39 172.76 227.39 171.506C227.39 170.552 226.885 169.804 225.874 169.261C224.864 168.719 223.33 168.382 221.291 168.232L216.97 167.914C215.829 167.989 214.856 168.195 214.052 168.532C213.247 168.869 212.611 169.299 212.181 169.841C211.751 170.384 211.545 170.982 211.545 171.675C211.545 172.479 211.844 173.19 212.461 173.807C213.079 174.425 213.939 174.911 215.08 175.248C216.203 175.603 217.55 175.771 219.103 175.771ZM218.972 156.915C220.169 156.915 221.235 156.709 222.152 156.297C223.068 155.886 223.779 155.306 224.303 154.576C224.827 153.847 225.089 152.967 225.089 151.995C225.089 150.536 224.528 149.357 223.405 148.44C222.283 147.524 220.805 147.075 218.99 147.075C217.793 147.075 216.727 147.28 215.81 147.711C214.893 148.141 214.183 148.721 213.677 149.451C213.172 150.18 212.91 151.041 212.91 152.013C212.91 153.473 213.472 154.67 214.594 155.586C215.717 156.503 217.176 156.952 218.99 156.952L218.972 156.915ZM222.75 147.917L221.104 144.661L233.413 144.25L233.357 148.047L222.75 147.917Z" fill="white"/>
<path d="M243.832 168.813C242.149 168.813 240.671 168.513 239.436 167.896C238.183 167.279 237.229 166.399 236.537 165.277C235.863 164.155 235.508 162.826 235.508 161.274C235.508 160.002 235.826 158.86 236.481 157.813C237.135 156.765 238.146 155.905 239.549 155.213C240.952 154.52 242.747 154.053 244.974 153.828C247.2 153.585 249.875 153.641 253.018 153.959L253.149 157.233C250.717 156.915 248.64 156.784 246.938 156.859C245.236 156.934 243.851 157.158 242.804 157.532C241.756 157.906 240.97 158.411 240.484 159.047C239.998 159.665 239.736 160.376 239.736 161.143C239.736 162.396 240.185 163.369 241.083 164.08C241.98 164.791 243.215 165.146 244.787 165.146C246.133 165.146 247.331 164.903 248.397 164.398C249.463 163.911 250.305 163.219 250.922 162.34C251.54 161.461 251.858 160.432 251.858 159.272V152.612C251.858 151.49 251.615 150.517 251.11 149.694C250.623 148.871 249.894 148.235 248.94 147.767C247.985 147.318 246.807 147.094 245.423 147.094C244.169 147.094 242.935 147.281 241.7 147.655C240.465 148.029 239.287 148.628 238.146 149.469L236.78 146.009C238.258 144.998 239.773 144.288 241.344 143.895C242.916 143.483 244.431 143.277 245.872 143.277C248.06 143.277 249.931 143.614 251.465 144.306C252.999 144.998 254.178 146.027 255.001 147.412C255.805 148.796 256.217 150.517 256.217 152.575V168.083H252.101V165.165C251.278 166.343 250.137 167.26 248.678 167.877C247.218 168.495 245.591 168.813 243.814 168.813H243.832Z" fill="white"/>
<path d="M262.031 168.083V164.753L275.051 148.272H262.256V144.25H280.551V147.58L267.737 164.042H280.757V168.083H262.05H262.031Z" fill="white"/>
<path d="M293.67 168.794C291.781 168.794 290.004 168.513 288.339 167.952C286.655 167.391 285.271 166.642 284.148 165.707L286 162.321C287.048 163.2 288.264 163.874 289.611 164.379C290.958 164.884 292.323 165.127 293.689 165.127C295.373 165.127 296.682 164.828 297.636 164.21C298.59 163.593 299.039 162.733 299.039 161.629C299.039 160.6 298.628 159.814 297.823 159.309C297.019 158.804 295.504 158.28 293.296 157.757C290.378 157.102 288.264 156.204 286.936 155.081C285.608 153.959 284.953 152.425 284.953 150.461C284.953 149.058 285.346 147.823 286.113 146.757C286.88 145.69 287.965 144.83 289.312 144.213C290.659 143.595 292.23 143.296 293.988 143.296C295.747 143.296 297.374 143.539 298.89 144.044C300.405 144.549 301.714 145.26 302.837 146.196L301.116 149.6C300.555 149.058 299.881 148.609 299.114 148.216C298.347 147.823 297.524 147.524 296.645 147.299C295.766 147.075 294.886 146.962 294.026 146.962C292.585 146.962 291.407 147.262 290.49 147.842C289.574 148.422 289.125 149.245 289.125 150.274C289.125 151.303 289.573 152.163 290.453 152.649C291.332 153.155 292.81 153.641 294.868 154.127C297.842 154.801 299.993 155.68 301.284 156.784C302.575 157.887 303.23 159.421 303.23 161.367C303.23 162.882 302.837 164.192 302.032 165.295C301.247 166.399 300.124 167.26 298.703 167.877C297.281 168.494 295.597 168.794 293.689 168.794H293.67Z" fill="white"/>
<path d="M316.137 168.813C314.454 168.813 312.976 168.513 311.741 167.896C310.488 167.279 309.534 166.4 308.841 165.277C308.168 164.155 307.812 162.827 307.812 161.274C307.812 160.002 308.131 158.861 308.785 157.813C309.44 156.765 310.45 155.905 311.853 155.213C313.256 154.521 315.052 154.053 317.278 153.828C319.504 153.585 322.18 153.641 325.322 153.959L325.453 157.233C323.021 156.915 320.945 156.784 319.243 156.859C317.54 156.934 316.156 157.158 315.108 157.532C314.061 157.907 313.275 158.412 312.789 159.048C312.302 159.665 312.04 160.376 312.04 161.143C312.04 162.396 312.489 163.369 313.387 164.08C314.285 164.791 315.52 165.146 317.091 165.146C318.438 165.146 319.635 164.903 320.702 164.398C321.768 163.912 322.61 163.219 323.227 162.34C323.845 161.461 324.163 160.432 324.163 159.272V152.612C324.163 151.49 323.919 150.517 323.414 149.694C322.928 148.871 322.198 148.235 321.244 147.767C320.29 147.318 319.112 147.094 317.727 147.094C316.474 147.094 315.239 147.281 314.005 147.655C312.77 148.029 311.591 148.628 310.45 149.47L309.085 146.009C310.562 144.999 312.078 144.288 313.649 143.895C315.221 143.483 316.736 143.278 318.176 143.278C320.365 143.278 322.236 143.614 323.77 144.306C325.304 144.999 326.482 146.028 327.305 147.412C328.11 148.796 328.521 150.517 328.521 152.575V168.083H324.406V165.165C323.583 166.343 322.441 167.26 320.982 167.877C319.523 168.495 317.896 168.813 316.118 168.813H316.137ZM315.763 139.63L320.29 131.268H324.892L319.935 139.63H315.782H315.763Z" fill="white"/>
<path d="M344.36 179.026C342.582 179.026 340.974 178.858 339.552 178.54C338.13 178.222 336.914 177.754 335.923 177.174C334.931 176.595 334.145 175.865 333.622 175.023C333.098 174.181 332.836 173.246 332.836 172.198C332.836 171.338 333.06 170.552 333.509 169.823C333.958 169.093 334.632 168.476 335.53 167.952C336.428 167.428 337.531 167.017 338.841 166.755C337.887 166.287 337.157 165.744 336.69 165.164C336.222 164.566 335.979 163.892 335.979 163.107C335.979 162.433 336.166 161.816 336.559 161.255C336.952 160.693 337.494 160.17 338.205 159.702C338.916 159.234 339.758 158.86 340.73 158.561C341.703 158.262 342.788 158.074 343.985 157.981L345.07 160.076C344.042 160.076 343.144 160.17 342.377 160.338C341.628 160.525 341.048 160.768 340.618 161.105C340.188 161.442 340.001 161.835 340.001 162.284C340.001 162.901 340.338 163.331 341.03 163.593C341.722 163.836 342.657 164.023 343.817 164.117L347.895 164.435C349.916 164.603 351.637 164.921 353.058 165.426C354.48 165.931 355.546 166.624 356.295 167.522C357.043 168.42 357.417 169.542 357.417 170.908C357.417 172.067 357.099 173.134 356.482 174.125C355.864 175.117 354.966 175.977 353.825 176.707C352.665 177.436 351.3 178.016 349.691 178.428C348.082 178.839 346.305 179.045 344.36 179.045V179.026ZM344.584 160.469C342.638 160.469 340.88 160.095 339.327 159.347C337.756 158.598 336.521 157.569 335.605 156.297C334.688 155.025 334.239 153.585 334.239 151.995C334.239 150.405 334.707 149.002 335.605 147.711C336.521 146.439 337.775 145.41 339.346 144.661C340.917 143.913 342.676 143.539 344.603 143.539C346.53 143.539 348.307 143.913 349.859 144.661C351.431 145.41 352.665 146.439 353.582 147.711C354.499 148.983 354.948 150.423 354.948 151.995C354.948 153.566 354.48 155.025 353.582 156.297C352.665 157.569 351.431 158.598 349.878 159.347C348.325 160.095 346.567 160.469 344.603 160.469H344.584ZM344.696 175.771C347.278 175.771 349.298 175.379 350.776 174.574C352.254 173.788 352.984 172.76 352.984 171.506C352.984 170.552 352.478 169.804 351.468 169.261C350.458 168.719 348.924 168.382 346.885 168.232L342.564 167.914C341.423 167.989 340.45 168.195 339.645 168.532C338.841 168.869 338.205 169.299 337.775 169.841C337.344 170.384 337.139 170.982 337.139 171.675C337.139 172.479 337.438 173.19 338.055 173.807C338.673 174.425 339.533 174.911 340.674 175.248C341.797 175.603 343.144 175.771 344.696 175.771ZM344.584 156.915C345.781 156.915 346.848 156.709 347.764 156.297C348.681 155.886 349.392 155.306 349.916 154.576C350.439 153.847 350.701 152.967 350.701 151.995C350.701 150.536 350.14 149.357 349.018 148.44C347.895 147.524 346.417 147.075 344.603 147.075C343.405 147.075 342.339 147.28 341.423 147.711C340.506 148.141 339.795 148.721 339.29 149.451C338.785 150.18 338.523 151.041 338.523 152.013C338.523 153.473 339.084 154.67 340.207 155.586C341.329 156.503 342.788 156.952 344.603 156.952L344.584 156.915ZM348.344 147.917L346.698 144.661L359.007 144.25L358.951 148.047L348.344 147.917Z" fill="white"/>
<path d="M371.993 168.813C369.86 168.813 368.12 168.383 366.736 167.522C365.351 166.662 364.323 165.539 363.63 164.174C362.957 162.789 362.602 161.312 362.602 159.74V144.251H367.073V158.786C367.073 160.545 367.596 161.948 368.663 163.033C369.729 164.118 371.188 164.641 373.059 164.641C374.256 164.641 375.341 164.361 376.314 163.818C377.287 163.276 378.054 162.49 378.634 161.499C379.213 160.507 379.494 159.347 379.494 158.038V144.251H383.965V168.084H379.85V165.165C378.858 166.362 377.698 167.279 376.389 167.896C375.061 168.514 373.601 168.813 371.974 168.813H371.993ZM368.289 139.78C367.503 139.78 366.792 139.499 366.193 138.938C365.595 138.377 365.295 137.666 365.295 136.805C365.295 136.244 365.426 135.739 365.707 135.29C365.988 134.841 366.343 134.504 366.792 134.242C367.241 133.999 367.746 133.868 368.27 133.868C369.074 133.868 369.785 134.149 370.365 134.691C370.964 135.234 371.244 135.945 371.244 136.805C371.244 137.385 371.113 137.909 370.833 138.358C370.552 138.807 370.197 139.144 369.748 139.405C369.299 139.649 368.794 139.78 368.27 139.78H368.289ZM378.259 139.78C377.474 139.78 376.763 139.499 376.164 138.938C375.566 138.377 375.266 137.666 375.266 136.805C375.266 136.244 375.397 135.739 375.678 135.29C375.958 134.841 376.314 134.504 376.763 134.242C377.212 133.999 377.717 133.868 378.241 133.868C379.045 133.868 379.756 134.149 380.336 134.691C380.935 135.234 381.215 135.945 381.215 136.805C381.215 137.385 381.084 137.909 380.804 138.358C380.523 138.807 380.168 139.144 379.719 139.405C379.27 139.649 378.765 139.78 378.241 139.78H378.259Z" fill="white"/>
<path d="M400.149 179.026C398.371 179.026 396.763 178.858 395.341 178.54C393.919 178.222 392.703 177.754 391.712 177.174C390.72 176.595 389.934 175.865 389.411 175.023C388.887 174.181 388.625 173.246 388.625 172.198C388.625 171.338 388.849 170.552 389.298 169.823C389.747 169.093 390.421 168.476 391.319 167.952C392.217 167.428 393.32 167.017 394.63 166.755C393.676 166.287 392.946 165.744 392.479 165.164C392.011 164.566 391.768 163.892 391.768 163.107C391.768 162.433 391.955 161.816 392.348 161.255C392.741 160.693 393.283 160.17 393.994 159.702C394.705 159.234 395.547 158.86 396.519 158.561C397.492 158.262 398.577 158.074 399.774 157.981L400.859 160.076C399.831 160.076 398.933 160.17 398.166 160.338C397.417 160.525 396.837 160.768 396.407 161.105C395.977 161.442 395.79 161.835 395.79 162.284C395.79 162.901 396.127 163.331 396.819 163.593C397.511 163.836 398.446 164.023 399.606 164.117L403.684 164.435C405.705 164.603 407.426 164.921 408.847 165.426C410.269 165.931 411.335 166.624 412.084 167.522C412.832 168.42 413.206 169.542 413.206 170.908C413.206 172.067 412.888 173.134 412.271 174.125C411.653 175.117 410.756 175.977 409.614 176.707C408.455 177.436 407.089 178.016 405.48 178.428C403.871 178.839 402.094 179.045 400.149 179.045V179.026ZM400.373 160.469C398.428 160.469 396.669 160.095 395.116 159.347C393.545 158.598 392.31 157.569 391.394 156.297C390.477 155.025 390.028 153.585 390.028 151.995C390.028 150.405 390.496 149.002 391.394 147.711C392.31 146.439 393.564 145.41 395.135 144.661C396.706 143.913 398.465 143.539 400.392 143.539C402.319 143.539 404.096 143.913 405.648 144.661C407.22 145.41 408.455 146.439 409.371 147.711C410.288 148.983 410.737 150.423 410.737 151.995C410.737 153.566 410.269 155.025 409.371 156.297C408.455 157.569 407.22 158.598 405.667 159.347C404.115 160.095 402.356 160.469 400.392 160.469H400.373ZM400.485 175.771C403.067 175.771 405.087 175.379 406.565 174.574C408.043 173.788 408.773 172.76 408.773 171.506C408.773 170.552 408.267 169.804 407.257 169.261C406.247 168.719 404.713 168.382 402.674 168.232L398.353 167.914C397.212 167.989 396.239 168.195 395.434 168.532C394.63 168.869 393.994 169.299 393.564 169.841C393.133 170.384 392.928 170.982 392.928 171.675C392.928 172.479 393.227 173.19 393.844 173.807C394.462 174.425 395.322 174.911 396.463 175.248C397.586 175.603 398.933 175.771 400.485 175.771ZM400.373 156.915C401.57 156.915 402.637 156.709 403.553 156.297C404.47 155.886 405.181 155.306 405.705 154.576C406.228 153.847 406.49 152.967 406.49 151.995C406.49 150.536 405.929 149.357 404.807 148.44C403.684 147.524 402.206 147.075 400.392 147.075C399.195 147.075 398.128 147.28 397.212 147.711C396.295 148.141 395.584 148.721 395.079 149.451C394.574 150.18 394.312 151.041 394.312 152.013C394.312 153.473 394.873 154.67 395.996 155.586C397.118 156.503 398.577 156.952 400.392 156.952L400.373 156.915ZM404.133 147.917L402.487 144.661L414.796 144.25L414.74 148.047L404.133 147.917Z" fill="white"/>
<path d="M421.23 179.008C420.444 179.008 419.677 178.914 418.91 178.727C418.143 178.54 417.376 178.204 416.609 177.736L417.657 173.864C418.162 174.182 418.705 174.425 419.285 174.593C419.864 174.761 420.388 174.836 420.837 174.836C422.034 174.836 422.97 174.537 423.643 173.957C424.317 173.377 424.841 172.479 425.252 171.282L426.206 168.551L416.778 144.231H421.698L428.75 163.444L435.635 144.231H440.386L429.948 171.862C429.237 173.733 428.451 175.192 427.572 176.221C426.711 177.25 425.757 177.96 424.71 178.372C423.662 178.784 422.521 178.989 421.249 178.989L421.23 179.008Z" fill="white"/>
<path d="M447.027 139.741C446.185 139.741 445.456 139.461 444.839 138.881C444.221 138.32 443.922 137.59 443.922 136.711C443.922 135.832 444.24 135.121 444.839 134.56C445.437 133.998 446.185 133.718 447.027 133.718C447.869 133.718 448.617 133.998 449.235 134.56C449.852 135.121 450.151 135.832 450.151 136.711C450.151 137.59 449.852 138.301 449.235 138.881C448.617 139.442 447.888 139.741 447.027 139.741ZM444.801 168.083V144.25H449.272V168.083H444.801Z" fill="white"/>
<path d="M469.867 168.083V134.036H490.445V138.245H474.45V148.946H488.986V153.061H474.45V168.083H469.886H469.867Z" fill="white"/>
<path d="M504.699 168.813C502.23 168.813 500.041 168.233 498.114 167.091C496.187 165.95 494.672 164.416 493.568 162.49C492.464 160.581 491.922 158.468 491.922 156.167C491.922 154.464 492.24 152.855 492.876 151.321C493.512 149.787 494.391 148.44 495.551 147.281C496.711 146.102 498.058 145.185 499.611 144.512C501.163 143.839 502.866 143.521 504.718 143.521C507.206 143.521 509.394 144.1 511.34 145.242C513.285 146.383 514.782 147.917 515.886 149.844C516.989 151.752 517.532 153.866 517.532 156.167C517.532 157.869 517.214 159.478 516.578 161.012C515.942 162.546 515.063 163.874 513.903 165.052C512.743 166.212 511.396 167.148 509.843 167.821C508.291 168.495 506.57 168.831 504.718 168.831L504.699 168.813ZM504.699 164.772C506.308 164.772 507.729 164.416 508.964 163.706C510.199 162.995 511.172 162.003 511.901 160.712C512.612 159.422 512.967 157.906 512.967 156.148C512.967 154.389 512.612 152.855 511.901 151.565C511.19 150.274 510.217 149.282 508.964 148.59C507.711 147.898 506.289 147.543 504.68 147.543C503.071 147.543 501.65 147.898 500.415 148.59C499.18 149.282 498.207 150.274 497.497 151.565C496.786 152.855 496.43 154.389 496.43 156.148C496.43 157.906 496.786 159.422 497.497 160.712C498.207 162.003 499.18 162.995 500.434 163.706C501.687 164.416 503.109 164.772 504.699 164.772Z" fill="white"/>
<path d="M522.156 168.083V144.25H526.627V147.711C527.581 146.158 528.722 145.055 530.051 144.437C531.379 143.82 532.782 143.502 534.278 143.502C534.746 143.502 535.195 143.521 535.644 143.577C536.074 143.633 536.505 143.689 536.935 143.764L536.28 148.403C535.831 148.272 535.363 148.179 534.896 148.104C534.428 148.029 533.96 147.992 533.511 147.992C531.51 147.992 529.882 148.609 528.592 149.862C527.301 151.097 526.665 152.762 526.665 154.838V168.083H522.194H522.156Z" fill="white"/>
<path d="M550.027 168.813C547.67 168.813 545.594 168.252 543.798 167.129C541.983 166.007 540.58 164.492 539.57 162.602C538.56 160.694 538.055 158.561 538.055 156.167C538.055 154.408 538.354 152.781 538.934 151.247C539.514 149.732 540.337 148.385 541.403 147.225C542.47 146.065 543.742 145.148 545.201 144.494C546.679 143.839 548.306 143.502 550.083 143.502C552.366 143.502 554.33 143.97 555.957 144.887C557.585 145.803 558.932 147.057 559.979 148.609L559.081 149.601V133.045H563.553V168.065H559.437V162.471L560.092 163.5C559.175 165.034 557.903 166.287 556.294 167.298C554.685 168.308 552.59 168.813 550.027 168.813ZM550.832 164.772C552.441 164.772 553.862 164.417 555.097 163.706C556.332 162.995 557.304 162.004 558.034 160.713C558.745 159.422 559.1 157.907 559.1 156.148C559.1 154.39 558.745 152.856 558.034 151.565C557.323 150.274 556.35 149.283 555.097 148.591C553.844 147.898 552.422 147.543 550.813 147.543C549.204 147.543 547.782 147.898 546.548 148.591C545.313 149.283 544.34 150.274 543.629 151.565C542.919 152.856 542.563 154.39 542.563 156.148C542.563 157.907 542.919 159.422 543.629 160.713C544.34 162.004 545.313 162.995 546.566 163.706C547.82 164.417 549.242 164.772 550.832 164.772Z" fill="white"/>
<path d="M570.211 139.63L574.196 131.268H578.798L574.327 139.63H570.211ZM570.304 168.083V144.25H574.775V168.083H570.304Z" fill="white"/>
<path d="M579.531 148.048V144.25H585.667V148.048H579.531ZM592.364 168.813C590.138 168.813 588.361 168.158 586.995 166.867C585.63 165.576 584.956 163.575 584.956 160.862V137.254H589.427V144.25H596.405V148.048H589.427V159.74C589.427 161.554 589.745 162.827 590.419 163.575C591.074 164.304 592.028 164.679 593.3 164.679C593.861 164.679 594.403 164.622 594.909 164.491C595.414 164.361 595.863 164.192 596.255 163.986L597.172 167.653C596.499 168.008 595.75 168.289 594.909 168.514C594.067 168.719 593.206 168.832 592.327 168.832L592.364 168.813Z" fill="white"/>
<path d="M612.644 168.813C610.175 168.813 607.986 168.233 606.059 167.092C604.132 165.951 602.617 164.417 601.513 162.49C600.41 160.582 599.867 158.468 599.867 156.167C599.867 154.464 600.185 152.856 600.821 151.322C601.457 149.788 602.337 148.441 603.496 147.281C604.656 146.102 606.003 145.186 607.556 144.512C609.108 143.839 610.811 143.521 612.663 143.521C615.151 143.521 617.34 144.101 619.285 145.242C621.231 146.383 622.727 147.917 623.831 149.844C624.935 151.752 625.477 153.866 625.477 156.167C625.477 157.869 625.159 159.478 624.523 161.012C623.887 162.546 623.008 163.874 621.848 165.053C620.688 166.213 619.341 167.148 617.789 167.821C616.236 168.495 614.515 168.831 612.663 168.831L612.644 168.813ZM612.644 164.772C614.253 164.772 615.675 164.417 616.909 163.706C618.144 162.995 619.117 162.003 619.846 160.713C620.557 159.422 620.913 157.907 620.913 156.148C620.913 154.39 620.557 152.856 619.846 151.565C619.136 150.274 618.163 149.283 616.909 148.59C615.656 147.898 614.234 147.543 612.625 147.543C611.017 147.543 609.595 147.898 608.36 148.59C607.126 149.283 606.153 150.274 605.442 151.565C604.731 152.856 604.376 154.39 604.376 156.148C604.376 157.907 604.731 159.422 605.442 160.713C606.153 162.003 607.126 162.995 608.379 163.706C609.632 164.417 611.054 164.772 612.644 164.772ZM610.268 139.63L614.795 131.268H619.397L614.44 139.63H610.287H610.268Z" fill="white"/>
<path d="M630.117 168.083V133.063H634.588V154.539L644.728 144.25H650.078L641.641 153.192L651.499 168.083H646.093L638.386 156.092L634.588 159.908V168.083H630.117Z" fill="white"/>
<path d="M664.761 168.813C662.292 168.813 660.103 168.233 658.176 167.092C656.25 165.951 654.734 164.417 653.631 162.49C652.527 160.582 651.984 158.468 651.984 156.167C651.984 154.465 652.302 152.856 652.938 151.322C653.574 149.788 654.454 148.441 655.614 147.281C656.773 146.103 658.12 145.186 659.673 144.513C661.226 143.839 662.928 143.521 664.78 143.521C667.268 143.521 669.457 144.101 671.402 145.242C673.348 146.383 674.844 147.917 675.948 149.844C677.052 151.752 677.594 153.866 677.594 156.167C677.594 157.869 677.276 159.478 676.64 161.012C676.004 162.546 675.125 163.874 673.965 165.053C672.805 166.213 671.459 167.148 669.906 167.822C668.353 168.495 666.632 168.832 664.78 168.832L664.761 168.813ZM664.761 164.772C666.37 164.772 667.792 164.417 669.027 163.706C670.261 162.995 671.234 162.004 671.964 160.713C672.675 159.422 673.03 157.907 673.03 156.148C673.03 154.39 672.675 152.856 671.964 151.565C671.253 150.274 670.28 149.283 669.027 148.591C667.773 147.899 666.351 147.543 664.743 147.543C663.134 147.543 661.712 147.899 660.477 148.591C659.243 149.283 658.27 150.274 657.559 151.565C656.848 152.856 656.493 154.39 656.493 156.148C656.493 157.907 656.848 159.422 657.559 160.713C658.27 162.004 659.243 162.995 660.496 163.706C661.75 164.417 663.171 164.772 664.761 164.772ZM659.785 139.78C659 139.78 658.289 139.499 657.69 138.938C657.091 138.377 656.792 137.666 656.792 136.805C656.792 136.244 656.923 135.739 657.204 135.29C657.484 134.841 657.84 134.504 658.289 134.242C658.738 133.999 659.243 133.868 659.767 133.868C660.571 133.868 661.282 134.149 661.862 134.691C662.46 135.234 662.741 135.945 662.741 136.805C662.741 137.385 662.61 137.909 662.329 138.358C662.049 138.807 661.693 139.144 661.244 139.405C660.795 139.649 660.29 139.78 659.767 139.78H659.785ZM669.756 139.78C668.97 139.78 668.26 139.499 667.661 138.938C667.062 138.377 666.763 137.666 666.763 136.805C666.763 136.244 666.894 135.739 667.175 135.29C667.455 134.841 667.811 134.504 668.278 134.242C668.727 133.999 669.232 133.868 669.756 133.868C670.561 133.868 671.271 134.149 671.851 134.691C672.45 135.234 672.731 135.945 672.731 136.805C672.731 137.385 672.6 137.909 672.319 138.358C672.038 138.807 671.683 139.144 671.234 139.405C670.785 139.649 670.28 139.78 669.756 139.78Z" fill="white"/>
<path d="M681.617 168.083V164.753L694.637 148.272H681.842V144.25H700.137V147.58L687.323 164.042H700.343V168.083H681.636H681.617Z" fill="white"/>
<path d="M705.523 178.297V144.25H709.639V147.823C710.63 146.551 711.865 145.522 713.38 144.718C714.877 143.913 716.766 143.521 719.067 143.521C721.368 143.521 723.52 144.082 725.316 145.185C727.111 146.289 728.514 147.804 729.543 149.713C730.554 151.621 731.059 153.772 731.059 156.167C731.059 157.906 730.778 159.534 730.198 161.068C729.618 162.602 728.795 163.949 727.729 165.109C726.662 166.268 725.39 167.185 723.931 167.84C722.472 168.495 720.826 168.831 719.03 168.831C717.028 168.831 715.27 168.457 713.773 167.709C712.277 166.961 711.023 165.969 710.013 164.734V178.334H705.561L705.523 178.297ZM718.244 164.772C719.853 164.772 721.275 164.416 722.509 163.706C723.744 162.995 724.717 162.003 725.428 160.712C726.139 159.422 726.494 157.906 726.494 156.148C726.494 154.389 726.139 152.855 725.428 151.565C724.717 150.274 723.744 149.282 722.509 148.59C721.275 147.898 719.853 147.543 718.244 147.543C716.635 147.543 715.214 147.898 713.979 148.59C712.744 149.282 711.753 150.274 711.042 151.565C710.331 152.855 709.976 154.389 709.976 156.148C709.976 157.906 710.331 159.422 711.042 160.712C711.753 162.003 712.726 162.995 713.979 163.706C715.214 164.416 716.635 164.772 718.244 164.772Z" fill="white"/>
<path d="M747.574 168.813C745.104 168.813 742.916 168.233 740.989 167.091C739.062 165.95 737.547 164.416 736.443 162.49C735.339 160.581 734.797 158.468 734.797 156.167C734.797 154.464 735.115 152.855 735.751 151.321C736.387 149.787 737.266 148.44 738.426 147.281C739.586 146.102 740.933 145.185 742.485 144.512C744.038 143.839 745.741 143.521 747.593 143.521C750.081 143.521 752.269 144.1 754.215 145.242C756.16 146.383 757.657 147.917 758.761 149.844C759.864 151.752 760.407 153.866 760.407 156.167C760.407 157.869 760.089 159.478 759.453 161.012C758.817 162.546 757.938 163.874 756.778 165.052C755.618 166.212 754.271 167.148 752.718 167.821C751.166 168.495 749.445 168.831 747.593 168.831L747.574 168.813ZM747.574 164.772C749.183 164.772 750.604 164.416 751.839 163.706C753.074 162.995 754.046 162.003 754.776 160.712C755.487 159.422 755.842 157.906 755.842 156.148C755.842 154.389 755.487 152.855 754.776 151.565C754.065 150.274 753.092 149.282 751.839 148.59C750.586 147.898 749.164 147.543 747.555 147.543C745.946 147.543 744.525 147.898 743.29 148.59C742.055 149.282 741.082 150.274 740.372 151.565C739.661 152.855 739.305 154.389 739.305 156.148C739.305 157.906 739.661 159.422 740.372 160.712C741.082 162.003 742.055 162.995 743.309 163.706C744.562 164.416 745.984 164.772 747.574 164.772Z" fill="white"/>
<path d="M764.055 168.083V144.25H768.526V147.468C769.555 146.065 770.733 145.073 772.099 144.456C773.464 143.838 774.849 143.539 776.289 143.539C778.44 143.539 780.236 143.969 781.658 144.849C783.08 145.709 784.146 146.832 784.838 148.16C785.549 149.507 785.905 150.891 785.905 152.294V168.102H781.434V153.678C781.434 151.882 780.872 150.423 779.75 149.338C778.628 148.253 777.112 147.692 775.185 147.692C773.913 147.692 772.791 147.973 771.799 148.534C770.808 149.095 770.004 149.881 769.424 150.91C768.844 151.939 768.544 153.098 768.544 154.445V168.12H764.073L764.055 168.083Z" fill="white"/>
<path d="M788.938 148.048V144.25H795.073V148.048H788.938ZM801.771 168.813C799.544 168.813 797.767 168.158 796.402 166.867C795.036 165.576 794.363 163.575 794.363 160.862V137.254H798.834V144.25H805.811V148.048H798.834V159.74C798.834 161.554 799.152 162.827 799.825 163.575C800.48 164.304 801.434 164.679 802.706 164.679C803.267 164.679 803.81 164.622 804.315 164.491C804.82 164.361 805.269 164.192 805.662 163.986L806.578 167.653C805.905 168.008 805.157 168.289 804.315 168.514C803.473 168.719 802.612 168.832 801.733 168.832L801.771 168.813Z" fill="white"/>
<path d="M823.133 168.083V164.248L841.316 138.245H823.694V134.036H846.816V137.852L828.689 163.874H846.984V168.083H823.133Z" fill="white"/>
<path d="M852.953 168.083V144.25H857.424V147.711C858.378 146.158 859.519 145.055 860.848 144.437C862.176 143.82 863.579 143.502 865.075 143.502C865.543 143.502 865.992 143.521 866.441 143.577C866.871 143.633 867.301 143.689 867.732 143.764L867.077 148.403C866.628 148.272 866.16 148.179 865.693 148.104C865.225 148.029 864.757 147.992 864.308 147.992C862.307 147.992 860.679 148.609 859.388 149.862C858.098 151.097 857.461 152.762 857.461 154.838V168.083H852.991H852.953Z" fill="white"/>
<path d="M870.484 148.048V144.25H876.62V148.048H870.484ZM883.317 168.813C881.091 168.813 879.314 168.158 877.949 166.867C876.583 165.576 875.909 163.575 875.909 160.862V137.254H880.38V144.25H887.358V148.048H880.38V159.74C880.38 161.554 880.698 162.827 881.372 163.575C882.027 164.304 882.981 164.679 884.253 164.679C884.814 164.679 885.357 164.622 885.862 164.491C886.367 164.361 886.816 164.192 887.209 163.986L888.125 167.653C887.452 168.008 886.703 168.289 885.862 168.514C885.02 168.719 884.159 168.832 883.28 168.832L883.317 168.813Z" fill="white"/>
<path d="M896.58 168.813C895.644 168.813 894.84 168.514 894.166 167.915C893.493 167.316 893.156 166.531 893.156 165.558C893.156 164.903 893.306 164.342 893.605 163.855C893.905 163.369 894.316 162.995 894.84 162.714C895.364 162.434 895.944 162.303 896.58 162.303C897.534 162.303 898.338 162.602 899.012 163.201C899.685 163.799 900.003 164.585 900.003 165.558C900.003 166.213 899.853 166.774 899.535 167.26C899.217 167.747 898.806 168.121 898.301 168.401C897.796 168.682 897.216 168.813 896.58 168.813Z" fill="white"/>
<path d="M148.946 88.9335H144.774C144.475 88.9335 144.213 88.7464 144.101 88.4658L137.703 71.0869C137.703 71.0869 137.703 71.0495 137.703 71.0307C137.703 70.9746 137.703 70.9372 137.684 70.8811C137.684 70.8624 137.684 70.8437 137.666 70.8437C137.666 70.8063 137.628 70.7688 137.61 70.7314C137.591 70.694 137.554 70.6566 137.535 70.6192C137.516 70.5818 137.46 70.5631 137.423 70.5444C137.385 70.5257 137.348 70.4882 137.31 70.4695C137.273 70.4695 137.254 70.4695 137.217 70.4321C137.161 70.4321 137.105 70.3947 137.03 70.3947C137.011 70.3947 136.992 70.3947 136.955 70.3947C136.917 70.3947 136.861 70.3947 136.805 70.4134L124.459 74.4167C124.197 74.5103 123.935 74.4167 123.785 74.1923C123.673 74.0426 123.561 73.9116 123.448 73.7807C122.906 73.2195 122.195 72.9015 121.447 72.7892C121.54 71.1056 122.27 69.4593 122.55 67.8131C122.681 67.0835 122.737 66.354 122.7 65.6057C122.663 64.1278 121.783 62.6687 121.578 61.1908C121.465 60.3677 121.391 59.5446 121.409 58.7215C121.409 58.7215 121.409 58.7215 121.409 58.7028L125.132 53.1467V47.9462C125.132 47.1792 124.496 46.5431 123.71 46.5431H121.914V26.7884C121.914 19.5674 116.04 13.6934 108.819 13.6934H77.672C77.5785 11.1866 76.5683 8.7173 74.417 7.31427C69.8898 4.35854 70.7878 -0.842039 60.9104 0.07461C51.0331 -0.842039 51.931 4.35854 47.4039 7.31427C45.2525 8.7173 44.2424 11.1866 44.1488 13.6934H13.095C5.87404 13.6934 0 19.5674 0 26.7884V127.582C0 151.004 13.4504 159.067 29.3328 165.371C31.7273 166.325 34.1966 167.242 36.666 168.158C43.8495 170.815 51.2949 173.583 57.805 177.587C58.0108 177.699 58.2166 177.848 58.4224 177.961L60.9478 179.551L63.1553 178.166L63.4546 177.979C70.1143 173.77 77.7842 170.927 85.211 168.177C85.2858 168.158 85.3606 168.121 85.4168 168.102C87.0443 167.503 88.6531 166.905 90.2432 166.287C90.9915 166.007 91.7211 165.726 92.4506 165.427C108.389 159.123 121.877 151.079 121.877 127.601V79.7483C122.438 79.5799 122.962 79.2806 123.392 78.8503C124.103 78.1395 124.421 77.2415 124.421 76.3249C124.421 76.063 124.589 75.8572 124.833 75.7824L135.14 72.4338C135.421 72.3402 135.683 72.6021 135.589 72.8828L129.846 88.4471C129.753 88.7277 129.472 88.9148 129.173 88.9148H125.001C124.627 88.9148 124.29 89.2141 124.29 89.6069C124.29 92.0389 124.964 94.3959 126.273 96.3976C128.593 100.083 132.596 102.272 136.955 102.272C143.951 102.272 149.62 96.5847 149.62 89.5882C149.62 89.2141 149.302 88.8961 148.909 88.8961L148.946 88.9335ZM76.7741 18.3141C77.1108 17.5845 77.354 16.7988 77.5036 15.9757H108.819C114.806 15.9757 119.67 20.8395 119.67 26.8258V46.5805H117.687C117.219 46.5805 116.77 46.805 116.508 47.2166L115.011 49.4427C114.862 49.6672 114.787 49.9478 114.787 50.2284V56.9443L96.9029 71.461L89.2704 50.0601C88.5221 47.9462 85.1174 44.0177 78.308 44.0177H69.5344C67.9817 44.0177 66.56 42.7456 66.56 41.1929V34.5331C68.1875 33.1114 69.5157 31.2407 70.133 29.1829L71.4799 24.6184C73.5003 22.4483 74.6789 21.7562 75.7639 20.2222C76.0258 19.848 76.2877 19.4178 76.5496 18.9127C76.6431 18.7443 76.7179 18.576 76.8115 18.3889L76.7741 18.3141ZM60.9104 67.5512C46.1692 59.8813 39.7714 45.6826 39.5656 45.2336C39.8462 45.5516 48.6947 55.9528 60.9104 61.0786C66.7283 63.5292 73.2945 64.7826 80.0478 63.1738L77.0173 72.1719C70.8065 71.6481 65.4563 69.9083 60.9104 67.5512ZM72.9017 87.942L82.3114 105.321C72.7707 104.18 65.8491 102.01 60.8917 99.5778C50.4531 94.4895 48.5637 88.2413 48.4889 87.942C48.7508 88.1104 54.2694 91.3467 60.8917 91.646C64.7828 91.8331 69.0667 91.01 72.9017 87.9233V87.942ZM76.269 13.8992C76.1754 15.9944 75.4459 18.1644 75.2027 18.8379C75.1465 18.9875 75.1278 19.0623 75.1278 19.0623C75.1278 18.9875 75.1278 18.9127 75.1278 18.8379C75.0904 15.8447 74.2673 14.3107 73.1636 13.3005C71.1806 11.5047 68.2436 11.3924 67.1399 7.63229C67.1399 7.63229 68.9545 9.2224 72.565 9.2224C75.689 9.2224 76.3812 11.5047 76.2877 13.8805L76.269 13.8992ZM60.9104 1.42152C62.0141 1.32799 66.6909 1.06609 68.0191 2.91809C71.4425 7.72583 73.3694 8.02514 73.3694 8.02514C65.9052 8.02514 66.0362 1.6273 60.9104 1.44023C60.8356 1.44023 60.7608 1.44023 60.6859 1.44023C60.6859 1.44023 60.7795 1.44023 60.9104 1.44023V1.42152ZM2.24486 127.639V26.8258C2.24486 20.8395 7.10871 15.9757 13.095 15.9757H44.2985C44.4481 16.7988 44.6913 17.5845 45.0281 18.3141C45.1029 18.5011 45.1964 18.6695 45.29 18.8379C45.5519 19.3617 45.8138 19.7732 46.0757 20.1474C47.1607 21.6813 48.3392 22.3922 50.3596 24.5435L51.7065 29.1081C52.3238 31.1659 53.6521 33.0366 55.2609 34.4583V41.1181C55.2609 42.6894 53.8578 43.9428 52.3051 43.9428H40.2016C34.814 43.9428 30.8481 47.1979 30.53 51.4444L29.3702 80.9268L18.2207 126.105V135.178C18.2207 136.3 19.4741 136.973 20.4282 136.337L25.3856 132.989C26.2648 132.409 26.7325 131.38 26.6202 130.332L25.1798 117.892L37.8445 87.7736C38.1813 86.9692 38.3683 86.1274 38.4057 85.2482L39.154 60.2554L47.5161 86.5577C47.6284 87.1563 39.4533 101.579 37.7697 104.404C37.5639 104.741 37.433 105.096 37.3956 105.489L29.6882 163.07C14.7599 157.084 2.28227 149.283 2.28227 127.601L2.24486 127.639ZM60.9478 176.932L59.6383 176.109C58.6656 175.491 57.6554 174.893 56.6452 174.332C44.9532 141.257 38.4993 111.476 38.1251 109.717C38.6863 111.513 48.4328 142.623 60.9104 172.835C61.3594 173.92 61.8271 175.024 62.276 176.109L60.9478 176.932ZM84.4627 166.082C84.1821 166.194 83.9202 166.287 83.6396 166.381C74.8285 157.851 67.2147 148.852 60.9104 140.509C47.0671 122.139 39.472 106.817 39.0605 105.976C39.5656 106.761 48.676 120.867 60.9104 133.325C68.9545 141.501 78.8693 149.077 87.9983 151.565L89.9065 164.005C88.1106 164.697 86.2773 165.39 84.444 166.063L84.4627 166.082ZM119.651 127.639C119.651 149.376 107.117 157.158 92.17 163.145L84.444 105.527C84.4066 105.153 84.2756 104.778 84.0698 104.442C82.3862 101.617 74.2112 87.2124 74.3234 86.5951L82.6855 60.2929L92.3571 83.2091C93.1428 85.0985 95.6121 85.5662 97.0152 84.0883L119.033 62.2571L120.268 60.4238C120.231 60.7044 120.212 60.9663 120.175 61.2469C119.969 62.7061 119.09 64.1839 119.052 65.6618C118.903 68.1311 120.1 70.4508 120.306 72.8453C119.576 72.9576 118.903 73.2943 118.36 73.8368C117.668 74.529 117.312 75.4456 117.331 76.3623C117.331 76.6055 117.163 76.83 116.92 76.9048L104.573 80.9081C104.573 80.9081 104.573 80.9081 104.535 80.9081C104.498 80.9081 104.461 80.9455 104.423 80.9829C104.386 81.0016 104.33 81.0204 104.311 81.0578C104.292 81.0765 104.274 81.0952 104.255 81.1139C104.217 81.17 104.18 81.2074 104.143 81.2635C104.105 81.3384 104.086 81.4319 104.068 81.5067L97.6325 98.9231C97.5203 99.2037 97.2584 99.3908 96.9591 99.3908H92.7874C92.4132 99.3908 92.0765 99.6901 92.0765 100.064C92.0765 102.496 92.7499 104.853 94.0594 106.855C96.3978 110.54 100.382 112.748 104.741 112.748C111.738 112.748 117.425 107.061 117.406 100.064C117.406 99.6901 117.069 99.3908 116.695 99.3908H112.523C112.224 99.3908 111.962 99.2037 111.85 98.9231L105.751 82.3673C105.677 82.1802 105.789 81.9744 105.976 81.9183L117.312 78.233C117.556 78.1395 117.836 78.233 117.986 78.4575C118.079 78.6071 118.192 78.7381 118.323 78.869C118.697 79.2432 119.146 79.5051 119.613 79.6921V127.639H119.651ZM110.802 101.729C110.84 101.355 111.139 101.056 111.513 101.056H113.833C114.244 101.056 114.562 101.43 114.544 101.841C114.151 106.93 109.904 110.952 104.704 110.952C104.068 110.952 103.432 110.896 102.833 110.783C107.192 109.96 110.522 106.275 110.821 101.748L110.802 101.729ZM101.748 99.054C101.617 99.2785 101.374 99.3908 101.131 99.3908H100.008C99.5219 99.3908 99.1665 98.9044 99.3349 98.4367L104.274 85.0237C104.311 87.0253 104.161 89.027 103.956 91.01C103.656 93.8722 103.226 96.5286 101.729 99.0353L101.748 99.054ZM109.549 99.4095H108.427C108.183 99.4095 107.94 99.2785 107.809 99.0727C107.154 97.9503 106.724 96.8279 106.387 95.7242C105.583 92.6375 105.415 89.5134 105.284 86.3706C105.284 85.9403 105.284 85.5101 105.284 85.0798L110.222 98.4741C110.409 98.9231 110.054 99.4282 109.568 99.4282L109.549 99.4095ZM137.497 74.5851L142.436 87.9794C142.604 88.4284 142.249 88.9335 141.763 88.9335H140.64C140.397 88.9335 140.154 88.8025 140.023 88.5967C139.349 87.4743 138.938 86.3519 138.601 85.2482C137.797 82.1615 137.628 79.0374 137.497 75.8946C137.497 75.4643 137.497 75.0341 137.497 74.5851ZM133.344 88.9335H132.222C131.736 88.9335 131.399 88.4471 131.549 87.9794L136.487 74.5664C136.525 76.5494 136.375 78.551 136.169 80.5527C135.87 83.4336 135.44 86.0713 133.943 88.578C133.812 88.8025 133.569 88.9148 133.326 88.9148L133.344 88.9335ZM137.123 100.401C136.487 100.401 135.87 100.326 135.253 100.214C139.593 99.3908 142.922 95.7055 143.24 91.197C143.278 90.8229 143.559 90.5236 143.951 90.5236H146.271C146.683 90.5236 147.001 90.879 146.982 91.3093C146.589 96.3976 142.343 100.42 137.142 100.42L137.123 100.401Z" fill="white"/>
<path d="M172.217 13.3564H164.734V68.767H172.217V13.3564Z" fill="#D61A1A"/>
<path d="M172.217 68.7666H164.734V124.177H172.217V68.7666Z" fill="white"/>
<path d="M172.217 124.178H164.734V179.588H172.217V124.178Z" fill="#0D7C49"/>
</g>
<defs>
<clipPath id="clip0_458_67">
<rect width="900" height="179.588" fill="white"/>
</clipPath>
</defs>
</svg>
