<svg width="659" height="384" viewBox="0 0 659 384" fill="none" xmlns="http://www.w3.org/2000/svg">
<g clip-path="url(#clip0_436_3)">
<path d="M215.161 106.98H210.151C209.791 106.98 209.491 106.77 209.341 106.41L201.631 85.5295C201.631 85.5295 201.631 85.4995 201.631 85.4695C201.631 85.4095 201.631 85.3495 201.631 85.2895C201.631 85.2895 201.631 85.2595 201.631 85.2295C201.631 85.1995 201.601 85.1395 201.571 85.1095C201.571 85.0495 201.511 85.0195 201.481 84.9895C201.481 84.9595 201.391 84.9295 201.361 84.8995C201.331 84.8995 201.271 84.8395 201.211 84.8095C201.181 84.8095 201.151 84.8095 201.091 84.7795C201.031 84.7795 200.971 84.7495 200.881 84.7495C200.881 84.7495 200.821 84.7495 200.791 84.7495C200.731 84.7495 200.671 84.7495 200.611 84.7495L185.761 89.5795C185.461 89.6995 185.131 89.5795 184.951 89.3095C184.831 89.1295 184.681 88.9795 184.531 88.8295C183.871 88.1695 183.031 87.7795 182.131 87.6295C182.251 85.6195 183.121 83.6095 183.451 81.6295C183.601 80.7595 183.661 79.8595 183.631 78.9895C183.601 77.2195 182.521 75.4495 182.281 73.6795C182.131 72.6895 182.071 71.6995 182.071 70.7095L186.541 64.0195V57.7795C186.541 56.8495 185.791 56.0995 184.831 56.0995H182.671V32.3395C182.671 23.6695 175.621 16.5895 166.921 16.5895H129.451C129.331 13.5895 128.131 10.6195 125.551 8.90951C120.121 5.33951 121.171 -0.900488 109.291 0.209512C97.4113 -0.900488 98.4913 5.36951 93.0613 8.90951C90.4813 10.5895 89.2513 13.5595 89.1313 16.5895H51.7813C43.0813 16.5895 36.0312 23.6695 36.0312 32.3395V153.57C36.0312 181.74 52.2013 191.43 71.3113 199.02C74.1913 200.16 77.1612 201.27 80.1313 202.38C88.7713 205.59 97.7113 208.89 105.541 213.72C105.781 213.87 106.051 214.02 106.291 214.17L109.321 216.09L111.991 214.41L112.351 214.17C120.361 209.1 129.601 205.68 138.511 202.38C138.601 202.38 138.691 202.32 138.751 202.29C140.701 201.57 142.651 200.85 144.571 200.1C145.471 199.77 146.341 199.41 147.211 199.08C166.381 191.49 182.611 181.8 182.611 153.6V96.0295C183.271 95.8195 183.931 95.4595 184.441 94.9495C185.281 94.1095 185.671 92.9995 185.671 91.9195C185.671 91.6195 185.881 91.3495 186.181 91.2595L198.571 87.2395C198.901 87.1195 199.231 87.4495 199.111 87.7795L192.211 106.5C192.091 106.83 191.761 107.07 191.401 107.07H186.391C185.941 107.07 185.551 107.43 185.551 107.91C185.551 110.82 186.361 113.67 187.921 116.07C190.711 120.51 195.541 123.15 200.761 123.15C209.161 123.15 216.001 116.31 216.001 107.91C216.001 107.46 215.611 107.07 215.161 107.07V106.98ZM128.341 22.0195C128.731 21.1495 129.031 20.1895 129.211 19.1995H166.861C174.061 19.1995 179.911 25.0495 179.911 32.2495V56.0095H177.511C176.941 56.0095 176.401 56.2795 176.101 56.7595L174.301 59.4295C174.121 59.6995 174.031 60.0295 174.031 60.3595V68.4295L152.521 85.8895L143.341 60.1495C142.441 57.5995 138.331 52.8895 130.171 52.8895H119.611C117.751 52.8895 116.041 51.3595 116.041 49.4995V41.4895C117.991 39.7795 119.611 37.5295 120.331 35.0395L121.951 29.5495C124.381 26.9395 125.791 26.0995 127.111 24.2695C127.411 23.8195 127.741 23.3095 128.041 22.6795C128.161 22.4695 128.251 22.2595 128.341 22.0495V22.0195ZM109.261 81.2395C91.5312 72.0295 83.8213 54.9295 83.5813 54.3895C83.9113 54.7795 94.5612 67.2895 109.261 73.4395C116.251 76.3795 124.141 77.8795 132.271 75.9595L128.641 86.7895C121.171 86.1595 114.751 84.0595 109.261 81.2395ZM123.691 105.78L135.001 126.69C123.511 125.31 115.201 122.7 109.231 119.79C96.6913 113.67 94.4113 106.14 94.3213 105.81C94.6513 106.02 101.281 109.92 109.231 110.28C113.911 110.49 119.071 109.5 123.661 105.81L123.691 105.78ZM127.711 16.7095C127.591 19.2295 126.721 21.8395 126.421 22.6495C126.361 22.8295 126.331 22.9195 126.331 22.9195C126.331 22.8295 126.331 22.7395 126.331 22.6495C126.301 19.0495 125.311 17.1895 123.961 15.9895C121.561 13.8295 118.051 13.6795 116.701 9.17951C116.701 9.17951 118.891 11.0995 123.241 11.0995C126.991 11.0995 127.831 13.8595 127.711 16.7095ZM109.261 1.70951C110.581 1.58951 116.221 1.28951 117.811 3.50951C121.921 9.29951 124.261 9.65951 124.261 9.65951C115.291 9.65951 115.441 1.97951 109.261 1.73951C109.171 1.73951 109.081 1.73951 108.991 1.73951C108.991 1.73951 109.111 1.73951 109.261 1.73951V1.70951ZM38.7012 153.51V32.2795C38.7012 25.0795 44.5512 19.2295 51.7513 19.2295H89.2813C89.4613 20.2195 89.7613 21.1795 90.1513 22.0495C90.2413 22.2595 90.3613 22.4695 90.4513 22.6795C90.7513 23.3095 91.0813 23.8195 91.3813 24.2695C92.7013 26.1295 94.1113 26.9695 96.5413 29.5495L98.1613 35.0395C98.9113 37.5295 100.501 39.7795 102.451 41.4895V49.4995C102.451 51.3895 100.771 52.8895 98.8813 52.8895H84.3313C77.8513 52.8895 73.0813 56.8195 72.6913 61.8895L71.3113 97.3495L57.9012 151.68V162.6C57.9012 163.95 59.4013 164.76 60.5413 164.01L66.5113 159.99C67.5613 159.3 68.1313 158.04 67.9813 156.78L66.2413 141.81L81.4813 105.6C81.9013 104.64 82.1113 103.62 82.1413 102.57L83.0413 72.5095L93.0913 104.16C93.2413 104.88 83.4013 122.22 81.3613 125.61C81.1213 126 80.9713 126.45 80.9113 126.9L71.6412 196.17C53.7012 188.97 38.6713 179.58 38.6713 153.51H38.7012ZM109.321 212.79L107.731 211.8C106.561 211.05 105.331 210.33 104.131 209.67C90.0613 169.89 82.3213 134.07 81.8713 131.94C82.5313 134.1 94.2613 171.51 109.291 207.84C109.831 209.16 110.401 210.48 110.941 211.77L109.351 212.76L109.321 212.79ZM137.581 199.77C137.251 199.89 136.921 200.01 136.591 200.13C126.001 189.87 116.851 179.04 109.261 169.02C92.6112 146.91 83.4613 128.49 82.9813 127.5C83.5813 128.46 94.5612 145.41 109.261 160.41C118.921 170.22 130.861 179.34 141.841 182.34L144.151 197.31C141.991 198.15 139.801 198.96 137.581 199.8V199.77ZM179.911 153.51C179.911 179.64 164.851 189 146.851 196.23L137.551 126.93C137.491 126.48 137.341 126.03 137.101 125.64C135.061 122.25 125.251 104.91 125.371 104.19L135.421 72.5395L147.061 100.11C147.991 102.39 150.961 102.96 152.671 101.16L179.161 74.8795L180.631 72.6595C180.601 72.9895 180.571 73.3195 180.511 73.6495C180.271 75.4195 179.221 77.1895 179.161 78.9595C178.981 81.9295 180.421 84.7195 180.661 87.5995C179.791 87.7495 178.981 88.1395 178.321 88.7995C177.481 89.6395 177.061 90.7495 177.091 91.8295C177.091 92.1295 176.881 92.3995 176.581 92.4895L161.731 97.3195C161.731 97.3195 161.731 97.3195 161.701 97.3195C161.641 97.3195 161.611 97.3795 161.581 97.4095C161.521 97.4095 161.461 97.4695 161.431 97.4995C161.431 97.4995 161.401 97.5595 161.371 97.5595C161.311 97.6195 161.281 97.6795 161.251 97.7395C161.221 97.8295 161.191 97.9495 161.161 98.0395L153.421 118.98C153.301 119.31 152.971 119.55 152.611 119.55H147.601C147.151 119.55 146.761 119.91 146.761 120.36C146.761 123.3 147.571 126.12 149.131 128.52C151.951 132.96 156.751 135.6 161.971 135.6C170.371 135.6 177.211 128.76 177.211 120.33C177.211 119.88 176.821 119.52 176.341 119.52H171.331C170.971 119.52 170.671 119.31 170.521 118.95L163.171 99.0295C163.081 98.8195 163.201 98.5495 163.441 98.4895L177.091 94.0495C177.391 93.9295 177.721 94.0495 177.901 94.3195C178.021 94.4995 178.141 94.6495 178.321 94.8295C178.771 95.2795 179.311 95.6095 179.881 95.8195V153.48L179.911 153.51ZM169.261 122.34C169.291 121.89 169.651 121.53 170.101 121.53H172.891C173.371 121.53 173.761 121.98 173.731 122.46C173.251 128.58 168.151 133.41 161.881 133.41C161.131 133.41 160.351 133.35 159.631 133.2C164.881 132.21 168.871 127.77 169.231 122.34H169.261ZM158.371 119.16C158.221 119.43 157.921 119.58 157.621 119.58H156.271C155.671 119.58 155.251 118.98 155.461 118.44L161.401 102.3C161.431 104.7 161.251 107.1 161.011 109.5C160.651 112.95 160.141 116.13 158.341 119.16H158.371ZM167.761 119.55H166.411C166.111 119.55 165.811 119.4 165.661 119.13C164.881 117.78 164.341 116.43 163.951 115.11C162.991 111.39 162.781 107.64 162.631 103.86C162.631 103.35 162.631 102.81 162.631 102.3L168.571 118.41C168.781 118.95 168.361 119.55 167.791 119.55H167.761ZM201.361 89.6995L207.301 105.81C207.511 106.35 207.091 106.95 206.491 106.95H205.141C204.841 106.95 204.541 106.8 204.391 106.53C203.581 105.18 203.071 103.83 202.681 102.51C201.721 98.7895 201.511 95.0395 201.361 91.2595C201.361 90.7495 201.361 90.2095 201.361 89.6995ZM196.381 106.98H195.031C194.431 106.98 194.041 106.38 194.221 105.84L200.161 89.7295C200.191 92.1295 200.041 94.5295 199.771 96.9295C199.411 100.38 198.901 103.56 197.101 106.59C196.951 106.86 196.651 107.01 196.351 107.01L196.381 106.98ZM200.911 120.75C200.161 120.75 199.411 120.66 198.661 120.54C203.881 119.55 207.901 115.11 208.261 109.68C208.291 109.23 208.651 108.87 209.101 108.87H211.891C212.401 108.87 212.761 109.29 212.731 109.8C212.251 115.92 207.151 120.75 200.881 120.75H200.911Z" fill="white"/>
<path d="M36.0078 270.24V240H42.9078L54.3978 259.08H51.5478L62.4678 240H69.3378V270.24H62.3778L62.4978 249.15L63.7878 249.6L55.0578 264.54H50.2878L41.2278 249.6L42.4578 249.15L42.5778 270.24H36.0078Z" fill="white"/>
<path d="M76.4844 270.24V240H83.6544V252.9L93.9144 240H102.854L91.6644 253.89L104.294 270.24H95.0844L86.9544 259.32L83.6844 263.07V270.27H76.5144L76.4844 270.24Z" fill="white"/>
<path d="M108.992 270.24V240H116.162V270.24H108.992Z" fill="white"/>
<path d="M124.156 270.24V240H144.076V246.54H131.326V252.78H142.726V259.08H131.326V270.24H124.156Z" fill="white"/>
<path d="M150.758 270.24V240H157.928V252.9L168.188 240H177.128L165.938 253.89L178.568 270.24H169.358L161.228 259.32L157.958 263.07V270.27H150.788L150.758 270.24Z" fill="white"/>
<path d="M36.5234 322.26V292.02H40.4834L53.0834 312.42H51.5234L63.7034 292.02H67.5434V322.26H63.5534V297.54L64.3934 297.81L53.5934 315.45H50.4734L39.5534 297.81L40.1834 297.54V322.26H36.5234Z" fill="white"/>
<path d="M80.0441 322.92C78.5441 322.92 77.2541 322.65 76.1441 322.11C75.0341 321.57 74.1641 320.79 73.5641 319.8C72.9641 318.81 72.6641 317.61 72.6641 316.26C72.6641 315.15 72.9641 314.1 73.5341 313.17C74.1041 312.24 75.0041 311.46 76.2641 310.86C77.4941 310.26 79.1141 309.84 81.0941 309.63C83.0741 309.42 85.4441 309.45 88.2341 309.75L88.3541 312.66C86.1941 312.36 84.3641 312.27 82.8341 312.33C81.3341 312.39 80.1041 312.6 79.1741 312.93C78.2441 313.26 77.5541 313.71 77.1041 314.28C76.6541 314.85 76.4441 315.45 76.4441 316.14C76.4441 317.25 76.8341 318.12 77.6441 318.75C78.4541 319.38 79.5341 319.68 80.9441 319.68C82.1441 319.68 83.1941 319.47 84.1541 319.02C85.1141 318.57 85.8341 317.97 86.4041 317.19C86.9441 316.41 87.2441 315.48 87.2441 314.46V308.55C87.2441 307.56 87.0341 306.69 86.5841 305.97C86.1341 305.25 85.5041 304.68 84.6641 304.26C83.8241 303.84 82.7741 303.66 81.5441 303.66C80.4341 303.66 79.3241 303.84 78.2441 304.17C77.1641 304.5 76.0841 305.04 75.0941 305.79L73.8941 302.73C75.2141 301.83 76.5641 301.2 77.9441 300.84C79.3541 300.48 80.6741 300.3 81.9641 300.3C83.9141 300.3 85.5641 300.6 86.9441 301.23C88.3241 301.83 89.3441 302.76 90.0641 303.99C90.7841 305.22 91.1441 306.75 91.1441 308.58V322.35H87.4841V319.77C86.7641 320.82 85.7441 321.63 84.4241 322.17C83.1041 322.71 81.6941 323.01 80.1041 323.01L80.0441 322.92Z" fill="white"/>
<path d="M105.136 331.98C103.546 331.98 102.136 331.83 100.876 331.56C99.6162 331.26 98.5363 330.87 97.6363 330.33C96.7363 329.79 96.0763 329.16 95.5963 328.41C95.1163 327.66 94.9062 326.82 94.9062 325.89C94.9062 325.14 95.1163 324.42 95.5063 323.79C95.8963 323.16 96.4963 322.59 97.3063 322.14C98.0863 321.66 99.0763 321.33 100.246 321.06C99.4063 320.64 98.7463 320.16 98.3263 319.65C97.9063 319.11 97.6963 318.51 97.6963 317.82C97.6963 317.22 97.8763 316.68 98.2063 316.17C98.5363 315.66 99.0463 315.21 99.6763 314.79C100.306 314.37 101.056 314.04 101.926 313.77C102.796 313.5 103.756 313.32 104.806 313.26L105.766 315.12C104.836 315.12 104.056 315.21 103.366 315.36C102.706 315.51 102.166 315.75 101.806 316.05C101.446 316.35 101.266 316.71 101.266 317.1C101.266 317.64 101.566 318.03 102.196 318.27C102.796 318.48 103.636 318.66 104.656 318.72L108.286 318.99C110.086 319.14 111.616 319.44 112.876 319.89C114.136 320.34 115.096 320.97 115.756 321.75C116.416 322.53 116.746 323.55 116.746 324.75C116.746 325.77 116.476 326.73 115.906 327.6C115.336 328.5 114.556 329.25 113.536 329.91C112.516 330.57 111.286 331.08 109.876 331.44C108.466 331.8 106.876 331.98 105.136 331.98ZM105.346 315.51C103.606 315.51 102.046 315.18 100.666 314.52C99.2863 313.86 98.1763 312.96 97.3663 311.82C96.5563 310.68 96.1363 309.42 96.1363 308.01C96.1363 306.6 96.5563 305.34 97.3663 304.2C98.1763 303.06 99.2863 302.16 100.696 301.5C102.106 300.84 103.636 300.51 105.376 300.51C107.116 300.51 108.676 300.84 110.056 301.5C111.436 302.16 112.546 303.06 113.356 304.2C114.166 305.34 114.586 306.6 114.586 308.01C114.586 309.42 114.166 310.71 113.356 311.82C112.546 312.96 111.436 313.86 110.056 314.52C108.676 315.18 107.116 315.51 105.376 315.51H105.346ZM105.436 329.1C107.716 329.1 109.516 328.74 110.836 328.05C112.156 327.33 112.816 326.43 112.816 325.32C112.816 324.48 112.366 323.79 111.466 323.31C110.566 322.83 109.216 322.53 107.386 322.38L103.546 322.11C102.526 322.17 101.686 322.38 100.966 322.65C100.246 322.95 99.7062 323.34 99.3162 323.82C98.9262 324.3 98.7463 324.84 98.7463 325.44C98.7463 326.16 99.0163 326.79 99.5563 327.33C100.096 327.87 100.876 328.32 101.866 328.62C102.856 328.92 104.056 329.07 105.436 329.07V329.1ZM105.346 312.36C106.426 312.36 107.356 312.18 108.166 311.82C108.976 311.46 109.606 310.95 110.086 310.29C110.536 309.63 110.776 308.88 110.776 307.98C110.776 306.69 110.266 305.64 109.276 304.83C108.286 304.02 106.966 303.6 105.346 303.6C104.296 303.6 103.336 303.78 102.526 304.17C101.716 304.56 101.086 305.07 100.636 305.7C100.186 306.33 99.9463 307.11 99.9463 307.98C99.9463 309.27 100.456 310.32 101.446 311.13C102.436 311.94 103.756 312.36 105.346 312.36ZM108.676 304.35L107.206 301.47L118.126 301.11V304.47L108.676 304.35Z" fill="white"/>
<path d="M124.697 331.95C124.007 331.95 123.317 331.86 122.657 331.71C121.967 331.53 121.307 331.26 120.617 330.84L121.547 327.42C121.997 327.72 122.477 327.93 122.987 328.08C123.497 328.23 123.977 328.29 124.367 328.29C125.417 328.29 126.257 328.02 126.857 327.51C127.457 327 127.907 326.19 128.267 325.14L129.107 322.71L120.737 301.11H125.087L131.357 318.18L137.477 301.11H141.677L132.407 325.65C131.777 327.33 131.057 328.62 130.307 329.52C129.557 330.42 128.687 331.08 127.757 331.44C126.827 331.8 125.807 331.98 124.697 331.98V331.95Z" fill="white"/>
<path d="M150.614 322.92C149.114 322.92 147.824 322.65 146.714 322.11C145.604 321.57 144.734 320.79 144.134 319.8C143.534 318.81 143.234 317.61 143.234 316.26C143.234 315.15 143.534 314.1 144.104 313.17C144.674 312.24 145.574 311.46 146.834 310.86C148.064 310.26 149.684 309.84 151.664 309.63C153.644 309.42 156.014 309.45 158.804 309.75L158.924 312.66C156.764 312.36 154.934 312.27 153.404 312.33C151.904 312.39 150.674 312.6 149.744 312.93C148.814 313.26 148.124 313.71 147.674 314.28C147.224 314.85 147.014 315.45 147.014 316.14C147.014 317.25 147.404 318.12 148.214 318.75C149.024 319.38 150.104 319.68 151.514 319.68C152.714 319.68 153.764 319.47 154.724 319.02C155.684 318.57 156.404 317.97 156.974 317.19C157.514 316.41 157.814 315.48 157.814 314.46V308.55C157.814 307.56 157.604 306.69 157.154 305.97C156.704 305.25 156.074 304.68 155.234 304.26C154.394 303.84 153.344 303.66 152.114 303.66C151.004 303.66 149.894 303.84 148.814 304.17C147.734 304.5 146.654 305.04 145.664 305.79L144.464 302.73C145.784 301.83 147.134 301.2 148.514 300.84C149.924 300.48 151.244 300.3 152.534 300.3C154.484 300.3 156.134 300.6 157.514 301.23C158.894 301.83 159.914 302.76 160.634 303.99C161.354 305.22 161.714 306.75 161.714 308.58V322.35H158.054V319.77C157.334 320.82 156.314 321.63 154.994 322.17C153.674 322.71 152.264 323.01 150.674 323.01L150.614 322.92Z" fill="white"/>
<path d="M167.352 322.26V301.08H171.342V304.14C172.182 302.76 173.202 301.8 174.372 301.23C175.542 300.69 176.802 300.39 178.122 300.39C178.542 300.39 178.932 300.39 179.322 300.45C179.712 300.51 180.102 300.54 180.462 300.63L179.892 304.77C179.502 304.65 179.082 304.56 178.662 304.5C178.242 304.44 177.822 304.41 177.432 304.41C175.662 304.41 174.192 304.95 173.052 306.06C171.912 307.17 171.342 308.64 171.342 310.47V322.23H167.352V322.26Z" fill="white"/>
<path d="M196.062 322.26V292.02H200.112V308.34L213.343 292.02H218.322L207.312 305.64L220.093 322.26H214.843L204.673 308.76L200.143 314.19V322.26H196.093H196.062Z" fill="white"/>
<path d="M232.229 322.92C230.039 322.92 228.089 322.41 226.379 321.39C224.669 320.37 223.319 319.02 222.329 317.31C221.339 315.6 220.859 313.74 220.859 311.7C220.859 310.2 221.129 308.76 221.699 307.41C222.269 306.06 223.049 304.86 224.069 303.81C225.089 302.76 226.289 301.95 227.669 301.35C229.049 300.75 230.579 300.45 232.199 300.45C234.389 300.45 236.369 300.96 238.079 301.98C239.789 303 241.139 304.35 242.129 306.06C243.119 307.77 243.599 309.63 243.599 311.67C243.599 313.17 243.329 314.61 242.759 315.96C242.189 317.31 241.409 318.51 240.389 319.53C239.369 320.58 238.169 321.39 236.789 321.99C235.409 322.59 233.879 322.89 232.229 322.89V322.92ZM232.229 319.32C233.639 319.32 234.929 319.02 236.009 318.39C237.119 317.76 237.989 316.89 238.619 315.72C239.249 314.58 239.579 313.23 239.579 311.67C239.579 310.11 239.279 308.73 238.649 307.59C238.019 306.45 237.149 305.55 236.039 304.95C234.929 304.32 233.669 304.02 232.229 304.02C230.789 304.02 229.529 304.32 228.449 304.95C227.339 305.58 226.469 306.45 225.869 307.59C225.239 308.73 224.939 310.08 224.939 311.67C224.939 313.26 225.239 314.58 225.869 315.72C226.499 316.86 227.369 317.76 228.479 318.39C229.589 319.02 230.849 319.32 232.259 319.32H232.229ZM227.789 297.12C227.069 297.12 226.469 296.88 225.929 296.37C225.389 295.86 225.119 295.23 225.119 294.48C225.119 293.97 225.239 293.52 225.479 293.13C225.719 292.74 226.049 292.44 226.439 292.2C226.829 291.99 227.279 291.87 227.759 291.87C228.479 291.87 229.109 292.11 229.619 292.59C230.159 293.07 230.399 293.7 230.399 294.48C230.399 294.99 230.279 295.47 230.039 295.86C229.799 296.25 229.469 296.58 229.079 296.79C228.689 297 228.239 297.12 227.759 297.12H227.789ZM236.639 297.12C235.949 297.12 235.319 296.88 234.779 296.37C234.239 295.86 233.969 295.23 233.969 294.48C233.969 293.97 234.089 293.52 234.329 293.13C234.569 292.74 234.899 292.44 235.289 292.2C235.679 291.99 236.129 291.87 236.609 291.87C237.329 291.87 237.959 292.11 238.469 292.59C239.009 293.07 239.249 293.7 239.249 294.48C239.249 294.99 239.129 295.47 238.889 295.86C238.649 296.25 238.319 296.58 237.929 296.79C237.539 297 237.089 297.12 236.609 297.12H236.639Z" fill="white"/>
<path d="M246.343 322.26V319.29L257.893 304.65H246.522V301.08H262.753V304.05L251.383 318.66H262.933V322.26H246.312H246.343Z" fill="white"/>
<path d="M268.414 322.259V291.149H272.404V322.259H268.414Z" fill="white"/>
<path d="M287.893 322.92C285.703 322.92 283.753 322.41 282.043 321.39C280.333 320.37 278.983 319.02 277.993 317.31C277.003 315.6 276.523 313.74 276.523 311.7C276.523 310.2 276.793 308.76 277.363 307.41C277.933 306.06 278.713 304.86 279.733 303.81C280.753 302.76 281.953 301.95 283.333 301.35C284.713 300.75 286.243 300.45 287.863 300.45C290.053 300.45 292.033 300.96 293.743 301.98C295.453 303 296.803 304.35 297.793 306.06C298.783 307.77 299.263 309.63 299.263 311.67C299.263 313.17 298.993 314.61 298.423 315.96C297.853 317.31 297.073 318.51 296.053 319.53C295.033 320.58 293.833 321.39 292.453 321.99C291.073 322.59 289.543 322.89 287.893 322.89V322.92ZM287.893 319.32C289.303 319.32 290.593 319.02 291.673 318.39C292.783 317.76 293.653 316.89 294.283 315.72C294.913 314.58 295.243 313.23 295.243 311.67C295.243 310.11 294.943 308.73 294.313 307.59C293.683 306.45 292.813 305.55 291.703 304.95C290.593 304.32 289.333 304.02 287.893 304.02C286.453 304.02 285.193 304.32 284.113 304.95C283.003 305.58 282.133 306.45 281.533 307.59C280.903 308.73 280.603 310.08 280.603 311.67C280.603 313.26 280.903 314.58 281.533 315.72C282.163 316.86 283.033 317.76 284.143 318.39C285.253 319.02 286.513 319.32 287.923 319.32H287.893ZM283.483 297.12C282.763 297.12 282.163 296.88 281.623 296.37C281.083 295.86 280.813 295.23 280.813 294.48C280.813 293.97 280.933 293.52 281.173 293.13C281.413 292.74 281.743 292.44 282.133 292.2C282.523 291.99 282.973 291.87 283.453 291.87C284.173 291.87 284.803 292.11 285.313 292.59C285.853 293.07 286.093 293.7 286.093 294.48C286.093 294.99 285.973 295.47 285.733 295.86C285.493 296.25 285.163 296.58 284.773 296.79C284.383 297 283.933 297.12 283.453 297.12H283.483ZM292.333 297.12C291.643 297.12 291.013 296.88 290.473 296.37C289.933 295.86 289.663 295.23 289.663 294.48C289.663 293.97 289.783 293.52 290.023 293.13C290.263 292.74 290.593 292.44 290.983 292.2C291.373 291.99 291.823 291.87 292.303 291.87C293.023 291.87 293.653 292.11 294.163 292.59C294.703 293.07 294.943 293.7 294.943 294.48C294.943 294.99 294.823 295.47 294.583 295.86C294.343 296.25 294.013 296.58 293.623 296.79C293.233 297 292.783 297.12 292.303 297.12H292.333Z" fill="white"/>
<path d="M303.406 322.26V301.08H307.396V303.93C308.296 302.7 309.376 301.8 310.576 301.26C311.776 300.72 313.036 300.45 314.296 300.45C316.216 300.45 317.806 300.84 319.066 301.62C320.326 302.4 321.256 303.36 321.886 304.56C322.516 305.76 322.816 306.99 322.816 308.22V322.26H318.826V309.45C318.826 307.86 318.316 306.57 317.326 305.58C316.336 304.62 314.986 304.11 313.276 304.11C312.166 304.11 311.146 304.35 310.276 304.86C309.376 305.37 308.686 306.06 308.176 306.96C307.666 307.86 307.396 308.91 307.396 310.08V322.23H303.406V322.26Z" fill="white"/>
<path d="M330.361 331.95C329.671 331.95 328.981 331.86 328.321 331.71C327.631 331.53 326.971 331.26 326.281 330.84L327.211 327.42C327.661 327.72 328.141 327.93 328.651 328.08C329.161 328.23 329.641 328.29 330.031 328.29C331.081 328.29 331.921 328.02 332.521 327.51C333.121 327 333.571 326.19 333.931 325.14L334.771 322.71L326.401 301.11H330.751L337.021 318.18L343.141 301.11H347.341L338.071 325.65C337.441 327.33 336.721 328.62 335.971 329.52C335.221 330.42 334.351 331.08 333.421 331.44C332.491 331.8 331.471 331.98 330.361 331.98V331.95Z" fill="white"/>
<path d="M351.289 322.259V291.149H355.279V310.229L364.279 301.079H369.019L361.519 309.029L370.279 322.259H365.479L358.639 311.609L355.279 314.999V322.259H351.289Z" fill="white"/>
<path d="M375.002 297.09C374.252 297.09 373.592 296.85 373.052 296.34C372.512 295.83 372.242 295.2 372.242 294.42C372.242 293.64 372.512 293.01 373.052 292.5C373.592 291.99 374.252 291.75 375.002 291.75C375.752 291.75 376.412 291.99 376.952 292.5C377.492 293.01 377.762 293.64 377.762 294.42C377.762 295.2 377.492 295.83 376.952 296.34C376.412 296.85 375.752 297.09 375.002 297.09ZM373.022 322.26V301.08H377.012V322.26H373.022Z" fill="white"/>
<path d="M388.857 322.92C387.357 322.92 386.067 322.65 384.957 322.11C383.847 321.57 382.977 320.79 382.377 319.8C381.777 318.81 381.477 317.61 381.477 316.26C381.477 315.15 381.777 314.1 382.347 313.17C382.917 312.24 383.817 311.46 385.077 310.86C386.307 310.26 387.927 309.84 389.907 309.63C391.887 309.42 394.257 309.45 397.047 309.75L397.167 312.66C395.007 312.36 393.177 312.27 391.647 312.33C390.147 312.39 388.917 312.6 387.987 312.93C387.057 313.26 386.367 313.71 385.917 314.28C385.467 314.85 385.257 315.45 385.257 316.14C385.257 317.25 385.647 318.12 386.457 318.75C387.267 319.38 388.347 319.68 389.757 319.68C390.957 319.68 392.007 319.47 392.967 319.02C393.927 318.57 394.647 317.97 395.217 317.19C395.757 316.41 396.057 315.48 396.057 314.46V308.55C396.057 307.56 395.847 306.69 395.397 305.97C394.947 305.25 394.317 304.68 393.477 304.26C392.637 303.84 391.587 303.66 390.357 303.66C389.247 303.66 388.137 303.84 387.057 304.17C385.977 304.5 384.897 305.04 383.907 305.79L382.707 302.73C384.027 301.83 385.377 301.2 386.757 300.84C388.167 300.48 389.487 300.3 390.777 300.3C392.727 300.3 394.377 300.6 395.757 301.23C397.137 301.83 398.157 302.76 398.877 303.99C399.597 305.22 399.957 306.75 399.957 308.58V322.35H396.297V319.77C395.577 320.82 394.557 321.63 393.237 322.17C391.917 322.71 390.507 323.01 388.917 323.01L388.857 322.92Z" fill="white"/>
<path d="M415.212 322.919C413.112 322.919 411.282 322.409 409.662 321.419C408.042 320.429 406.812 319.079 405.912 317.399C405.012 315.719 404.562 313.799 404.562 311.699C404.562 310.139 404.832 308.699 405.342 307.349C405.852 305.999 406.602 304.799 407.532 303.779C408.462 302.759 409.602 301.949 410.922 301.349C412.242 300.779 413.682 300.479 415.272 300.479C417.312 300.479 419.052 300.899 420.492 301.709C421.932 302.519 423.132 303.629 424.062 305.009L423.252 305.909V291.209H427.242V322.319H423.582V317.339L424.152 318.239C423.342 319.589 422.202 320.729 420.762 321.599C419.322 322.499 417.462 322.949 415.212 322.949V322.919ZM415.932 319.319C417.342 319.319 418.632 319.019 419.712 318.389C420.822 317.759 421.692 316.889 422.322 315.719C422.952 314.579 423.282 313.229 423.282 311.669C423.282 310.109 422.982 308.729 422.352 307.589C421.722 306.449 420.852 305.549 419.742 304.949C418.632 304.319 417.372 304.019 415.932 304.019C414.492 304.019 413.232 304.319 412.152 304.949C411.042 305.579 410.172 306.449 409.572 307.589C408.942 308.729 408.643 310.079 408.643 311.669C408.643 313.259 408.942 314.579 409.572 315.719C410.202 316.859 411.072 317.759 412.182 318.389C413.292 319.019 414.552 319.319 415.962 319.319H415.932Z" fill="white"/>
<path d="M443.565 322.92C441.375 322.92 439.425 322.41 437.715 321.39C436.005 320.37 434.655 319.02 433.665 317.31C432.675 315.6 432.195 313.74 432.195 311.7C432.195 310.2 432.465 308.76 433.035 307.41C433.605 306.06 434.385 304.86 435.405 303.81C436.425 302.76 437.625 301.95 439.005 301.35C440.385 300.75 441.915 300.45 443.535 300.45C445.725 300.45 447.705 300.96 449.415 301.98C451.125 303 452.475 304.35 453.465 306.06C454.455 307.77 454.935 309.63 454.935 311.67C454.935 313.17 454.665 314.61 454.095 315.96C453.525 317.31 452.745 318.51 451.725 319.53C450.705 320.58 449.505 321.39 448.125 321.99C446.745 322.59 445.215 322.89 443.565 322.89V322.92ZM443.565 319.32C444.975 319.32 446.265 319.02 447.345 318.39C448.455 317.76 449.325 316.89 449.955 315.72C450.585 314.58 450.915 313.23 450.915 311.67C450.915 310.11 450.615 308.73 449.985 307.59C449.355 306.45 448.485 305.55 447.375 304.95C446.265 304.32 445.005 304.02 443.565 304.02C442.125 304.02 440.865 304.32 439.785 304.95C438.675 305.58 437.805 306.45 437.205 307.59C436.575 308.73 436.275 310.08 436.275 311.67C436.275 313.26 436.575 314.58 437.205 315.72C437.835 316.86 438.705 317.76 439.815 318.39C440.925 319.02 442.185 319.32 443.595 319.32H443.565ZM441.465 297L445.485 289.56H449.565L445.155 297H441.465Z" fill="white"/>
<path d="M480.275 322.92C478.025 322.92 476.045 322.44 474.335 321.51C472.625 320.58 471.275 319.26 470.315 317.58C469.355 315.9 468.875 313.95 468.875 311.73C468.875 310.11 469.145 308.61 469.715 307.23C470.285 305.85 471.035 304.65 472.055 303.63C473.045 302.61 474.215 301.83 475.565 301.29C476.915 300.72 478.385 300.45 479.975 300.45C481.685 300.45 483.215 300.75 484.565 301.35C485.915 301.95 487.025 302.79 487.925 303.9C488.825 304.98 489.455 306.27 489.845 307.71C490.235 309.18 490.325 310.77 490.085 312.48H472.835C472.805 313.89 473.075 315.12 473.705 316.2C474.335 317.25 475.235 318.09 476.405 318.66C477.575 319.26 478.985 319.56 480.575 319.56C481.745 319.56 482.915 319.38 484.025 318.99C485.135 318.6 486.155 318.06 486.995 317.34L488.675 320.31C487.985 320.88 487.175 321.36 486.215 321.75C485.285 322.14 484.295 322.44 483.275 322.65C482.255 322.86 481.265 322.95 480.305 322.95L480.275 322.92ZM473.015 309.39H486.065C486.005 307.59 485.465 306.21 484.415 305.22C483.365 304.23 481.865 303.72 479.915 303.72C477.965 303.72 476.435 304.23 475.205 305.22C473.975 306.21 473.255 307.62 473.045 309.39H473.015ZM477.755 297L481.775 289.56H485.855L481.445 297H477.755Z" fill="white"/>
<path d="M501.991 322.89C500.311 322.89 498.751 322.65 497.251 322.14C495.751 321.63 494.521 320.97 493.531 320.13L495.181 317.13C496.111 317.91 497.191 318.51 498.391 318.96C499.591 319.41 500.791 319.62 502.021 319.62C503.521 319.62 504.691 319.35 505.531 318.81C506.371 318.27 506.791 317.49 506.791 316.5C506.791 315.57 506.431 314.88 505.711 314.46C504.991 314.04 503.641 313.56 501.691 313.08C499.111 312.48 497.221 311.7 496.051 310.71C494.881 309.72 494.281 308.34 494.281 306.6C494.281 305.37 494.641 304.26 495.331 303.3C496.021 302.34 496.981 301.59 498.181 301.05C499.381 300.51 500.761 300.24 502.351 300.24C503.941 300.24 505.351 300.45 506.701 300.9C508.051 301.35 509.221 301.98 510.211 302.82L508.681 305.85C508.171 305.37 507.571 304.95 506.911 304.62C506.221 304.26 505.501 303.99 504.721 303.81C503.941 303.63 503.161 303.51 502.381 303.51C501.091 303.51 500.041 303.78 499.231 304.29C498.421 304.8 498.001 305.52 498.001 306.45C498.001 307.38 498.391 308.13 499.171 308.58C499.951 309.03 501.271 309.48 503.101 309.9C505.741 310.5 507.661 311.28 508.801 312.27C509.941 313.26 510.541 314.61 510.541 316.35C510.541 317.7 510.181 318.84 509.491 319.83C508.771 320.82 507.811 321.57 506.521 322.11C505.231 322.65 503.761 322.92 502.081 322.92L501.991 322.89Z" fill="white"/>
<path d="M36.5234 374.281V344.041H40.5734V374.281H36.5234Z" fill="white"/>
<path d="M53.855 383.999C52.265 383.999 50.855 383.849 49.595 383.579C48.335 383.279 47.255 382.889 46.355 382.349C45.455 381.809 44.795 381.179 44.315 380.429C43.835 379.679 43.625 378.839 43.625 377.909C43.625 377.159 43.835 376.439 44.225 375.809C44.615 375.179 45.215 374.609 46.025 374.159C46.805 373.679 47.795 373.349 48.965 373.079C48.125 372.659 47.465 372.179 47.045 371.669C46.625 371.129 46.415 370.529 46.415 369.839C46.415 369.239 46.595 368.699 46.925 368.189C47.255 367.679 47.765 367.229 48.395 366.809C49.025 366.389 49.775 366.059 50.645 365.789C51.515 365.519 52.475 365.339 53.525 365.279L54.485 367.139C53.555 367.139 52.775 367.229 52.085 367.379C51.425 367.529 50.885 367.769 50.525 368.069C50.165 368.369 49.985 368.729 49.985 369.119C49.985 369.659 50.285 370.049 50.915 370.289C51.515 370.499 52.355 370.679 53.375 370.739L57.005 371.009C58.805 371.159 60.335 371.459 61.595 371.909C62.855 372.359 63.815 372.989 64.475 373.769C65.135 374.549 65.465 375.569 65.465 376.769C65.465 377.789 65.195 378.749 64.625 379.619C64.055 380.519 63.275 381.269 62.255 381.929C61.235 382.589 60.005 383.099 58.595 383.459C57.185 383.819 55.595 383.999 53.855 383.999ZM54.035 367.529C52.295 367.529 50.735 367.199 49.355 366.539C47.975 365.879 46.865 364.979 46.055 363.839C45.245 362.699 44.825 361.439 44.825 360.029C44.825 358.619 45.245 357.359 46.055 356.219C46.865 355.079 47.975 354.179 49.385 353.519C50.795 352.859 52.325 352.529 54.065 352.529C55.805 352.529 57.365 352.859 58.745 353.519C60.125 354.179 61.235 355.079 62.045 356.219C62.855 357.359 63.275 358.619 63.275 360.029C63.275 361.439 62.855 362.729 62.045 363.839C61.235 364.979 60.125 365.879 58.745 366.539C57.365 367.199 55.805 367.529 54.065 367.529H54.035ZM54.155 381.119C56.435 381.119 58.235 380.759 59.555 380.069C60.875 379.349 61.535 378.449 61.535 377.339C61.535 376.499 61.085 375.809 60.185 375.329C59.285 374.849 57.935 374.549 56.105 374.399L52.265 374.129C51.245 374.189 50.405 374.399 49.685 374.669C48.965 374.969 48.425 375.359 48.035 375.839C47.645 376.319 47.465 376.859 47.465 377.459C47.465 378.179 47.735 378.809 48.275 379.349C48.815 379.889 49.595 380.339 50.585 380.639C51.575 380.939 52.775 381.089 54.155 381.089V381.119ZM54.035 364.349C55.115 364.349 56.045 364.169 56.855 363.809C57.665 363.449 58.295 362.939 58.775 362.279C59.225 361.619 59.465 360.869 59.465 359.969C59.465 358.679 58.955 357.629 57.965 356.819C56.975 356.009 55.655 355.589 54.035 355.589C52.985 355.589 52.025 355.769 51.215 356.159C50.405 356.549 49.775 357.059 49.325 357.689C48.875 358.319 48.635 359.099 48.635 359.969C48.635 361.259 49.145 362.309 50.135 363.119C51.125 363.929 52.445 364.349 54.035 364.349ZM57.395 356.369L55.925 353.489L66.845 353.129V356.489L57.395 356.369Z" fill="white"/>
<path d="M76.1066 374.94C74.6066 374.94 73.3166 374.67 72.2066 374.13C71.0966 373.59 70.2266 372.81 69.6266 371.82C69.0266 370.83 68.7266 369.63 68.7266 368.28C68.7266 367.17 69.0266 366.12 69.5966 365.19C70.1666 364.26 71.0666 363.48 72.3266 362.88C73.5566 362.28 75.1766 361.86 77.1566 361.65C79.1366 361.44 81.5066 361.47 84.2966 361.77L84.4166 364.68C82.2566 364.38 80.4266 364.29 78.8966 364.35C77.3966 364.41 76.1666 364.62 75.2366 364.95C74.3066 365.28 73.6166 365.73 73.1666 366.3C72.7166 366.87 72.5066 367.47 72.5066 368.16C72.5066 369.27 72.8966 370.14 73.7066 370.77C74.5166 371.4 75.5966 371.7 77.0066 371.7C78.2066 371.7 79.2566 371.49 80.2166 371.04C81.1766 370.59 81.8966 369.99 82.4666 369.21C83.0066 368.43 83.3066 367.5 83.3066 366.48V360.57C83.3066 359.58 83.0966 358.71 82.6466 357.99C82.1966 357.27 81.5666 356.7 80.7266 356.28C79.8866 355.86 78.8366 355.68 77.6066 355.68C76.4966 355.68 75.3866 355.86 74.3066 356.19C73.2266 356.52 72.1466 357.06 71.1566 357.81L69.9566 354.75C71.2766 353.85 72.6266 353.22 74.0066 352.86C75.4166 352.5 76.7366 352.32 78.0266 352.32C79.9766 352.32 81.6266 352.62 83.0066 353.25C84.3866 353.85 85.4066 354.78 86.1266 356.01C86.8466 357.24 87.2066 358.77 87.2066 360.6V374.37H83.5466V371.79C82.8266 372.84 81.8066 373.65 80.4866 374.19C79.1666 374.73 77.7566 375.03 76.1666 375.03L76.1066 374.94Z" fill="white"/>
<path d="M92.2878 374.28V371.31L103.838 356.67H92.4678V353.1H108.698V356.07L97.3278 370.68H108.878V374.28H92.2578H92.2878Z" fill="white"/>
<path d="M120.358 374.91C118.678 374.91 117.118 374.67 115.618 374.16C114.118 373.65 112.888 372.99 111.898 372.15L113.548 369.15C114.478 369.93 115.558 370.53 116.758 370.98C117.958 371.43 119.158 371.64 120.388 371.64C121.888 371.64 123.058 371.37 123.898 370.83C124.738 370.29 125.158 369.51 125.158 368.52C125.158 367.59 124.798 366.9 124.078 366.48C123.358 366.06 122.008 365.58 120.058 365.1C117.478 364.5 115.588 363.72 114.418 362.73C113.248 361.74 112.648 360.36 112.648 358.62C112.648 357.39 113.008 356.28 113.698 355.32C114.388 354.36 115.348 353.61 116.548 353.07C117.748 352.53 119.128 352.26 120.718 352.26C122.308 352.26 123.718 352.47 125.068 352.92C126.418 353.37 127.588 354 128.578 354.84L127.048 357.87C126.538 357.39 125.938 356.97 125.278 356.64C124.588 356.28 123.868 356.01 123.088 355.83C122.308 355.65 121.528 355.53 120.748 355.53C119.458 355.53 118.408 355.8 117.598 356.31C116.788 356.82 116.368 357.54 116.368 358.47C116.368 359.4 116.758 360.15 117.538 360.6C118.318 361.05 119.638 361.5 121.468 361.92C124.108 362.52 126.028 363.3 127.168 364.29C128.308 365.28 128.908 366.63 128.908 368.37C128.908 369.72 128.548 370.86 127.858 371.85C127.138 372.84 126.178 373.59 124.888 374.13C123.598 374.67 122.128 374.94 120.448 374.94L120.358 374.91Z" fill="white"/>
<path d="M140.349 374.94C138.849 374.94 137.559 374.67 136.449 374.13C135.339 373.59 134.469 372.81 133.869 371.82C133.269 370.83 132.969 369.63 132.969 368.28C132.969 367.17 133.269 366.12 133.839 365.19C134.409 364.26 135.309 363.48 136.569 362.88C137.799 362.28 139.419 361.86 141.399 361.65C143.379 361.44 145.749 361.47 148.539 361.77L148.659 364.68C146.499 364.38 144.669 364.29 143.139 364.35C141.639 364.41 140.409 364.62 139.479 364.95C138.549 365.28 137.859 365.73 137.409 366.3C136.959 366.87 136.749 367.47 136.749 368.16C136.749 369.27 137.139 370.14 137.949 370.77C138.759 371.4 139.839 371.7 141.249 371.7C142.449 371.7 143.499 371.49 144.459 371.04C145.419 370.59 146.139 369.99 146.709 369.21C147.249 368.43 147.549 367.5 147.549 366.48V360.57C147.549 359.58 147.339 358.71 146.889 357.99C146.439 357.27 145.809 356.7 144.969 356.28C144.129 355.86 143.079 355.68 141.849 355.68C140.739 355.68 139.629 355.86 138.549 356.19C137.469 356.52 136.389 357.06 135.399 357.81L134.199 354.75C135.519 353.85 136.869 353.22 138.249 352.86C139.659 352.5 140.979 352.32 142.269 352.32C144.219 352.32 145.869 352.62 147.249 353.25C148.629 353.85 149.649 354.78 150.369 356.01C151.089 357.24 151.449 358.77 151.449 360.6V374.37H147.789V371.79C147.069 372.84 146.049 373.65 144.729 374.19C143.409 374.73 141.999 375.03 140.409 375.03L140.349 374.94ZM140.019 349.02L144.039 341.58H148.119L143.709 349.02H140.019Z" fill="white"/>
<path d="M165.417 383.999C163.827 383.999 162.418 383.849 161.158 383.579C159.898 383.279 158.817 382.889 157.917 382.349C157.017 381.809 156.357 381.179 155.877 380.429C155.397 379.679 155.188 378.839 155.188 377.909C155.188 377.159 155.398 376.439 155.788 375.809C156.178 375.179 156.777 374.609 157.587 374.159C158.367 373.679 159.357 373.349 160.527 373.079C159.687 372.659 159.027 372.179 158.607 371.669C158.187 371.129 157.978 370.529 157.978 369.839C157.978 369.239 158.158 368.699 158.488 368.189C158.818 367.679 159.328 367.229 159.958 366.809C160.588 366.389 161.338 366.059 162.208 365.789C163.078 365.519 164.037 365.339 165.087 365.279L166.047 367.139C165.117 367.139 164.337 367.229 163.647 367.379C162.987 367.529 162.447 367.769 162.087 368.069C161.727 368.369 161.547 368.729 161.547 369.119C161.547 369.659 161.848 370.049 162.478 370.289C163.078 370.499 163.917 370.679 164.938 370.739L168.567 371.009C170.367 371.159 171.898 371.459 173.158 371.909C174.418 372.359 175.378 372.989 176.038 373.769C176.698 374.549 177.027 375.569 177.027 376.769C177.027 377.789 176.757 378.749 176.188 379.619C175.618 380.519 174.837 381.269 173.817 381.929C172.797 382.589 171.568 383.099 170.158 383.459C168.748 383.819 167.157 383.999 165.417 383.999ZM165.598 367.529C163.858 367.529 162.297 367.199 160.917 366.539C159.537 365.879 158.428 364.979 157.618 363.839C156.808 362.699 156.388 361.439 156.388 360.029C156.388 358.619 156.808 357.359 157.618 356.219C158.428 355.079 159.538 354.179 160.948 353.519C162.358 352.859 163.887 352.529 165.627 352.529C167.367 352.529 168.928 352.859 170.308 353.519C171.688 354.179 172.797 355.079 173.607 356.219C174.417 357.359 174.837 358.619 174.837 360.029C174.837 361.439 174.417 362.729 173.607 363.839C172.797 364.979 171.688 365.879 170.308 366.539C168.928 367.199 167.367 367.529 165.627 367.529H165.598ZM165.718 381.119C167.998 381.119 169.798 380.759 171.118 380.069C172.438 379.349 173.098 378.449 173.098 377.339C173.098 376.499 172.648 375.809 171.748 375.329C170.848 374.849 169.497 374.549 167.667 374.399L163.828 374.129C162.808 374.189 161.968 374.399 161.248 374.669C160.528 374.969 159.988 375.359 159.598 375.839C159.208 376.319 159.027 376.859 159.027 377.459C159.027 378.179 159.297 378.809 159.837 379.349C160.377 379.889 161.157 380.339 162.147 380.639C163.137 380.939 164.338 381.089 165.718 381.089V381.119ZM165.598 364.349C166.678 364.349 167.607 364.169 168.417 363.809C169.227 363.449 169.857 362.939 170.337 362.279C170.787 361.619 171.027 360.869 171.027 359.969C171.027 358.679 170.517 357.629 169.527 356.819C168.537 356.009 167.218 355.589 165.598 355.589C164.548 355.589 163.587 355.769 162.777 356.159C161.967 356.549 161.338 357.059 160.888 357.689C160.438 358.319 160.198 359.099 160.198 359.969C160.198 361.259 160.708 362.309 161.698 363.119C162.688 363.929 164.008 364.349 165.598 364.349ZM168.958 356.369L167.488 353.489L178.408 353.129V356.489L168.958 356.369Z" fill="white"/>
<path d="M189.965 374.94C188.075 374.94 186.515 374.55 185.285 373.8C184.055 373.05 183.125 372.03 182.525 370.83C181.925 369.6 181.625 368.31 181.625 366.9V353.13H185.615V366.06C185.615 367.62 186.095 368.88 187.025 369.84C187.955 370.8 189.275 371.28 190.925 371.28C191.975 371.28 192.965 371.04 193.805 370.56C194.645 370.08 195.365 369.39 195.875 368.49C196.385 367.59 196.655 366.57 196.655 365.4V353.16H200.615V374.34H196.955V371.76C196.085 372.81 195.065 373.62 193.865 374.19C192.695 374.73 191.375 375 189.935 375L189.965 374.94ZM186.665 349.14C185.945 349.14 185.345 348.9 184.805 348.39C184.265 347.88 183.995 347.25 183.995 346.5C183.995 345.99 184.115 345.54 184.355 345.15C184.595 344.76 184.925 344.46 185.315 344.22C185.705 344.01 186.155 343.89 186.635 343.89C187.355 343.89 187.985 344.13 188.495 344.61C189.035 345.09 189.275 345.72 189.275 346.5C189.275 347.01 189.155 347.49 188.915 347.88C188.675 348.27 188.345 348.6 187.955 348.81C187.565 349.02 187.115 349.14 186.635 349.14H186.665ZM195.515 349.14C194.795 349.14 194.195 348.9 193.655 348.39C193.115 347.88 192.845 347.25 192.845 346.5C192.845 345.99 192.965 345.54 193.205 345.15C193.445 344.76 193.775 344.46 194.165 344.22C194.555 344.01 195.005 343.89 195.485 343.89C196.205 343.89 196.835 344.13 197.345 344.61C197.885 345.09 198.125 345.72 198.125 346.5C198.125 347.01 198.005 347.49 197.765 347.88C197.525 348.27 197.195 348.6 196.805 348.81C196.415 349.02 195.965 349.14 195.485 349.14H195.515Z" fill="white"/>
<path d="M214.964 383.999C213.374 383.999 211.964 383.849 210.704 383.579C209.444 383.279 208.364 382.889 207.464 382.349C206.564 381.809 205.904 381.179 205.424 380.429C204.944 379.679 204.734 378.839 204.734 377.909C204.734 377.159 204.944 376.439 205.334 375.809C205.724 375.179 206.324 374.609 207.134 374.159C207.914 373.679 208.904 373.349 210.074 373.079C209.234 372.659 208.574 372.179 208.154 371.669C207.734 371.129 207.524 370.529 207.524 369.839C207.524 369.239 207.704 368.699 208.034 368.189C208.364 367.679 208.874 367.229 209.504 366.809C210.134 366.389 210.884 366.059 211.754 365.789C212.624 365.519 213.584 365.339 214.634 365.279L215.594 367.139C214.664 367.139 213.884 367.229 213.194 367.379C212.534 367.529 211.994 367.769 211.634 368.069C211.274 368.369 211.094 368.729 211.094 369.119C211.094 369.659 211.394 370.049 212.024 370.289C212.624 370.499 213.464 370.679 214.484 370.739L218.114 371.009C219.914 371.159 221.444 371.459 222.704 371.909C223.964 372.359 224.924 372.989 225.584 373.769C226.244 374.549 226.574 375.569 226.574 376.769C226.574 377.789 226.304 378.749 225.734 379.619C225.164 380.519 224.384 381.269 223.364 381.929C222.344 382.589 221.114 383.099 219.704 383.459C218.294 383.819 216.704 383.999 214.964 383.999ZM215.174 367.529C213.434 367.529 211.874 367.199 210.494 366.539C209.114 365.879 208.004 364.979 207.194 363.839C206.384 362.699 205.964 361.439 205.964 360.029C205.964 358.619 206.384 357.359 207.194 356.219C208.004 355.079 209.114 354.179 210.524 353.519C211.934 352.859 213.464 352.529 215.204 352.529C216.944 352.529 218.504 352.859 219.884 353.519C221.264 354.179 222.374 355.079 223.184 356.219C223.994 357.359 224.414 358.619 224.414 360.029C224.414 361.439 223.994 362.729 223.184 363.839C222.374 364.979 221.264 365.879 219.884 366.539C218.504 367.199 216.944 367.529 215.204 367.529H215.174ZM215.264 381.119C217.544 381.119 219.344 380.759 220.664 380.069C221.984 379.349 222.644 378.449 222.644 377.339C222.644 376.499 222.194 375.809 221.294 375.329C220.394 374.849 219.044 374.549 217.214 374.399L213.374 374.129C212.354 374.189 211.514 374.399 210.794 374.669C210.074 374.969 209.534 375.359 209.144 375.839C208.754 376.319 208.574 376.859 208.574 377.459C208.574 378.179 208.844 378.809 209.384 379.349C209.924 379.889 210.704 380.339 211.694 380.639C212.684 380.939 213.884 381.089 215.264 381.089V381.119ZM215.174 364.349C216.254 364.349 217.184 364.169 217.994 363.809C218.804 363.449 219.434 362.939 219.914 362.279C220.364 361.619 220.604 360.869 220.604 359.969C220.604 358.679 220.094 357.629 219.104 356.819C218.114 356.009 216.794 355.589 215.174 355.589C214.124 355.589 213.164 355.769 212.354 356.159C211.544 356.549 210.914 357.059 210.464 357.689C210.014 358.319 209.774 359.099 209.774 359.969C209.774 361.259 210.284 362.309 211.274 363.119C212.264 363.929 213.584 364.349 215.174 364.349ZM218.504 356.369L217.034 353.489L227.954 353.129V356.489L218.504 356.369Z" fill="white"/>
<path d="M233.705 383.97C233.015 383.97 232.325 383.88 231.665 383.73C230.975 383.55 230.315 383.28 229.625 382.86L230.555 379.44C231.005 379.74 231.485 379.95 231.995 380.1C232.505 380.25 232.985 380.31 233.375 380.31C234.425 380.31 235.265 380.04 235.865 379.53C236.465 379.02 236.915 378.21 237.275 377.16L238.115 374.73L229.745 353.13H234.095L240.365 370.2L246.485 353.13H250.685L241.415 377.67C240.785 379.35 240.065 380.64 239.315 381.54C238.565 382.44 237.695 383.1 236.765 383.46C235.835 383.82 234.815 384 233.705 384V383.97Z" fill="white"/>
<path d="M256.619 349.11C255.869 349.11 255.209 348.87 254.669 348.36C254.129 347.85 253.859 347.22 253.859 346.44C253.859 345.66 254.129 345.03 254.669 344.52C255.209 344.01 255.869 343.77 256.619 343.77C257.369 343.77 258.029 344.01 258.569 344.52C259.109 345.03 259.379 345.66 259.379 346.44C259.379 347.22 259.109 347.85 258.569 348.36C258.029 348.87 257.369 349.11 256.619 349.11ZM254.609 374.28V353.1H258.599V374.28H254.609Z" fill="white"/>
<path d="M276.898 374.281V344.041H295.168V347.791H280.948V357.301H293.878V360.961H280.948V374.311H276.898V374.281Z" fill="white"/>
<path d="M307.839 374.941C305.649 374.941 303.699 374.431 301.989 373.411C300.279 372.391 298.929 371.041 297.939 369.331C296.949 367.621 296.469 365.761 296.469 363.721C296.469 362.221 296.739 360.781 297.309 359.431C297.879 358.081 298.659 356.881 299.679 355.831C300.699 354.781 301.899 353.971 303.279 353.371C304.659 352.771 306.189 352.471 307.809 352.471C309.999 352.471 311.979 352.981 313.689 354.001C315.399 355.021 316.749 356.371 317.739 358.081C318.729 359.791 319.209 361.651 319.209 363.691C319.209 365.191 318.939 366.631 318.369 367.981C317.799 369.331 317.019 370.531 315.999 371.551C314.979 372.601 313.779 373.411 312.399 374.011C311.019 374.611 309.489 374.911 307.839 374.911V374.941ZM307.839 371.341C309.249 371.341 310.539 371.041 311.619 370.411C312.729 369.781 313.599 368.911 314.229 367.741C314.859 366.601 315.189 365.251 315.189 363.691C315.189 362.131 314.889 360.751 314.259 359.611C313.629 358.471 312.759 357.571 311.649 356.971C310.539 356.341 309.279 356.041 307.839 356.041C306.399 356.041 305.139 356.341 304.059 356.971C302.949 357.601 302.079 358.471 301.479 359.611C300.849 360.751 300.549 362.101 300.549 363.691C300.549 365.281 300.849 366.601 301.479 367.741C302.109 368.881 302.979 369.781 304.089 370.411C305.199 371.041 306.459 371.341 307.869 371.341H307.839Z" fill="white"/>
<path d="M323.352 374.281V353.101H327.342V356.161C328.182 354.781 329.202 353.821 330.372 353.251C331.542 352.711 332.802 352.411 334.122 352.411C334.542 352.411 334.932 352.411 335.322 352.471C335.712 352.531 336.102 352.561 336.462 352.651L335.892 356.791C335.502 356.671 335.082 356.581 334.662 356.521C334.242 356.461 333.822 356.431 333.432 356.431C331.662 356.431 330.192 356.971 329.052 358.081C327.912 359.191 327.342 360.661 327.342 362.491V374.251H323.352V374.281Z" fill="white"/>
<path d="M348.087 374.94C345.987 374.94 344.157 374.43 342.537 373.44C340.917 372.45 339.687 371.1 338.787 369.42C337.887 367.74 337.438 365.82 337.438 363.72C337.438 362.16 337.707 360.72 338.217 359.37C338.727 358.02 339.477 356.82 340.407 355.8C341.337 354.78 342.477 353.97 343.797 353.37C345.117 352.8 346.557 352.5 348.147 352.5C350.187 352.5 351.927 352.92 353.367 353.73C354.807 354.54 356.007 355.65 356.938 357.03L356.127 357.93V343.23H360.117V374.34H356.457V369.36L357.027 370.26C356.217 371.61 355.077 372.75 353.637 373.62C352.197 374.52 350.337 374.97 348.087 374.97V374.94ZM348.807 371.34C350.217 371.34 351.507 371.04 352.587 370.41C353.697 369.78 354.567 368.91 355.197 367.74C355.827 366.6 356.157 365.25 356.157 363.69C356.157 362.13 355.858 360.75 355.228 359.61C354.598 358.47 353.727 357.57 352.617 356.97C351.507 356.34 350.247 356.04 348.807 356.04C347.367 356.04 346.107 356.34 345.027 356.97C343.917 357.6 343.047 358.47 342.447 359.61C341.817 360.75 341.517 362.1 341.517 363.69C341.517 365.28 341.817 366.6 342.447 367.74C343.077 368.88 343.947 369.78 345.057 370.41C346.167 371.04 347.427 371.34 348.837 371.34H348.807Z" fill="white"/>
<path d="M366.014 349.02L369.554 341.58H373.634L369.644 349.02H365.984H366.014ZM366.104 374.28V353.1H370.094V374.28H366.104Z" fill="white"/>
<path d="M374.281 356.49V353.13H379.711V356.49H374.281ZM385.681 374.94C383.701 374.94 382.111 374.37 380.911 373.2C379.711 372.06 379.111 370.26 379.111 367.86V346.89H383.071V353.1H389.281V356.46H383.071V366.84C383.071 368.46 383.371 369.6 383.941 370.23C384.511 370.89 385.381 371.22 386.491 371.22C387.001 371.22 387.481 371.16 387.931 371.04C388.381 370.92 388.771 370.77 389.131 370.59L389.941 373.86C389.341 374.19 388.681 374.43 387.931 374.61C387.181 374.79 386.431 374.88 385.651 374.88L385.681 374.94Z" fill="white"/>
<path d="M403.722 374.94C401.532 374.94 399.582 374.43 397.872 373.41C396.162 372.39 394.812 371.04 393.822 369.33C392.832 367.62 392.352 365.76 392.352 363.72C392.352 362.22 392.622 360.78 393.192 359.43C393.762 358.08 394.542 356.88 395.562 355.83C396.582 354.78 397.782 353.97 399.162 353.37C400.542 352.77 402.072 352.47 403.692 352.47C405.882 352.47 407.862 352.98 409.572 354C411.282 355.02 412.632 356.37 413.622 358.08C414.612 359.79 415.092 361.65 415.092 363.69C415.092 365.19 414.822 366.63 414.252 367.98C413.682 369.33 412.902 370.53 411.882 371.55C410.862 372.6 409.662 373.41 408.282 374.01C406.902 374.61 405.372 374.91 403.722 374.91V374.94ZM403.722 371.34C405.132 371.34 406.422 371.04 407.502 370.41C408.612 369.78 409.482 368.91 410.112 367.74C410.742 366.6 411.072 365.25 411.072 363.69C411.072 362.13 410.772 360.75 410.142 359.61C409.512 358.47 408.642 357.57 407.532 356.97C406.422 356.34 405.162 356.04 403.722 356.04C402.282 356.04 401.022 356.34 399.942 356.97C398.832 357.6 397.962 358.47 397.362 359.61C396.732 360.75 396.432 362.1 396.432 363.69C396.432 365.28 396.732 366.6 397.362 367.74C397.992 368.88 398.862 369.78 399.972 370.41C401.082 371.04 402.342 371.34 403.752 371.34H403.722ZM401.592 349.02L405.612 341.58H409.692L405.282 349.02H401.592Z" fill="white"/>
<path d="M419.234 374.28V343.17H423.224V362.25L432.224 353.1H436.964L429.464 361.05L438.224 374.28H433.424L426.584 363.63L423.224 367.02V374.28H419.234Z" fill="white"/>
<path d="M450.011 374.94C447.821 374.94 445.871 374.43 444.161 373.41C442.451 372.39 441.101 371.04 440.111 369.33C439.121 367.62 438.641 365.76 438.641 363.72C438.641 362.22 438.911 360.78 439.481 359.43C440.051 358.08 440.831 356.88 441.851 355.83C442.871 354.78 444.071 353.97 445.451 353.37C446.831 352.77 448.361 352.47 449.981 352.47C452.171 352.47 454.151 352.98 455.861 354C457.571 355.02 458.921 356.37 459.911 358.08C460.901 359.79 461.381 361.65 461.381 363.69C461.381 365.19 461.111 366.63 460.541 367.98C459.971 369.33 459.191 370.53 458.171 371.55C457.151 372.6 455.951 373.41 454.571 374.01C453.191 374.61 451.661 374.91 450.011 374.91V374.94ZM450.011 371.34C451.421 371.34 452.711 371.04 453.791 370.41C454.901 369.78 455.771 368.91 456.401 367.74C457.031 366.6 457.361 365.25 457.361 363.69C457.361 362.13 457.061 360.75 456.431 359.61C455.801 358.47 454.931 357.57 453.821 356.97C452.711 356.34 451.451 356.04 450.011 356.04C448.571 356.04 447.311 356.34 446.231 356.97C445.121 357.6 444.251 358.47 443.651 359.61C443.021 360.75 442.721 362.1 442.721 363.69C442.721 365.28 443.021 366.6 443.651 367.74C444.281 368.88 445.151 369.78 446.261 370.41C447.371 371.04 448.631 371.34 450.041 371.34H450.011ZM445.571 349.14C444.851 349.14 444.251 348.9 443.711 348.39C443.171 347.88 442.901 347.25 442.901 346.5C442.901 345.99 443.021 345.54 443.261 345.15C443.501 344.76 443.831 344.46 444.221 344.22C444.611 344.01 445.061 343.89 445.541 343.89C446.261 343.89 446.891 344.13 447.401 344.61C447.941 345.09 448.181 345.72 448.181 346.5C448.181 347.01 448.061 347.49 447.821 347.88C447.581 348.27 447.251 348.6 446.861 348.81C446.471 349.02 446.021 349.14 445.541 349.14H445.571ZM454.451 349.14C453.761 349.14 453.131 348.9 452.591 348.39C452.051 347.88 451.781 347.25 451.781 346.5C451.781 345.99 451.901 345.54 452.141 345.15C452.381 344.76 452.711 344.46 453.101 344.22C453.491 344.01 453.941 343.89 454.421 343.89C455.141 343.89 455.771 344.13 456.281 344.61C456.821 345.09 457.061 345.72 457.061 346.5C457.061 347.01 456.941 347.49 456.701 347.88C456.461 348.27 456.131 348.6 455.741 348.81C455.351 349.02 454.901 349.14 454.421 349.14H454.451Z" fill="white"/>
<path d="M464.968 374.281V371.311L476.518 356.671H465.148V353.101H481.378V356.071L470.008 370.681H481.558V374.281H464.938H464.968Z" fill="white"/>
<path d="M486.219 383.34V353.1H489.879V356.28C490.749 355.17 491.859 354.24 493.209 353.52C494.559 352.8 496.209 352.44 498.249 352.44C500.289 352.44 502.209 352.92 503.799 353.91C505.389 354.9 506.649 356.25 507.549 357.93C508.449 359.61 508.899 361.53 508.899 363.66C508.899 365.19 508.629 366.66 508.119 368.01C507.609 369.36 506.889 370.56 505.929 371.61C504.969 372.63 503.859 373.44 502.539 374.04C501.249 374.61 499.779 374.91 498.189 374.91C496.389 374.91 494.829 374.58 493.509 373.92C492.189 373.26 491.049 372.36 490.179 371.28V383.34H486.219ZM497.499 371.34C498.909 371.34 500.199 371.04 501.279 370.41C502.389 369.78 503.259 368.91 503.859 367.74C504.489 366.6 504.789 365.25 504.789 363.69C504.789 362.13 504.489 360.75 503.859 359.61C503.229 358.47 502.359 357.57 501.279 356.97C500.169 356.34 498.909 356.04 497.499 356.04C496.089 356.04 494.799 356.34 493.719 356.97C492.609 357.6 491.739 358.47 491.109 359.61C490.479 360.75 490.149 362.1 490.149 363.69C490.149 365.28 490.479 366.6 491.109 367.74C491.739 368.88 492.609 369.78 493.719 370.41C494.829 371.04 496.089 371.34 497.499 371.34Z" fill="white"/>
<path d="M523.558 374.941C521.368 374.941 519.418 374.431 517.708 373.411C515.998 372.391 514.648 371.041 513.658 369.331C512.668 367.621 512.188 365.761 512.188 363.721C512.188 362.221 512.457 360.781 513.027 359.431C513.597 358.081 514.378 356.881 515.398 355.831C516.418 354.781 517.618 353.971 518.998 353.371C520.378 352.771 521.907 352.471 523.527 352.471C525.717 352.471 527.698 352.981 529.408 354.001C531.118 355.021 532.468 356.371 533.458 358.081C534.448 359.791 534.928 361.651 534.928 363.691C534.928 365.191 534.658 366.631 534.088 367.981C533.518 369.331 532.738 370.531 531.718 371.551C530.698 372.601 529.497 373.411 528.117 374.011C526.737 374.611 525.208 374.911 523.558 374.911V374.941ZM523.558 371.341C524.968 371.341 526.258 371.041 527.338 370.411C528.448 369.781 529.317 368.911 529.947 367.741C530.577 366.601 530.908 365.251 530.908 363.691C530.908 362.131 530.608 360.751 529.978 359.611C529.348 358.471 528.477 357.571 527.367 356.971C526.257 356.341 524.998 356.041 523.558 356.041C522.118 356.041 520.857 356.341 519.777 356.971C518.667 357.601 517.797 358.471 517.197 359.611C516.567 360.751 516.268 362.101 516.268 363.691C516.268 365.281 516.567 366.601 517.197 367.741C517.827 368.881 518.698 369.781 519.808 370.411C520.918 371.041 522.178 371.341 523.588 371.341H523.558Z" fill="white"/>
<path d="M538.203 374.281V353.101H542.193V355.951C543.093 354.721 544.173 353.821 545.373 353.281C546.573 352.741 547.833 352.471 549.093 352.471C551.013 352.471 552.603 352.861 553.863 353.641C555.123 354.421 556.053 355.381 556.683 356.581C557.313 357.781 557.613 359.011 557.613 360.241V374.281H553.623V361.471C553.623 359.881 553.113 358.591 552.123 357.601C551.133 356.641 549.783 356.131 548.073 356.131C546.963 356.131 545.943 356.371 545.073 356.881C544.173 357.391 543.483 358.081 542.973 358.981C542.463 359.881 542.193 360.931 542.193 362.101V374.251H538.203V374.281Z" fill="white"/>
<path d="M560.281 356.49V353.13H565.711V356.49H560.281ZM571.711 374.94C569.731 374.94 568.141 374.37 566.941 373.2C565.741 372.06 565.141 370.26 565.141 367.86V346.89H569.101V353.1H575.311V356.46H569.101V366.84C569.101 368.46 569.401 369.6 569.971 370.23C570.541 370.89 571.411 371.22 572.521 371.22C573.031 371.22 573.511 371.16 573.961 371.04C574.411 370.92 574.801 370.77 575.161 370.59L575.971 373.86C575.371 374.19 574.711 374.43 573.961 374.61C573.211 374.79 572.461 374.88 571.681 374.88L571.711 374.94Z" fill="white"/>
<path d="M590.68 374.28V370.86L606.85 347.76H591.19V344.01H611.74V347.4L595.66 370.5H611.89V374.25H590.71L590.68 374.28Z" fill="white"/>
<path d="M617.141 374.281V353.101H621.131V356.161C621.971 354.781 622.991 353.821 624.161 353.251C625.331 352.711 626.591 352.411 627.911 352.411C628.331 352.411 628.721 352.411 629.111 352.471C629.501 352.531 629.891 352.561 630.251 352.651L629.681 356.791C629.291 356.671 628.871 356.581 628.451 356.521C628.031 356.461 627.611 356.431 627.221 356.431C625.451 356.431 623.981 356.971 622.841 358.081C621.701 359.191 621.131 360.661 621.131 362.491V374.251H617.141V374.281Z" fill="white"/>
<path d="M632.727 356.49V353.13H638.157V356.49H632.727ZM644.127 374.94C642.147 374.94 640.557 374.37 639.357 373.2C638.157 372.06 637.557 370.26 637.557 367.86V346.89H641.517V353.1H647.727V356.46H641.517V366.84C641.517 368.46 641.817 369.6 642.387 370.23C642.957 370.89 643.827 371.22 644.937 371.22C645.447 371.22 645.927 371.16 646.377 371.04C646.827 370.92 647.217 370.77 647.577 370.59L648.387 373.86C647.787 374.19 647.127 374.43 646.377 374.61C645.627 374.79 644.877 374.88 644.097 374.88L644.127 374.94Z" fill="white"/>
<path d="M655.896 374.939C655.056 374.939 654.336 374.669 653.736 374.129C653.136 373.589 652.836 372.899 652.836 372.029C652.836 371.459 652.956 370.949 653.226 370.529C653.496 370.109 653.856 369.749 654.336 369.509C654.816 369.269 655.326 369.149 655.866 369.149C656.706 369.149 657.426 369.419 658.026 369.959C658.626 370.499 658.926 371.189 658.926 372.059C658.926 372.629 658.776 373.139 658.506 373.559C658.236 373.979 657.876 374.339 657.396 374.579C656.946 374.819 656.436 374.939 655.866 374.939H655.896Z" fill="white"/>
<path d="M12.0078 16.2305H0.0078125V136.23H12.0078V16.2305Z" fill="#D61A1A"/>
<path d="M12.0078 136.23H0.0078125V256.23H12.0078V136.23Z" fill="white"/>
<path d="M12.0078 256.23H0.0078125V376.23H12.0078V256.23Z" fill="#0D7C49"/>
</g>
<defs>
<clipPath id="clip0_436_3">
<rect width="658.95" height="384" fill="white"/>
</clipPath>
</defs>
</svg>
