<svg width="185" height="90" viewBox="0 0 185 90" fill="none" xmlns="http://www.w3.org/2000/svg">
<g clip-path="url(#clip0_441_379)">
<path d="M184.479 -0.000244141H0V89.4442H184.479V-0.000244141Z" fill="#7B7871"/>
<path d="M172.304 11.1804H82.8594V89.4443H172.304V11.1804Z" fill="#CCC6BB"/>
<path d="M140.475 17.8105H89.1562V23.4008H140.475V17.8105Z" fill="#7B7871"/>
<path d="M165.986 17.8105H148.359V20.0467H165.986V17.8105Z" fill="#7B7871"/>
<path d="M165.986 21.1643H148.359V23.4004H165.986V21.1643Z" fill="#7B7871"/>
<path d="M166.008 27.6047H122.555V48.6354H166.008V27.6047Z" fill="#9F9B92"/>
<path d="M118.919 27.6047H89.1562V28.7228H118.919V27.6047Z" fill="#9F9B92"/>
<path d="M118.919 31.5796H89.1562V32.6976H118.919V31.5796Z" fill="#9F9B92"/>
<path d="M118.919 35.554H89.1562V36.672H118.919V35.554Z" fill="#9F9B92"/>
<path d="M118.919 39.5352H89.1562V40.6532H118.919V39.5352Z" fill="#9F9B92"/>
<path d="M118.919 43.5093H89.1562V44.6273H118.919V43.5093Z" fill="#9F9B92"/>
<path d="M118.919 47.4897H89.1562V48.6078H118.919V47.4897Z" fill="#9F9B92"/>
<path d="M166 51.4646H89.1562V52.5827H166V51.4646Z" fill="#9F9B92"/>
<path d="M166 55.4387H89.1562V56.5568H166V55.4387Z" fill="#9F9B92"/>
<path d="M166 59.4192H89.1562V60.5372H166V59.4192Z" fill="#9F9B92"/>
<path d="M166 63.394H89.1562V64.5121H166V63.394Z" fill="#9F9B92"/>
<path d="M166 67.3745H89.1562V68.4926H166V67.3745Z" fill="#9F9B92"/>
<path d="M166 71.3486H89.1562V72.4667H166V71.3486Z" fill="#9F9B92"/>
<path d="M166 75.3235H89.1562V76.4415H166V75.3235Z" fill="#9F9B92"/>
<path d="M166 79.304H89.1562V80.422H166V79.304Z" fill="#9F9B92"/>
<path d="M166 83.2781H89.1562V84.3961H166V83.2781Z" fill="#9F9B92"/>
<path d="M104.835 39.1321H15.3906V89.4446H104.835V39.1321Z" fill="#F5F4F0"/>
<path d="M96.1346 75.3462H23.4609V76.4642H96.1346V75.3462Z" fill="#CCC6BB"/>
<path d="M96.1346 79.293H23.4609V80.411H96.1346V79.293Z" fill="#CCC6BB"/>
<path d="M96.1346 83.3237H23.4609V84.4418H96.1346V83.3237Z" fill="#CCC6BB"/>
<path d="M66.9142 47.5178H23.4609V71.7852H66.9142V47.5178Z" fill="#CCC6BB"/>
<path d="M96.1418 47.5178H78.5156V49.7539H96.1418V47.5178Z" fill="#CCC6BB"/>
<path d="M96.1418 50.8718H78.5156V53.1079H96.1418V50.8718Z" fill="#CCC6BB"/>
</g>
<defs>
<clipPath id="clip0_441_379">
<rect width="184.479" height="89.4445" fill="white"/>
</clipPath>
</defs>
</svg>
